{
.appVersion = "1075";
copyright = "Copyright © 2018 by Cadson Demak Co.,Ltd.. All rights reserved.";
customParameters = (
{
name = vendorID;
value = CDK;
},
{
name = description;
value = "Copyright (c) 2018, Cadson Demak (info@cadsondemak.com)";
},
{
name = license;

glyphs = (
{
glyphname = A;
layers = (
{
anchors = (
{
name = bottom;
position = "{292, 0}";
},
{
name = ogonek;
position = "{525, 10}";
},
{
name = top;
position = "{292, 700}";
}
);
layerId = "A03BEFF0-B1C9-4D5E-A067-C5184F278B10";
paths = (
{
closed = 1;
nodes = (
"36 -4 OFFCURVE",
"42 -6 OFFCURVE",
"48 -6 CURVE SMOOTH",
"60 -6 OFFCURVE",
"69 2 OFFCURVE",
"76 23 CURVE SMOOTH",
"148 227 LINE",
"443 227 LINE",
"525 -6 LINE",
"550 -6 OFFCURVE",
"559 7 OFFCURVE",
"550 31 CURVE SMOOTH",
"315 703 LINE",
"310 705 OFFCURVE",
"305 706 OFFCURVE",
"300 706 CURVE SMOOTH",
"284 706 OFFCURVE",
"273 696 OFFCURVE",
"265 671 CURVE SMOOTH",
"30 0 LINE"
);
},
{
closed = 1;
nodes = (
"295 649 LINE",
"432 259 LINE",
"159 259 LINE"
);
}
);
width = 583;
}
);
leftKerningGroup = A;
note = A;
rightKerningGroup = A;
unicode = 0041;
},
{
glyphname = Aacute;
layers = (
{
anchors = (
{
name = bottom;
position = "{292, 0}";
},
{
name = ogonek;
position = "{525, 10}";
},
{
name = top;
position = "{343, 890}";
}
);
layerId = "A03BEFF0-B1C9-4D5E-A067-C5184F278B10";
paths = (
{
closed = 1;
nodes = (
"36 -4 OFFCURVE",
"42 -6 OFFCURVE",
"48 -6 CURVE SMOOTH",
"60 -6 OFFCURVE",
"69 2 OFFCURVE",
"76 23 CURVE SMOOTH",
"148 227 LINE",
"443 227 LINE",
"525 -6 LINE",
"550 -6 OFFCURVE",
"559 7 OFFCURVE",
"550 31 CURVE SMOOTH",
"315 703 LINE",
"310 705 OFFCURVE",
"305 706 OFFCURVE",
"300 706 CURVE SMOOTH",
"284 706 OFFCURVE",
"273 696 OFFCURVE",
"265 671 CURVE SMOOTH",
"30 0 LINE"
);
},
{
closed = 1;
nodes = (
"295 649 LINE",
"432 259 LINE",
"159 259 LINE"
);
},
{
closed = 1;
nodes = (
"272 752 LINE",
"365 890 LINE",
"321 890 LINE",
"256 752 LINE"
);
}
);
width = 583;
}
);
leftKerningGroup = A;
note = Aacute;
rightKerningGroup = A;
unicode = 00C1;
},
{
glyphname = Abreve;
layers = (
{
anchors = (
{
name = bottom;
position = "{292, 0}";
},
{
name = ogonek;
position = "{525, 10}";
},
{
name = top;
position = "{292, 870}";
}
);
layerId = "A03BEFF0-B1C9-4D5E-A067-C5184F278B10";
paths = (
{
closed = 1;
nodes = (
"36 -4 OFFCURVE",
"42 -6 OFFCURVE",
"48 -6 CURVE SMOOTH",
"60 -6 OFFCURVE",
"69 2 OFFCURVE",
"76 23 CURVE SMOOTH",
"148 227 LINE",
"443 227 LINE",
"525 -6 LINE",
"550 -6 OFFCURVE",
"559 7 OFFCURVE",
"550 31 CURVE SMOOTH",
"315 703 LINE",
"310 705 OFFCURVE",
"305 706 OFFCURVE",
"300 706 CURVE SMOOTH",
"284 706 OFFCURVE",
"273 696 OFFCURVE",
"265 671 CURVE SMOOTH",
"30 0 LINE"
);
},
{
closed = 1;
nodes = (
"295 649 LINE",
"432 259 LINE",
"159 259 LINE"
);
},
{
closed = 1;
nodes = (
"165 794 OFFCURVE",
"216 746 OFFCURVE",
"292 746 CURVE SMOOTH",
"368 746 OFFCURVE",
"419 794 OFFCURVE",
"422 870 CURVE",
"398 870 LINE",
"393 817 OFFCURVE",
"352 784 OFFCURVE",
"292 784 CURVE SMOOTH",
"232 784 OFFCURVE",
"191 817 OFFCURVE",
"186 870 CURVE",
"162 870 LINE"
);
}
);
width = 583;
}
);
leftKerningGroup = A;
note = Abreve;
rightKerningGroup = A;
unicode = 0102;
},
{
glyphname = Abreveacute;
layers = (
{
anchors = (
{
name = bottom;
position = "{292, 0}";
},
{
name = ogonek;
position = "{525, 10}";
},
{
name = top;
position = "{292, 1021}";
}
);
layerId = "A03BEFF0-B1C9-4D5E-A067-C5184F278B10";
paths = (
{
closed = 1;
nodes = (
"36 -4 OFFCURVE",
"42 -6 OFFCURVE",
"48 -6 CURVE SMOOTH",
"60 -6 OFFCURVE",
"69 2 OFFCURVE",
"76 23 CURVE SMOOTH",
"148 227 LINE",
"443 227 LINE",
"525 -6 LINE",
"550 -6 OFFCURVE",
"559 7 OFFCURVE",
"550 31 CURVE SMOOTH",
"315 703 LINE",
"310 705 OFFCURVE",
"305 706 OFFCURVE",
"300 706 CURVE SMOOTH",
"284 706 OFFCURVE",
"273 696 OFFCURVE",
"265 671 CURVE SMOOTH",
"30 0 LINE"
);
},
{
closed = 1;
nodes = (
"295 649 LINE",
"432 259 LINE",
"159 259 LINE"
);
},
{
closed = 1;
nodes = (
"165 794 OFFCURVE",
"216 746 OFFCURVE",
"292 746 CURVE SMOOTH",
"368 746 OFFCURVE",
"419 794 OFFCURVE",
"422 870 CURVE",
"398 870 LINE",
"393 817 OFFCURVE",
"352 784 OFFCURVE",
"292 784 CURVE SMOOTH",
"232 784 OFFCURVE",
"191 817 OFFCURVE",
"186 870 CURVE",
"162 870 LINE"
);
},
{
closed = 1;
nodes = (
"272 912 LINE",
"365 1022 LINE",
"321 1022 LINE",
"256 912 LINE"
);
}
);
width = 583;
}
);
leftKerningGroup = A;
note = Abreveacute;
rightKerningGroup = A;
unicode = 1EAE;
},
{
glyphname = Abrevedotbelow;
layers = (
{
anchors = (
{
name = bottom;
position = "{292, -140}";
},
{
name = ogonek;
position = "{525, 10}";
},
{
name = top;
position = "{292, 870}";
}
);
layerId = "A03BEFF0-B1C9-4D5E-A067-C5184F278B10";
paths = (
{
closed = 1;
nodes = (
"36 -4 OFFCURVE",
"42 -6 OFFCURVE",
"48 -6 CURVE SMOOTH",
"60 -6 OFFCURVE",
"69 2 OFFCURVE",
"76 23 CURVE SMOOTH",
"148 227 LINE",
"443 227 LINE",
"525 -6 LINE",
"550 -6 OFFCURVE",
"559 7 OFFCURVE",
"550 31 CURVE SMOOTH",
"315 703 LINE",
"310 705 OFFCURVE",
"305 706 OFFCURVE",
"300 706 CURVE SMOOTH",
"284 706 OFFCURVE",
"273 696 OFFCURVE",
"265 671 CURVE SMOOTH",
"30 0 LINE"
);
},
{
closed = 1;
nodes = (
"295 649 LINE",
"432 259 LINE",
"159 259 LINE"
);
},
{
closed = 1;
nodes = (
"165 794 OFFCURVE",
"216 746 OFFCURVE",
"292 746 CURVE SMOOTH",
"368 746 OFFCURVE",
"419 794 OFFCURVE",
"422 870 CURVE",
"398 870 LINE",
"393 817 OFFCURVE",
"352 784 OFFCURVE",
"292 784 CURVE SMOOTH",
"232 784 OFFCURVE",
"191 817 OFFCURVE",
"186 870 CURVE",
"162 870 LINE"
);
},
{
closed = 1;
nodes = (
"250 -117 OFFCURVE",
"268 -135 OFFCURVE",
"292 -135 CURVE SMOOTH",
"316 -135 OFFCURVE",
"334 -117 OFFCURVE",
"334 -93 CURVE SMOOTH",
"334 -69 OFFCURVE",
"316 -51 OFFCURVE",
"292 -51 CURVE SMOOTH",
"268 -51 OFFCURVE",
"250 -69 OFFCURVE",
"250 -93 CURVE SMOOTH"
);
}
);
width = 583;
}
);
leftKerningGroup = A;
note = Abrevedotbelow;
rightKerningGroup = A;
unicode = 1EB6;
},
{
glyphname = Abrevegrave;
layers = (
{
anchors = (
{
name = bottom;
position = "{292, 0}";
},
{
name = ogonek;
position = "{525, 10}";
},
{
name = top;
position = "{292, 1024}";
}
);
layerId = "A03BEFF0-B1C9-4D5E-A067-C5184F278B10";
paths = (
{
closed = 1;
nodes = (
"36 -4 OFFCURVE",
"42 -6 OFFCURVE",
"48 -6 CURVE SMOOTH",
"60 -6 OFFCURVE",
"69 2 OFFCURVE",
"76 23 CURVE SMOOTH",
"148 227 LINE",
"443 227 LINE",
"525 -6 LINE",
"550 -6 OFFCURVE",
"559 7 OFFCURVE",
"550 31 CURVE SMOOTH",
"315 703 LINE",
"310 705 OFFCURVE",
"305 706 OFFCURVE",
"300 706 CURVE SMOOTH",
"284 706 OFFCURVE",
"273 696 OFFCURVE",
"265 671 CURVE SMOOTH",
"30 0 LINE"
);
},
{
closed = 1;
nodes = (
"295 649 LINE",
"432 259 LINE",
"159 259 LINE"
);
},
{
closed = 1;
nodes = (
"165 794 OFFCURVE",
"216 746 OFFCURVE",
"292 746 CURVE SMOOTH",
"368 746 OFFCURVE",
"419 794 OFFCURVE",
"422 870 CURVE",
"398 870 LINE",
"393 817 OFFCURVE",
"352 784 OFFCURVE",
"292 784 CURVE SMOOTH",
"232 784 OFFCURVE",
"191 817 OFFCURVE",
"186 870 CURVE",
"162 870 LINE"
);
},
{
closed = 1;
nodes = (
"312 912 LINE",
"328 912 LINE",
"263 1022 LINE",
"219 1022 LINE"
);
}
);
width = 583;
}
);
leftKerningGroup = A;
note = Abrevegrave;
rightKerningGroup = A;
unicode = 1EB0;
},
{
glyphname = Abrevehookabove;
layers = (
{
anchors = (
{
name = bottom;
position = "{292, 0}";
},
{
name = ogonek;
position = "{525, 10}";
},
{
name = top;
position = "{292, 1044}";
}
);
layerId = "A03BEFF0-B1C9-4D5E-A067-C5184F278B10";
paths = (
{
closed = 1;
nodes = (
"36 -4 OFFCURVE",
"42 -6 OFFCURVE",
"48 -6 CURVE SMOOTH",
"60 -6 OFFCURVE",
"69 2 OFFCURVE",
"76 23 CURVE SMOOTH",
"148 227 LINE",
"443 227 LINE",
"525 -6 LINE",
"550 -6 OFFCURVE",
"559 7 OFFCURVE",
"550 31 CURVE SMOOTH",
"315 703 LINE",
"310 705 OFFCURVE",
"305 706 OFFCURVE",
"300 706 CURVE SMOOTH",
"284 706 OFFCURVE",
"273 696 OFFCURVE",
"265 671 CURVE SMOOTH",
"30 0 LINE"
);
},
{
closed = 1;
nodes = (
"295 649 LINE",
"432 259 LINE",
"159 259 LINE"
);
},
{
closed = 1;
nodes = (
"165 794 OFFCURVE",
"216 746 OFFCURVE",
"292 746 CURVE SMOOTH",
"368 746 OFFCURVE",
"419 794 OFFCURVE",
"422 870 CURVE",
"398 870 LINE",
"393 817 OFFCURVE",
"352 784 OFFCURVE",
"292 784 CURVE SMOOTH",
"232 784 OFFCURVE",
"191 817 OFFCURVE",
"186 870 CURVE",
"162 870 LINE"
);
},
{
closed = 1;
nodes = (
"258 986 OFFCURVE",
"271 990 OFFCURVE",
"285 990 CURVE SMOOTH",
"313 990 OFFCURVE",
"330 978 OFFCURVE",
"330 958 CURVE SMOOTH",
"330 937 OFFCURVE",
"314 909 OFFCURVE",
"277 882 CURVE",
"302 882 LINE",
"346 905 OFFCURVE",
"370 937 OFFCURVE",
"370 966 CURVE SMOOTH",
"370 997 OFFCURVE",
"343 1014 OFFCURVE",
"300 1014 CURVE SMOOTH",
"280 1014 OFFCURVE",
"261 1010 OFFCURVE",
"244 1004 CURVE",
"244 982 LINE"
);
}
);
width = 583;
}
);
leftKerningGroup = A;
note = Abrevehookabove;
rightKerningGroup = A;
unicode = 1EB2;
},
{
glyphname = Abrevetilde;
layers = (
{
anchors = (
{
name = bottom;
position = "{292, 0}";
},
{
name = ogonek;
position = "{525, 10}";
},
{
name = top;
position = "{292, 999}";
}
);
layerId = "A03BEFF0-B1C9-4D5E-A067-C5184F278B10";
paths = (
{
closed = 1;
nodes = (
"36 -4 OFFCURVE",
"42 -6 OFFCURVE",
"48 -6 CURVE SMOOTH",
"60 -6 OFFCURVE",
"69 2 OFFCURVE",
"76 23 CURVE SMOOTH",
"148 227 LINE",
"443 227 LINE",
"525 -6 LINE",
"550 -6 OFFCURVE",
"559 7 OFFCURVE",
"550 31 CURVE SMOOTH",
"315 703 LINE",
"310 705 OFFCURVE",
"305 706 OFFCURVE",
"300 706 CURVE SMOOTH",
"284 706 OFFCURVE",
"273 696 OFFCURVE",
"265 671 CURVE SMOOTH",
"30 0 LINE"
);
},
{
closed = 1;
nodes = (
"295 649 LINE",
"432 259 LINE",
"159 259 LINE"
);
},
{
closed = 1;
nodes = (
"165 794 OFFCURVE",
"216 746 OFFCURVE",
"292 746 CURVE SMOOTH",
"368 746 OFFCURVE",
"419 794 OFFCURVE",
"422 870 CURVE",
"398 870 LINE",
"393 817 OFFCURVE",
"352 784 OFFCURVE",
"292 784 CURVE SMOOTH",
"232 784 OFFCURVE",
"191 817 OFFCURVE",
"186 870 CURVE",
"162 870 LINE"
);
},
{
closed = 1;
nodes = (
"196 912 LINE",
"201 948 OFFCURVE",
"217 969 OFFCURVE",
"238 969 CURVE SMOOTH",
"272 969 OFFCURVE",
"294 912 OFFCURVE",
"344 912 CURVE SMOOTH",
"380 912 OFFCURVE",
"406 944 OFFCURVE",
"409 996 CURVE",
"387 996 LINE",
"382 960 OFFCURVE",
"364 939 OFFCURVE",
"344 939 CURVE SMOOTH",
"310 939 OFFCURVE",
"288 996 OFFCURVE",
"238 996 CURVE SMOOTH",
"201 996 OFFCURVE",
"178 964 OFFCURVE",
"174 912 CURVE"
);
}
);
width = 583;
}
);
leftKerningGroup = A;
note = Abrevetilde;
rightKerningGroup = A;
unicode = 1EB4;
},
{
glyphname = Acaron;
layers = (
{
anchors = (
{
name = bottom;
position = "{292, 0}";
},
{
name = ogonek;
position = "{525, 10}";
},
{
name = top;
position = "{292, 890}";
}
);
layerId = "A03BEFF0-B1C9-4D5E-A067-C5184F278B10";
paths = (
{
closed = 1;
nodes = (
"36 -4 OFFCURVE",
"42 -6 OFFCURVE",
"48 -6 CURVE SMOOTH",
"60 -6 OFFCURVE",
"69 2 OFFCURVE",
"76 23 CURVE SMOOTH",
"148 227 LINE",
"443 227 LINE",
"525 -6 LINE",
"550 -6 OFFCURVE",
"559 7 OFFCURVE",
"550 31 CURVE SMOOTH",
"315 703 LINE",
"310 705 OFFCURVE",
"305 706 OFFCURVE",
"300 706 CURVE SMOOTH",
"284 706 OFFCURVE",
"273 696 OFFCURVE",
"265 671 CURVE SMOOTH",
"30 0 LINE"
);
},
{
closed = 1;
nodes = (
"295 649 LINE",
"432 259 LINE",
"159 259 LINE"
);
},
{
closed = 1;
nodes = (
"268 752 LINE",
"316 752 LINE",
"422 890 LINE",
"406 890 LINE",
"292 792 LINE",
"178 890 LINE",
"162 890 LINE"
);
}
);
width = 583;
}
);
leftKerningGroup = A;
note = Acaron;
rightKerningGroup = A;
unicode = 01CD;
},
{
glyphname = Acircumflex;
layers = (
{
anchors = (
{
name = bottom;
position = "{292, 0}";
},
{
name = ogonek;
position = "{525, 10}";
},
{
name = top;
position = "{292, 890}";
}
);
layerId = "A03BEFF0-B1C9-4D5E-A067-C5184F278B10";
paths = (
{
closed = 1;
nodes = (
"36 -4 OFFCURVE",
"42 -6 OFFCURVE",
"48 -6 CURVE SMOOTH",
"60 -6 OFFCURVE",
"69 2 OFFCURVE",
"76 23 CURVE SMOOTH",
"148 227 LINE",
"443 227 LINE",
"525 -6 LINE",
"550 -6 OFFCURVE",
"559 7 OFFCURVE",
"550 31 CURVE SMOOTH",
"315 703 LINE",
"310 705 OFFCURVE",
"305 706 OFFCURVE",
"300 706 CURVE SMOOTH",
"284 706 OFFCURVE",
"273 696 OFFCURVE",
"265 671 CURVE SMOOTH",
"30 0 LINE"
);
},
{
closed = 1;
nodes = (
"295 649 LINE",
"432 259 LINE",
"159 259 LINE"
);
},
{
closed = 1;
nodes = (
"178 752 LINE",
"292 850 LINE",
"406 752 LINE",
"422 752 LINE",
"316 890 LINE",
"268 890 LINE",
"162 752 LINE"
);
}
);
width = 583;
}
);
leftKerningGroup = A;
note = Acircumflex;
rightKerningGroup = A;
unicode = 00C2;
},
{
glyphname = Acircumflexacute;
layers = (
{
anchors = (
{
name = bottom;
position = "{292, 0}";
},
{
name = ogonek;
position = "{525, 10}";
},
{
name = top;
position = "{292, 954}";
}
);
layerId = "A03BEFF0-B1C9-4D5E-A067-C5184F278B10";
paths = (
{
closed = 1;
nodes = (
"36 -4 OFFCURVE",
"42 -6 OFFCURVE",
"48 -6 CURVE SMOOTH",
"60 -6 OFFCURVE",
"69 2 OFFCURVE",
"76 23 CURVE SMOOTH",
"148 227 LINE",
"443 227 LINE",
"525 -6 LINE",
"550 -6 OFFCURVE",
"559 7 OFFCURVE",
"550 31 CURVE SMOOTH",
"315 703 LINE",
"310 705 OFFCURVE",
"305 706 OFFCURVE",
"300 706 CURVE SMOOTH",
"284 706 OFFCURVE",
"273 696 OFFCURVE",
"265 671 CURVE SMOOTH",
"30 0 LINE"
);
},
{
closed = 1;
nodes = (
"295 649 LINE",
"432 259 LINE",
"159 259 LINE"
);
},
{
closed = 1;
nodes = (
"178 752 LINE",
"292 850 LINE",
"406 752 LINE",
"422 752 LINE",
"316 890 LINE",
"268 890 LINE",
"162 752 LINE"
);
},
{
closed = 1;
nodes = (
"407 839 LINE",
"500 949 LINE",
"456 949 LINE",
"391 839 LINE"
);
}
);
width = 583;
}
);
leftKerningGroup = A;
note = Acircumflexacute;
rightKerningGroup = A;
unicode = 1EA4;
},
{
glyphname = Acircumflexdotbelow;
layers = (
{
anchors = (
{
name = bottom;
position = "{292, -140}";
},
{
name = ogonek;
position = "{525, 10}";
},
{
name = top;
position = "{292, 890}";
}
);
layerId = "A03BEFF0-B1C9-4D5E-A067-C5184F278B10";
paths = (
{
closed = 1;
nodes = (
"36 -4 OFFCURVE",
"42 -6 OFFCURVE",
"48 -6 CURVE SMOOTH",
"60 -6 OFFCURVE",
"69 2 OFFCURVE",
"76 23 CURVE SMOOTH",
"148 227 LINE",
"443 227 LINE",
"525 -6 LINE",
"550 -6 OFFCURVE",
"559 7 OFFCURVE",
"550 31 CURVE SMOOTH",
"315 703 LINE",
"310 705 OFFCURVE",
"305 706 OFFCURVE",
"300 706 CURVE SMOOTH",
"284 706 OFFCURVE",
"273 696 OFFCURVE",
"265 671 CURVE SMOOTH",
"30 0 LINE"
);
},
{
closed = 1;
nodes = (
"295 649 LINE",
"432 259 LINE",
"159 259 LINE"
);
},
{
closed = 1;
nodes = (
"178 752 LINE",
"292 850 LINE",
"406 752 LINE",
"422 752 LINE",
"316 890 LINE",
"268 890 LINE",
"162 752 LINE"
);
},
{
closed = 1;
nodes = (
"250 -117 OFFCURVE",
"268 -135 OFFCURVE",
"292 -135 CURVE SMOOTH",
"316 -135 OFFCURVE",
"334 -117 OFFCURVE",
"334 -93 CURVE SMOOTH",
"334 -69 OFFCURVE",
"316 -51 OFFCURVE",
"292 -51 CURVE SMOOTH",
"268 -51 OFFCURVE",
"250 -69 OFFCURVE",
"250 -93 CURVE SMOOTH"
);
}
);
width = 583;
}
);
leftKerningGroup = A;
note = Acircumflexdotbelow;
rightKerningGroup = A;
unicode = 1EAC;
},
{
glyphname = Acircumflexgrave;
layers = (
{
anchors = (
{
name = bottom;
position = "{292, 0}";
},
{
name = ogonek;
position = "{525, 10}";
},
{
name = top;
position = "{292, 954}";
}
);
layerId = "A03BEFF0-B1C9-4D5E-A067-C5184F278B10";
paths = (
{
closed = 1;
nodes = (
"36 -4 OFFCURVE",
"42 -6 OFFCURVE",
"48 -6 CURVE SMOOTH",
"60 -6 OFFCURVE",
"69 2 OFFCURVE",
"76 23 CURVE SMOOTH",
"148 227 LINE",
"443 227 LINE",
"525 -6 LINE",
"550 -6 OFFCURVE",
"559 7 OFFCURVE",
"550 31 CURVE SMOOTH",
"315 703 LINE",
"310 705 OFFCURVE",
"305 706 OFFCURVE",
"300 706 CURVE SMOOTH",
"284 706 OFFCURVE",
"273 696 OFFCURVE",
"265 671 CURVE SMOOTH",
"30 0 LINE"
);
},
{
closed = 1;
nodes = (
"295 649 LINE",
"432 259 LINE",
"159 259 LINE"
);
},
{
closed = 1;
nodes = (
"178 752 LINE",
"292 850 LINE",
"406 752 LINE",
"422 752 LINE",
"316 890 LINE",
"268 890 LINE",
"162 752 LINE"
);
},
{
closed = 1;
nodes = (
"421 839 LINE",
"437 839 LINE",
"372 949 LINE",
"328 949 LINE"
);
}
);
width = 583;
}
);
leftKerningGroup = A;
note = Acircumflexgrave;
rightKerningGroup = A;
unicode = 1EA6;
},
{
glyphname = Acircumflexhookabove;
layers = (
{
anchors = (
{
name = bottom;
position = "{292, 0}";
},
{
name = ogonek;
position = "{525, 10}";
},
{
name = top;
position = "{292, 966}";
}
);
layerId = "A03BEFF0-B1C9-4D5E-A067-C5184F278B10";
paths = (
{
closed = 1;
nodes = (
"36 -4 OFFCURVE",
"42 -6 OFFCURVE",
"48 -6 CURVE SMOOTH",
"60 -6 OFFCURVE",
"69 2 OFFCURVE",
"76 23 CURVE SMOOTH",
"148 227 LINE",
"443 227 LINE",
"525 -6 LINE",
"550 -6 OFFCURVE",
"559 7 OFFCURVE",
"550 31 CURVE SMOOTH",
"315 703 LINE",
"310 705 OFFCURVE",
"305 706 OFFCURVE",
"300 706 CURVE SMOOTH",
"284 706 OFFCURVE",
"273 696 OFFCURVE",
"265 671 CURVE SMOOTH",
"30 0 LINE"
);
},
{
closed = 1;
nodes = (
"295 649 LINE",
"432 259 LINE",
"159 259 LINE"
);
},
{
closed = 1;
nodes = (
"178 752 LINE",
"292 850 LINE",
"406 752 LINE",
"422 752 LINE",
"316 890 LINE",
"268 890 LINE",
"162 752 LINE"
);
},
{
closed = 1;
nodes = (
"394 944 OFFCURVE",
"405 948 OFFCURVE",
"416 948 CURVE SMOOTH",
"438 948 OFFCURVE",
"452 936 OFFCURVE",
"452 916 CURVE SMOOTH",
"452 895 OFFCURVE",
"439 867 OFFCURVE",
"409 840 CURVE",
"429 840 LINE",
"465 863 OFFCURVE",
"484 895 OFFCURVE",
"484 924 CURVE SMOOTH",
"484 955 OFFCURVE",
"462 972 OFFCURVE",
"428 972 CURVE SMOOTH",
"412 972 OFFCURVE",
"397 968 OFFCURVE",
"383 962 CURVE",
"383 940 LINE"
);
}
);
width = 583;
}
);
leftKerningGroup = A;
note = Acircumflexhookabove;
rightKerningGroup = A;
unicode = 1EA8;
},
{
glyphname = Acircumflextilde;
layers = (
{
anchors = (
{
name = bottom;
position = "{292, 0}";
},
{
name = ogonek;
position = "{525, 10}";
},
{
name = top;
position = "{292, 1013}";
}
);
layerId = "A03BEFF0-B1C9-4D5E-A067-C5184F278B10";
paths = (
{
closed = 1;
nodes = (
"36 -4 OFFCURVE",
"42 -6 OFFCURVE",
"48 -6 CURVE SMOOTH",
"60 -6 OFFCURVE",
"69 2 OFFCURVE",
"76 23 CURVE SMOOTH",
"148 227 LINE",
"443 227 LINE",
"525 -6 LINE",
"550 -6 OFFCURVE",
"559 7 OFFCURVE",
"550 31 CURVE SMOOTH",
"315 703 LINE",
"310 705 OFFCURVE",
"305 706 OFFCURVE",
"300 706 CURVE SMOOTH",
"284 706 OFFCURVE",
"273 696 OFFCURVE",
"265 671 CURVE SMOOTH",
"30 0 LINE"
);
},
{
closed = 1;
nodes = (
"295 649 LINE",
"432 259 LINE",
"159 259 LINE"
);
},
{
closed = 1;
nodes = (
"178 752 LINE",
"292 850 LINE",
"406 752 LINE",
"422 752 LINE",
"316 890 LINE",
"268 890 LINE",
"162 752 LINE"
);
},
{
closed = 1;
nodes = (
"196 926 LINE",
"201 959 OFFCURVE",
"217 977 OFFCURVE",
"238 977 CURVE SMOOTH",
"272 977 OFFCURVE",
"294 926 OFFCURVE",
"344 926 CURVE SMOOTH",
"380 926 OFFCURVE",
"406 955 OFFCURVE",
"409 1001 CURVE",
"387 1001 LINE",
"382 968 OFFCURVE",
"364 950 OFFCURVE",
"344 950 CURVE SMOOTH",
"310 950 OFFCURVE",
"288 1001 OFFCURVE",
"238 1001 CURVE SMOOTH",
"201 1001 OFFCURVE",
"178 972 OFFCURVE",
"174 926 CURVE"
);
}
);
width = 583;
}
);
leftKerningGroup = A;
note = Acircumflextilde;
rightKerningGroup = A;
unicode = 1EAA;
},
{
glyphname = Adieresis;
layers = (
{
anchors = (
{
name = bottom;
position = "{292, 0}";
},
{
name = ogonek;
position = "{525, 10}";
},
{
name = top;
position = "{292, 834}";
}
);
layerId = "A03BEFF0-B1C9-4D5E-A067-C5184F278B10";
paths = (
{
closed = 1;
nodes = (
"36 -4 OFFCURVE",
"42 -6 OFFCURVE",
"48 -6 CURVE SMOOTH",
"60 -6 OFFCURVE",
"69 2 OFFCURVE",
"76 23 CURVE SMOOTH",
"148 227 LINE",
"443 227 LINE",
"525 -6 LINE",
"550 -6 OFFCURVE",
"559 7 OFFCURVE",
"550 31 CURVE SMOOTH",
"315 703 LINE",
"310 705 OFFCURVE",
"305 706 OFFCURVE",
"300 706 CURVE SMOOTH",
"284 706 OFFCURVE",
"273 696 OFFCURVE",
"265 671 CURVE SMOOTH",
"30 0 LINE"
);
},
{
closed = 1;
nodes = (
"295 649 LINE",
"432 259 LINE",
"159 259 LINE"
);
},
{
closed = 1;
nodes = (
"180 768 OFFCURVE",
"196 752 OFFCURVE",
"222 752 CURVE SMOOTH",
"246 752 OFFCURVE",
"262 768 OFFCURVE",
"262 792 CURVE SMOOTH",
"262 818 OFFCURVE",
"246 834 OFFCURVE",
"222 834 CURVE SMOOTH",
"196 834 OFFCURVE",
"180 818 OFFCURVE",
"180 792 CURVE SMOOTH"
);
},
{
closed = 1;
nodes = (
"322 768 OFFCURVE",
"338 752 OFFCURVE",
"364 752 CURVE SMOOTH",
"388 752 OFFCURVE",
"404 768 OFFCURVE",
"404 792 CURVE SMOOTH",
"404 818 OFFCURVE",
"388 834 OFFCURVE",
"364 834 CURVE SMOOTH",
"338 834 OFFCURVE",
"322 818 OFFCURVE",
"322 792 CURVE SMOOTH"
);
}
);
width = 583;
}
);
leftKerningGroup = A;
note = Adieresis;
rightKerningGroup = A;
unicode = 00C4;
},
{
glyphname = Adotbelow;
layers = (
{
anchors = (
{
name = bottom;
position = "{292, -140}";
},
{
name = ogonek;
position = "{525, 10}";
},
{
name = top;
position = "{292, 700}";
}
);
layerId = "A03BEFF0-B1C9-4D5E-A067-C5184F278B10";
paths = (
{
closed = 1;
nodes = (
"36 -4 OFFCURVE",
"42 -6 OFFCURVE",
"48 -6 CURVE SMOOTH",
"60 -6 OFFCURVE",
"69 2 OFFCURVE",
"76 23 CURVE SMOOTH",
"148 227 LINE",
"443 227 LINE",
"525 -6 LINE",
"550 -6 OFFCURVE",
"559 7 OFFCURVE",
"550 31 CURVE SMOOTH",
"315 703 LINE",
"310 705 OFFCURVE",
"305 706 OFFCURVE",
"300 706 CURVE SMOOTH",
"284 706 OFFCURVE",
"273 696 OFFCURVE",
"265 671 CURVE SMOOTH",
"30 0 LINE"
);
},
{
closed = 1;
nodes = (
"295 649 LINE",
"432 259 LINE",
"159 259 LINE"
);
},
{
closed = 1;
nodes = (
"250 -117 OFFCURVE",
"268 -135 OFFCURVE",
"292 -135 CURVE SMOOTH",
"316 -135 OFFCURVE",
"334 -117 OFFCURVE",
"334 -93 CURVE SMOOTH",
"334 -69 OFFCURVE",
"316 -51 OFFCURVE",
"292 -51 CURVE SMOOTH",
"268 -51 OFFCURVE",
"250 -69 OFFCURVE",
"250 -93 CURVE SMOOTH"
);
}
);
width = 583;
}
);
leftKerningGroup = A;
note = Adotbelow;
rightKerningGroup = A;
unicode = 1EA0;
},
{
glyphname = Agrave;
layers = (
{
anchors = (
{
name = bottom;
position = "{292, 0}";
},
{
name = ogonek;
position = "{525, 10}";
},
{
name = top;
position = "{241, 890}";
}
);
layerId = "A03BEFF0-B1C9-4D5E-A067-C5184F278B10";
paths = (
{
closed = 1;
nodes = (
"36 -4 OFFCURVE",
"42 -6 OFFCURVE",
"48 -6 CURVE SMOOTH",
"60 -6 OFFCURVE",
"69 2 OFFCURVE",
"76 23 CURVE SMOOTH",
"148 227 LINE",
"443 227 LINE",
"525 -6 LINE",
"550 -6 OFFCURVE",
"559 7 OFFCURVE",
"550 31 CURVE SMOOTH",
"315 703 LINE",
"310 705 OFFCURVE",
"305 706 OFFCURVE",
"300 706 CURVE SMOOTH",
"284 706 OFFCURVE",
"273 696 OFFCURVE",
"265 671 CURVE SMOOTH",
"30 0 LINE"
);
},
{
closed = 1;
nodes = (
"295 649 LINE",
"432 259 LINE",
"159 259 LINE"
);
},
{
closed = 1;
nodes = (
"312 752 LINE",
"328 752 LINE",
"263 890 LINE",
"219 890 LINE"
);
}
);
width = 583;
}
);
leftKerningGroup = A;
note = Agrave;
rightKerningGroup = A;
unicode = 00C0;
},
{
glyphname = Ahookabove;
layers = (
{
anchors = (
{
name = bottom;
position = "{292, 0}";
},
{
name = ogonek;
position = "{525, 10}";
},
{
name = top;
position = "{300, 917}";
}
);
layerId = "A03BEFF0-B1C9-4D5E-A067-C5184F278B10";
paths = (
{
closed = 1;
nodes = (
"36 -4 OFFCURVE",
"42 -6 OFFCURVE",
"48 -6 CURVE SMOOTH",
"60 -6 OFFCURVE",
"69 2 OFFCURVE",
"76 23 CURVE SMOOTH",
"148 227 LINE",
"443 227 LINE",
"525 -6 LINE",
"550 -6 OFFCURVE",
"559 7 OFFCURVE",
"550 31 CURVE SMOOTH",
"315 703 LINE",
"310 705 OFFCURVE",
"305 706 OFFCURVE",
"300 706 CURVE SMOOTH",
"284 706 OFFCURVE",
"273 696 OFFCURVE",
"265 671 CURVE SMOOTH",
"30 0 LINE"
);
},
{
closed = 1;
nodes = (
"295 649 LINE",
"432 259 LINE",
"159 259 LINE"
);
},
{
closed = 1;
nodes = (
"258 883 OFFCURVE",
"271 887 OFFCURVE",
"285 887 CURVE SMOOTH",
"313 887 OFFCURVE",
"330 873 OFFCURVE",
"330 847 CURVE SMOOTH",
"330 821 OFFCURVE",
"314 786 OFFCURVE",
"277 752 CURVE",
"302 752 LINE",
"346 781 OFFCURVE",
"370 821 OFFCURVE",
"370 857 CURVE SMOOTH",
"370 896 OFFCURVE",
"343 917 OFFCURVE",
"300 917 CURVE SMOOTH",
"280 917 OFFCURVE",
"261 912 OFFCURVE",
"244 905 CURVE",
"244 877 LINE"
);
}
);
width = 583;
}
);
leftKerningGroup = A;
note = Ahookabove;
rightKerningGroup = A;
unicode = 1EA2;
},
{
glyphname = Amacron;
layers = (
{
anchors = (
{
name = bottom;
position = "{292, 0}";
},
{
name = ogonek;
position = "{525, 10}";
},
{
name = top;
position = "{292, 790}";
}
);
layerId = "A03BEFF0-B1C9-4D5E-A067-C5184F278B10";
paths = (
{
closed = 1;
nodes = (
"36 -4 OFFCURVE",
"42 -6 OFFCURVE",
"48 -6 CURVE SMOOTH",
"60 -6 OFFCURVE",
"69 2 OFFCURVE",
"76 23 CURVE SMOOTH",
"148 227 LINE",
"443 227 LINE",
"525 -6 LINE",
"550 -6 OFFCURVE",
"559 7 OFFCURVE",
"550 31 CURVE SMOOTH",
"315 703 LINE",
"310 705 OFFCURVE",
"305 706 OFFCURVE",
"300 706 CURVE SMOOTH",
"284 706 OFFCURVE",
"273 696 OFFCURVE",
"265 671 CURVE SMOOTH",
"30 0 LINE"
);
},
{
closed = 1;
nodes = (
"444 760 LINE",
"444 790 LINE",
"140 790 LINE",
"140 760 LINE"
);
},
{
closed = 1;
nodes = (
"295 649 LINE",
"432 259 LINE",
"159 259 LINE"
);
}
);
width = 583;
}
);
leftKerningGroup = A;
note = Amacron;
rightKerningGroup = A;
unicode = 0100;
},
{
glyphname = Aogonek;
lastChange = "2018-03-13 07:04:01 +0000";
layers = (
{
anchors = (
{
name = bottom;
position = "{292, 0}";
},
{
name = ogonek;
position = "{525, 10}";
},
{
name = top;
position = "{292, 700}";
}
);
layerId = "A03BEFF0-B1C9-4D5E-A067-C5184F278B10";
paths = (
{
closed = 1;
nodes = (
"36 -4 OFFCURVE",
"42 -6 OFFCURVE",
"48 -6 CURVE SMOOTH",
"60 -6 OFFCURVE",
"69 2 OFFCURVE",
"76 23 CURVE SMOOTH",
"148 227 LINE",
"443 227 LINE",
"519 10 LINE",
"513 10 LINE",
"451 -22 OFFCURVE",
"415 -63 OFFCURVE",
"415 -100 CURVE SMOOTH",
"415 -132 OFFCURVE",
"442 -155 OFFCURVE",
"485 -155 CURVE SMOOTH",
"505 -155 OFFCURVE",
"524 -150 OFFCURVE",
"541 -143 CURVE",
"541 -115 LINE",
"527 -121 OFFCURVE",
"514 -125 OFFCURVE",
"500 -125 CURVE SMOOTH",
"472 -125 OFFCURVE",
"455 -109 OFFCURVE",
"455 -88 CURVE SMOOTH",
"455 -62 OFFCURVE",
"481 -32 OFFCURVE",
"524 -2 CURVE",
"525 -6 LINE",
"550 -6 OFFCURVE",
"559 7 OFFCURVE",
"550 31 CURVE SMOOTH",
"315 703 LINE",
"310 705 OFFCURVE",
"305 706 OFFCURVE",
"300 706 CURVE SMOOTH",
"284 706 OFFCURVE",
"273 696 OFFCURVE",
"265 671 CURVE SMOOTH",
"30 0 LINE"
);
},
{
closed = 1;
nodes = (
"295 649 LINE",
"432 259 LINE",
"159 259 LINE"
);
}
);
width = 583;
}
);
leftKerningGroup = A;
note = Aogonek;
rightKerningGroup = A;
unicode = 0104;
},
{
glyphname = Aring;
layers = (
{
anchors = (
{
name = bottom;
position = "{292, 0}";
},
{
name = ogonek;
position = "{525, 10}";
},
{
name = top;
position = "{292, 910}";
}
);
layerId = "A03BEFF0-B1C9-4D5E-A067-C5184F278B10";
paths = (
{
closed = 1;
nodes = (
"36 -4 OFFCURVE",
"42 -6 OFFCURVE",
"48 -6 CURVE SMOOTH",
"60 -6 OFFCURVE",
"69 2 OFFCURVE",
"76 23 CURVE SMOOTH",
"148 227 LINE",
"443 227 LINE",
"525 -6 LINE",
"550 -6 OFFCURVE",
"559 7 OFFCURVE",
"550 31 CURVE SMOOTH",
"315 703 LINE",
"310 705 OFFCURVE",
"305 706 OFFCURVE",
"300 706 CURVE SMOOTH",
"284 706 OFFCURVE",
"273 696 OFFCURVE",
"265 671 CURVE SMOOTH",
"30 0 LINE"
);
},
{
closed = 1;
nodes = (
"295 649 LINE",
"432 259 LINE",
"159 259 LINE"
);
},
{
closed = 1;
nodes = (
"204 780 OFFCURVE",
"241 746 OFFCURVE",
"292 746 CURVE SMOOTH",
"342 746 OFFCURVE",
"378 780 OFFCURVE",
"378 828 CURVE SMOOTH",
"378 876 OFFCURVE",
"342 910 OFFCURVE",
"292 910 CURVE SMOOTH",
"241 910 OFFCURVE",
"204 876 OFFCURVE",
"204 828 CURVE SMOOTH"
);
},
{
closed = 1;
nodes = (
"240 859 OFFCURVE",
"262 882 OFFCURVE",
"292 882 CURVE SMOOTH",
"321 882 OFFCURVE",
"342 859 OFFCURVE",
"342 828 CURVE SMOOTH",
"342 797 OFFCURVE",
"321 774 OFFCURVE",
"292 774 CURVE SMOOTH",
"262 774 OFFCURVE",
"240 797 OFFCURVE",
"240 828 CURVE SMOOTH"
);
}
);
width = 583;
}
);
leftKerningGroup = A;
note = Aring;
rightKerningGroup = A;
unicode = 00C5;
},
{
glyphname = Aringacute;
layers = (
{
anchors = (
{
name = bottom;
position = "{292, 0}";
},
{
name = ogonek;
position = "{525, 10}";
},
{
name = top;
position = "{343, 1062}";
}
);
layerId = "A03BEFF0-B1C9-4D5E-A067-C5184F278B10";
paths = (
{
closed = 1;
nodes = (
"36 -4 OFFCURVE",
"42 -6 OFFCURVE",
"48 -6 CURVE SMOOTH",
"60 -6 OFFCURVE",
"69 2 OFFCURVE",
"76 23 CURVE SMOOTH",
"148 227 LINE",
"443 227 LINE",
"525 -6 LINE",
"550 -6 OFFCURVE",
"559 7 OFFCURVE",
"550 31 CURVE SMOOTH",
"315 703 LINE",
"310 705 OFFCURVE",
"305 706 OFFCURVE",
"300 706 CURVE SMOOTH",
"284 706 OFFCURVE",
"273 696 OFFCURVE",
"265 671 CURVE SMOOTH",
"30 0 LINE"
);
},
{
closed = 1;
nodes = (
"295 649 LINE",
"432 259 LINE",
"159 259 LINE"
);
},
{
closed = 1;
nodes = (
"204 780 OFFCURVE",
"241 746 OFFCURVE",
"292 746 CURVE SMOOTH",
"342 746 OFFCURVE",
"378 780 OFFCURVE",
"378 828 CURVE SMOOTH",
"378 876 OFFCURVE",
"342 910 OFFCURVE",
"292 910 CURVE SMOOTH",
"241 910 OFFCURVE",
"204 876 OFFCURVE",
"204 828 CURVE SMOOTH"
);
},
{
closed = 1;
nodes = (
"240 859 OFFCURVE",
"262 882 OFFCURVE",
"292 882 CURVE SMOOTH",
"321 882 OFFCURVE",
"342 859 OFFCURVE",
"342 828 CURVE SMOOTH",
"342 797 OFFCURVE",
"321 774 OFFCURVE",
"292 774 CURVE SMOOTH",
"262 774 OFFCURVE",
"240 797 OFFCURVE",
"240 828 CURVE SMOOTH"
);
},
{
closed = 1;
nodes = (
"272 952 LINE",
"365 1062 LINE",
"321 1062 LINE",
"256 952 LINE"
);
}
);
width = 583;
}
);
leftKerningGroup = A;
note = Aringacute;
rightKerningGroup = A;
unicode = 01FA;
},
{
glyphname = Atilde;
layers = (
{
anchors = (
{
name = bottom;
position = "{292, 0}";
},
{
name = ogonek;
position = "{525, 10}";
},
{
name = top;
position = "{292, 858}";
}
);
layerId = "A03BEFF0-B1C9-4D5E-A067-C5184F278B10";
paths = (
{
closed = 1;
nodes = (
"36 -4 OFFCURVE",
"42 -6 OFFCURVE",
"48 -6 CURVE SMOOTH",
"60 -6 OFFCURVE",
"69 2 OFFCURVE",
"76 23 CURVE SMOOTH",
"148 227 LINE",
"443 227 LINE",
"525 -6 LINE",
"550 -6 OFFCURVE",
"559 7 OFFCURVE",
"550 31 CURVE SMOOTH",
"315 703 LINE",
"310 705 OFFCURVE",
"305 706 OFFCURVE",
"300 706 CURVE SMOOTH",
"284 706 OFFCURVE",
"273 696 OFFCURVE",
"265 671 CURVE SMOOTH",
"30 0 LINE"
);
},
{
closed = 1;
nodes = (
"173 752 LINE",
"179 798 OFFCURVE",
"199 824 OFFCURVE",
"225 824 CURVE SMOOTH",
"267 824 OFFCURVE",
"295 752 OFFCURVE",
"357 752 CURVE SMOOTH",
"403 752 OFFCURVE",
"435 793 OFFCURVE",
"439 858 CURVE",
"411 858 LINE",
"405 812 OFFCURVE",
"383 786 OFFCURVE",
"357 786 CURVE SMOOTH",
"315 786 OFFCURVE",
"287 858 OFFCURVE",
"225 858 CURVE SMOOTH",
"179 858 OFFCURVE",
"150 817 OFFCURVE",
"145 752 CURVE"
);
},
{
closed = 1;
nodes = (
"295 649 LINE",
"432 259 LINE",
"159 259 LINE"
);
}
);
width = 583;
}
);
leftKerningGroup = A;
note = Atilde;
rightKerningGroup = A;
unicode = 00C3;
},
{
glyphname = AE;
layers = (
{
anchors = (
{
name = bottom;
position = "{397, 0}";
},
{
name = top;
position = "{397, 700}";
}
);
layerId = "A03BEFF0-B1C9-4D5E-A067-C5184F278B10";
paths = (
{
closed = 1;
nodes = (
"36 -4 OFFCURVE",
"42 -6 OFFCURVE",
"48 -6 CURVE SMOOTH",
"60 -6 OFFCURVE",
"69 2 OFFCURVE",
"76 23 CURVE SMOOTH",
"148 227 LINE",
"383 227 LINE",
"383 188 LINE SMOOTH",
"383 100 OFFCURVE",
"377 54 OFFCURVE",
"357 13 CURVE",
"363 0 LINE",
"730 0 LINE SMOOTH",
"748 0 OFFCURVE",
"759 7 OFFCURVE",
"759 20 CURVE SMOOTH",
"759 24 OFFCURVE",
"758 28 OFFCURVE",
"756 32 CURVE",
"403 32 LINE",
"419 74 OFFCURVE",
"421 136 OFFCURVE",
"421 188 CURVE SMOOTH",
"421 355 LINE",
"682 355 LINE SMOOTH",
"700 355 OFFCURVE",
"711 361 OFFCURVE",
"711 374 CURVE SMOOTH",
"711 378 OFFCURVE",
"710 382 OFFCURVE",
"708 386 CURVE",
"421 386 LINE",
"421 668 LINE",
"714 668 LINE SMOOTH",
"732 668 OFFCURVE",
"743 675 OFFCURVE",
"743 688 CURVE SMOOTH",
"743 692 OFFCURVE",
"742 696 OFFCURVE",
"740 700 CURVE",
"314 700 LINE SMOOTH",
"289 700 OFFCURVE",
"271 686 OFFCURVE",
"262 662 CURVE SMOOTH",
"30 0 LINE"
);
},
{
closed = 1;
nodes = (
"302 668 LINE",
"383 668 LINE",
"383 259 LINE",
"159 259 LINE"
);
}
);
width = 793;
}
);
leftMetricsKey = A;
note = AE;
rightMetricsKey = E;
unicode = 00C6;
},
{
glyphname = AEacute;
layers = (
{
anchors = (
{
name = bottom;
position = "{397, 0}";
},
{
name = top;
position = "{448, 890}";
}
);
layerId = "A03BEFF0-B1C9-4D5E-A067-C5184F278B10";
paths = (
{
closed = 1;
nodes = (
"36 -4 OFFCURVE",
"42 -6 OFFCURVE",
"48 -6 CURVE SMOOTH",
"60 -6 OFFCURVE",
"69 2 OFFCURVE",
"76 23 CURVE SMOOTH",
"148 227 LINE",
"383 227 LINE",
"383 188 LINE SMOOTH",
"383 100 OFFCURVE",
"377 54 OFFCURVE",
"357 13 CURVE",
"363 0 LINE",
"730 0 LINE SMOOTH",
"748 0 OFFCURVE",
"759 7 OFFCURVE",
"759 20 CURVE SMOOTH",
"759 24 OFFCURVE",
"758 28 OFFCURVE",
"756 32 CURVE",
"403 32 LINE",
"419 74 OFFCURVE",
"421 136 OFFCURVE",
"421 188 CURVE SMOOTH",
"421 355 LINE",
"682 355 LINE SMOOTH",
"700 355 OFFCURVE",
"711 361 OFFCURVE",
"711 374 CURVE SMOOTH",
"711 378 OFFCURVE",
"710 382 OFFCURVE",
"708 386 CURVE",
"421 386 LINE",
"421 668 LINE",
"714 668 LINE SMOOTH",
"732 668 OFFCURVE",
"743 675 OFFCURVE",
"743 688 CURVE SMOOTH",
"743 692 OFFCURVE",
"742 696 OFFCURVE",
"740 700 CURVE",
"314 700 LINE SMOOTH",
"289 700 OFFCURVE",
"271 686 OFFCURVE",
"262 662 CURVE SMOOTH",
"30 0 LINE"
);
},
{
closed = 1;
nodes = (
"302 668 LINE",
"383 668 LINE",
"383 259 LINE",
"159 259 LINE"
);
},
{
closed = 1;
nodes = (
"377 752 LINE",
"470 890 LINE",
"426 890 LINE",
"361 752 LINE"
);
}
);
width = 793;
}
);
leftKerningGroup = A;
note = AEacute;
unicode = 01FC;
},
{
glyphname = B;
lastChange = "2018-03-13 07:04:01 +0000";
layers = (
{
anchors = (
{
name = bottom;
position = "{275, 0}";
},
{
name = top;
position = "{275, 700}";
}
);
layerId = "A03BEFF0-B1C9-4D5E-A067-C5184F278B10";
paths = (
{
closed = 1;
nodes = (
"70 -2 LINE",
"125 -2 OFFCURVE",
"190 -10 OFFCURVE",
"254 -10 CURVE SMOOTH",
"407 -10 OFFCURVE",
"504 68 OFFCURVE",
"504 192 CURVE SMOOTH",
"504 280 OFFCURVE",
"450 346 OFFCURVE",
"365 362 CURVE",
"429 380 OFFCURVE",
"470 440 OFFCURVE",
"470 515 CURVE SMOOTH",
"470 634 OFFCURVE",
"380 710 OFFCURVE",
"239 710 CURVE SMOOTH",
"179 710 OFFCURVE",
"126 704 OFFCURVE",
"70 704 CURVE",
"64 691 LINE",
"84 650 OFFCURVE",
"90 602 OFFCURVE",
"90 514 CURVE SMOOTH",
"90 188 LINE SMOOTH",
"90 100 OFFCURVE",
"84 52 OFFCURVE",
"64 11 CURVE"
);
},
{
closed = 1;
nodes = (
"125 70 OFFCURVE",
"128 134 OFFCURVE",
"128 188 CURVE SMOOTH",
"128 345 LINE",
"301 345 LINE SMOOTH",
"401 345 OFFCURVE",
"465 288 OFFCURVE",
"465 198 CURVE SMOOTH",
"465 90 OFFCURVE",
"387 22 OFFCURVE",
"264 22 CURVE SMOOTH",
"221 22 OFFCURVE",
"147 27 OFFCURVE",
"109 28 CURVE"
);
},
{
closed = 1;
nodes = (
"147 673 OFFCURVE",
"214 678 OFFCURVE",
"255 678 CURVE SMOOTH",
"363 678 OFFCURVE",
"431 614 OFFCURVE",
"431 514 CURVE SMOOTH",
"431 430 OFFCURVE",
"379 376 OFFCURVE",
"296 376 CURVE SMOOTH",
"128 376 LINE",
"128 514 LINE SMOOTH",
"128 568 OFFCURVE",
"125 630 OFFCURVE",
"109 672 CURVE"
);
}
);
width = 550;
}
);
leftKerningGroup = E;
leftMetricsKey = E;
note = B;
rightKerningGroup = B;
unicode = 0042;
},
{
glyphname = C;
layers = (
{
anchors = (
{
name = bottom;
position = "{353, 0}";
},
{
name = top;
position = "{361, 700}";
}
);
layerId = "A03BEFF0-B1C9-4D5E-A067-C5184F278B10";
paths = (
{
closed = 1;
nodes = (
"50 130 OFFCURVE",
"174 -10 OFFCURVE",
"368 -10 CURVE SMOOTH",
"489 -10 OFFCURVE",
"575 62 OFFCURVE",
"575 82 CURVE SMOOTH",
"575 94 OFFCURVE",
"568 100 OFFCURVE",
"555 100 CURVE",
"508 50 OFFCURVE",
"441 21 OFFCURVE",
"360 21 CURVE SMOOTH",
"194 21 OFFCURVE",
"89 149 OFFCURVE",
"89 350 CURVE SMOOTH",
"89 551 OFFCURVE",
"194 679 OFFCURVE",
"360 679 CURVE SMOOTH",
"441 679 OFFCURVE",
"508 650 OFFCURVE",
"555 600 CURVE",
"568 600 OFFCURVE",
"575 606 OFFCURVE",
"575 618 CURVE SMOOTH",
"575 638 OFFCURVE",
"489 710 OFFCURVE",
"368 710 CURVE SMOOTH",
"174 710 OFFCURVE",
"50 570 OFFCURVE",
"50 350 CURVE SMOOTH"
);
}
);
width = 625;
}
);
leftKerningGroup = O;
leftMetricsKey = O;
note = C;
rightKerningGroup = C;
unicode = 0043;
},
{
glyphname = Cacute;
layers = (
{
anchors = (
{
name = bottom;
position = "{353, 0}";
},
{
name = top;
position = "{412, 890}";
}
);
layerId = "A03BEFF0-B1C9-4D5E-A067-C5184F278B10";
paths = (
{
closed = 1;
nodes = (
"50 130 OFFCURVE",
"174 -10 OFFCURVE",
"368 -10 CURVE SMOOTH",
"489 -10 OFFCURVE",
"575 62 OFFCURVE",
"575 82 CURVE SMOOTH",
"575 94 OFFCURVE",
"568 100 OFFCURVE",
"555 100 CURVE",
"508 50 OFFCURVE",
"441 21 OFFCURVE",
"360 21 CURVE SMOOTH",
"194 21 OFFCURVE",
"89 149 OFFCURVE",
"89 350 CURVE SMOOTH",
"89 551 OFFCURVE",
"194 679 OFFCURVE",
"360 679 CURVE SMOOTH",
"441 679 OFFCURVE",
"508 650 OFFCURVE",
"555 600 CURVE",
"568 600 OFFCURVE",
"575 606 OFFCURVE",
"575 618 CURVE SMOOTH",
"575 638 OFFCURVE",
"489 710 OFFCURVE",
"368 710 CURVE SMOOTH",
"174 710 OFFCURVE",
"50 570 OFFCURVE",
"50 350 CURVE SMOOTH"
);
},
{
closed = 1;
nodes = (
"341 752 LINE",
"434 890 LINE",
"390 890 LINE",
"325 752 LINE"
);
}
);
width = 625;
}
);
leftKerningGroup = C;
note = Cacute;
unicode = 0106;
},
{
glyphname = Ccaron;
layers = (
{
anchors = (
{
name = bottom;
position = "{353, 0}";
},
{
name = top;
position = "{361, 890}";
}
);
layerId = "A03BEFF0-B1C9-4D5E-A067-C5184F278B10";
paths = (
{
closed = 1;
nodes = (
"50 130 OFFCURVE",
"174 -10 OFFCURVE",
"368 -10 CURVE SMOOTH",
"489 -10 OFFCURVE",
"575 62 OFFCURVE",
"575 82 CURVE SMOOTH",
"575 94 OFFCURVE",
"568 100 OFFCURVE",
"555 100 CURVE",
"508 50 OFFCURVE",
"441 21 OFFCURVE",
"360 21 CURVE SMOOTH",
"194 21 OFFCURVE",
"89 149 OFFCURVE",
"89 350 CURVE SMOOTH",
"89 551 OFFCURVE",
"194 679 OFFCURVE",
"360 679 CURVE SMOOTH",
"441 679 OFFCURVE",
"508 650 OFFCURVE",
"555 600 CURVE",
"568 600 OFFCURVE",
"575 606 OFFCURVE",
"575 618 CURVE SMOOTH",
"575 638 OFFCURVE",
"489 710 OFFCURVE",
"368 710 CURVE SMOOTH",
"174 710 OFFCURVE",
"50 570 OFFCURVE",
"50 350 CURVE SMOOTH"
);
},
{
closed = 1;
nodes = (
"337 752 LINE",
"385 752 LINE",
"491 890 LINE",
"475 890 LINE",
"361 792 LINE",
"247 890 LINE",
"231 890 LINE"
);
}
);
width = 625;
}
);
leftKerningGroup = C;
note = Ccaron;
unicode = 010C;
},
{
glyphname = Ccedilla;
lastChange = "2018-03-13 07:04:01 +0000";
layers = (
{
anchors = (
{
name = bottom;
position = "{326, -175}";
},
{
name = top;
position = "{361, 700}";
}
);
layerId = "A03BEFF0-B1C9-4D5E-A067-C5184F278B10";
paths = (
{
closed = 1;
nodes = (
"50 146 OFFCURVE",
"156 11 OFFCURVE",
"326 -8 CURVE",
"276 -84 LINE",
"282 -92 LINE",
"294 -88 OFFCURVE",
"306 -86 OFFCURVE",
"320 -86 CURVE SMOOTH",
"353 -86 OFFCURVE",
"371 -97 OFFCURVE",
"371 -116 CURVE SMOOTH",
"371 -135 OFFCURVE",
"353 -145 OFFCURVE",
"320 -145 CURVE SMOOTH",
"297 -145 OFFCURVE",
"276 -140 OFFCURVE",
"255 -131 CURVE",
"255 -159 LINE",
"278 -170 OFFCURVE",
"301 -175 OFFCURVE",
"326 -175 CURVE SMOOTH",
"380 -175 OFFCURVE",
"409 -152 OFFCURVE",
"409 -116 CURVE SMOOTH",
"409 -78 OFFCURVE",
"377 -56 OFFCURVE",
"326 -56 CURVE",
"356 -10 LINE",
"368 -10 LINE SMOOTH",
"489 -10 OFFCURVE",
"575 62 OFFCURVE",
"575 82 CURVE SMOOTH",
"575 94 OFFCURVE",
"568 100 OFFCURVE",
"555 100 CURVE",
"508 50 OFFCURVE",
"441 21 OFFCURVE",
"360 21 CURVE SMOOTH",
"194 21 OFFCURVE",
"89 149 OFFCURVE",
"89 350 CURVE SMOOTH",
"89 551 OFFCURVE",
"194 679 OFFCURVE",
"360 679 CURVE SMOOTH",
"441 679 OFFCURVE",
"508 650 OFFCURVE",
"555 600 CURVE",
"568 600 OFFCURVE",
"575 606 OFFCURVE",
"575 618 CURVE SMOOTH",
"575 638 OFFCURVE",
"489 710 OFFCURVE",
"368 710 CURVE SMOOTH",
"174 710 OFFCURVE",
"50 570 OFFCURVE",
"50 350 CURVE SMOOTH"
);
}
);
width = 625;
}
);
leftKerningGroup = C;
note = Ccedilla;
unicode = 00C7;
},
{
glyphname = Ccircumflex;
layers = (
{
anchors = (
{
name = bottom;
position = "{353, 0}";
},
{
name = top;
position = "{361, 890}";
}
);
layerId = "A03BEFF0-B1C9-4D5E-A067-C5184F278B10";
paths = (
{
closed = 1;
nodes = (
"50 130 OFFCURVE",
"174 -10 OFFCURVE",
"368 -10 CURVE SMOOTH",
"489 -10 OFFCURVE",
"575 62 OFFCURVE",
"575 82 CURVE SMOOTH",
"575 94 OFFCURVE",
"568 100 OFFCURVE",
"555 100 CURVE",
"508 50 OFFCURVE",
"441 21 OFFCURVE",
"360 21 CURVE SMOOTH",
"194 21 OFFCURVE",
"89 149 OFFCURVE",
"89 350 CURVE SMOOTH",
"89 551 OFFCURVE",
"194 679 OFFCURVE",
"360 679 CURVE SMOOTH",
"441 679 OFFCURVE",
"508 650 OFFCURVE",
"555 600 CURVE",
"568 600 OFFCURVE",
"575 606 OFFCURVE",
"575 618 CURVE SMOOTH",
"575 638 OFFCURVE",
"489 710 OFFCURVE",
"368 710 CURVE SMOOTH",
"174 710 OFFCURVE",
"50 570 OFFCURVE",
"50 350 CURVE SMOOTH"
);
},
{
closed = 1;
nodes = (
"247 752 LINE",
"361 850 LINE",
"475 752 LINE",
"491 752 LINE",
"385 890 LINE",
"337 890 LINE",
"231 752 LINE"
);
}
);
width = 625;
}
);
leftKerningGroup = C;
note = Ccircumflex;
unicode = 0108;
},
{
glyphname = Cdotaccent;
layers = (
{
anchors = (
{
name = bottom;
position = "{353, 0}";
},
{
name = top;
position = "{362, 843}";
}
);
layerId = "A03BEFF0-B1C9-4D5E-A067-C5184F278B10";
paths = (
{
closed = 1;
nodes = (
"50 130 OFFCURVE",
"174 -10 OFFCURVE",
"368 -10 CURVE SMOOTH",
"489 -10 OFFCURVE",
"575 62 OFFCURVE",
"575 82 CURVE SMOOTH",
"575 94 OFFCURVE",
"568 100 OFFCURVE",
"555 100 CURVE",
"508 50 OFFCURVE",
"441 21 OFFCURVE",
"360 21 CURVE SMOOTH",
"194 21 OFFCURVE",
"89 149 OFFCURVE",
"89 350 CURVE SMOOTH",
"89 551 OFFCURVE",
"194 679 OFFCURVE",
"360 679 CURVE SMOOTH",
"441 679 OFFCURVE",
"508 650 OFFCURVE",
"555 600 CURVE",
"568 600 OFFCURVE",
"575 606 OFFCURVE",
"575 618 CURVE SMOOTH",
"575 638 OFFCURVE",
"489 710 OFFCURVE",
"368 710 CURVE SMOOTH",
"174 710 OFFCURVE",
"50 570 OFFCURVE",
"50 350 CURVE SMOOTH"
);
},
{
closed = 1;
nodes = (
"320 773 OFFCURVE",
"338 755 OFFCURVE",
"362 755 CURVE SMOOTH",
"386 755 OFFCURVE",
"404 773 OFFCURVE",
"404 797 CURVE SMOOTH",
"404 821 OFFCURVE",
"386 839 OFFCURVE",
"362 839 CURVE SMOOTH",
"338 839 OFFCURVE",
"320 821 OFFCURVE",
"320 797 CURVE SMOOTH"
);
}
);
width = 625;
}
);
leftKerningGroup = C;
note = Cdotaccent;
unicode = 010A;
},
{
glyphname = D;
lastChange = "2018-03-13 07:04:01 +0000";
layers = (
{
anchors = (
{
name = bottom;
position = "{310, 0}";
},
{
name = center;
position = "{310, 350}";
},
{
name = top;
position = "{310, 700}";
}
);
layerId = "A03BEFF0-B1C9-4D5E-A067-C5184F278B10";
paths = (
{
closed = 1;
nodes = (
"70 -2 LINE",
"122 -2 OFFCURVE",
"186 -10 OFFCURVE",
"243 -10 CURVE SMOOTH",
"443 -10 OFFCURVE",
"570 130 OFFCURVE",
"570 351 CURVE SMOOTH",
"570 571 OFFCURVE",
"443 710 OFFCURVE",
"243 710 CURVE SMOOTH",
"186 710 OFFCURVE",
"122 704 OFFCURVE",
"70 704 CURVE",
"64 691 LINE",
"84 650 OFFCURVE",
"90 602 OFFCURVE",
"90 514 CURVE SMOOTH",
"90 188 LINE SMOOTH",
"90 100 OFFCURVE",
"84 52 OFFCURVE",
"64 11 CURVE"
);
},
{
closed = 1;
nodes = (
"125 70 OFFCURVE",
"128 134 OFFCURVE",
"128 188 CURVE SMOOTH",
"128 514 LINE SMOOTH",
"128 568 OFFCURVE",
"125 630 OFFCURVE",
"109 672 CURVE",
"146 673 OFFCURVE",
"204 678 OFFCURVE",
"245 678 CURVE SMOOTH",
"420 678 OFFCURVE",
"531 551 OFFCURVE",
"531 351 CURVE SMOOTH",
"531 150 OFFCURVE",
"420 22 OFFCURVE",
"245 22 CURVE SMOOTH",
"204 22 OFFCURVE",
"146 27 OFFCURVE",
"109 28 CURVE"
);
}
);
width = 620;
}
);
leftKerningGroup = E;
leftMetricsKey = E;
note = D;
rightKerningGroup = O;
rightMetricsKey = O;
unicode = 0044;
},
{
glyphname = Eth;
lastChange = "2018-03-13 07:04:01 +0000";
layers = (
{
anchors = (
{
name = bottom;
position = "{310, 0}";
},
{
name = center;
position = "{310, 350}";
},
{
name = top;
position = "{310, 700}";
}
);
layerId = "A03BEFF0-B1C9-4D5E-A067-C5184F278B10";
paths = (
{
closed = 1;
nodes = (
"90 334 LINE",
"90 188 LINE SMOOTH",
"90 100 OFFCURVE",
"84 52 OFFCURVE",
"64 11 CURVE",
"70 -2 LINE",
"122 -2 OFFCURVE",
"186 -10 OFFCURVE",
"243 -10 CURVE SMOOTH",
"443 -10 OFFCURVE",
"570 130 OFFCURVE",
"570 351 CURVE SMOOTH",
"570 571 OFFCURVE",
"443 710 OFFCURVE",
"243 710 CURVE SMOOTH",
"186 710 OFFCURVE",
"122 704 OFFCURVE",
"70 704 CURVE",
"64 691 LINE",
"84 650 OFFCURVE",
"90 602 OFFCURVE",
"90 514 CURVE SMOOTH",
"90 366 LINE",
"0 366 LINE",
"0 334 LINE"
);
},
{
closed = 1;
nodes = (
"125 70 OFFCURVE",
"128 134 OFFCURVE",
"128 188 CURVE SMOOTH",
"128 334 LINE",
"350 334 LINE",
"350 366 LINE",
"128 366 LINE",
"128 514 LINE SMOOTH",
"128 568 OFFCURVE",
"125 630 OFFCURVE",
"109 672 CURVE",
"146 673 OFFCURVE",
"204 678 OFFCURVE",
"245 678 CURVE SMOOTH",
"420 678 OFFCURVE",
"531 551 OFFCURVE",
"531 351 CURVE SMOOTH",
"531 150 OFFCURVE",
"420 22 OFFCURVE",
"245 22 CURVE SMOOTH",
"204 22 OFFCURVE",
"146 27 OFFCURVE",
"109 28 CURVE"
);
}
);
width = 620;
}
);
note = Eth;
rightMetricsKey = D;
unicode = 00D0;
},
{
glyphname = Dcaron;
lastChange = "2018-03-13 07:04:01 +0000";
layers = (
{
anchors = (
{
name = bottom;
position = "{310, 0}";
},
{
name = center;
position = "{310, 350}";
},
{
name = top;
position = "{310, 890}";
}
);
layerId = "A03BEFF0-B1C9-4D5E-A067-C5184F278B10";
paths = (
{
closed = 1;
nodes = (
"70 -2 LINE",
"122 -2 OFFCURVE",
"186 -10 OFFCURVE",
"243 -10 CURVE SMOOTH",
"443 -10 OFFCURVE",
"570 130 OFFCURVE",
"570 351 CURVE SMOOTH",
"570 571 OFFCURVE",
"443 710 OFFCURVE",
"243 710 CURVE SMOOTH",
"186 710 OFFCURVE",
"122 704 OFFCURVE",
"70 704 CURVE",
"64 691 LINE",
"84 650 OFFCURVE",
"90 602 OFFCURVE",
"90 514 CURVE SMOOTH",
"90 188 LINE SMOOTH",
"90 100 OFFCURVE",
"84 52 OFFCURVE",
"64 11 CURVE"
);
},
{
closed = 1;
nodes = (
"125 70 OFFCURVE",
"128 134 OFFCURVE",
"128 188 CURVE SMOOTH",
"128 514 LINE SMOOTH",
"128 568 OFFCURVE",
"125 630 OFFCURVE",
"109 672 CURVE",
"146 673 OFFCURVE",
"204 678 OFFCURVE",
"245 678 CURVE SMOOTH",
"420 678 OFFCURVE",
"531 551 OFFCURVE",
"531 351 CURVE SMOOTH",
"531 150 OFFCURVE",
"420 22 OFFCURVE",
"245 22 CURVE SMOOTH",
"204 22 OFFCURVE",
"146 27 OFFCURVE",
"109 28 CURVE"
);
},
{
closed = 1;
nodes = (
"286 752 LINE",
"334 752 LINE",
"440 890 LINE",
"424 890 LINE",
"310 792 LINE",
"196 890 LINE",
"180 890 LINE"
);
}
);
width = 620;
}
);
note = Dcaron;
rightKerningGroup = D;
unicode = 010E;
},
{
glyphname = Dcroat;
lastChange = "2018-03-13 07:04:01 +0000";
layers = (
{
anchors = (
{
name = bottom;
position = "{310, 0}";
},
{
name = center;
position = "{310, 350}";
},
{
name = top;
position = "{310, 700}";
}
);
layerId = "A03BEFF0-B1C9-4D5E-A067-C5184F278B10";
paths = (
{
closed = 1;
nodes = (
"90 334 LINE",
"90 188 LINE SMOOTH",
"90 100 OFFCURVE",
"84 52 OFFCURVE",
"64 11 CURVE",
"70 -2 LINE",
"122 -2 OFFCURVE",
"186 -10 OFFCURVE",
"243 -10 CURVE SMOOTH",
"443 -10 OFFCURVE",
"570 130 OFFCURVE",
"570 351 CURVE SMOOTH",
"570 571 OFFCURVE",
"443 710 OFFCURVE",
"243 710 CURVE SMOOTH",
"186 710 OFFCURVE",
"122 704 OFFCURVE",
"70 704 CURVE",
"64 691 LINE",
"84 650 OFFCURVE",
"90 602 OFFCURVE",
"90 514 CURVE SMOOTH",
"90 366 LINE",
"0 366 LINE",
"0 334 LINE"
);
},
{
closed = 1;
nodes = (
"125 70 OFFCURVE",
"128 134 OFFCURVE",
"128 188 CURVE SMOOTH",
"128 334 LINE",
"350 334 LINE",
"350 366 LINE",
"128 366 LINE",
"128 514 LINE SMOOTH",
"128 568 OFFCURVE",
"125 630 OFFCURVE",
"109 672 CURVE",
"146 673 OFFCURVE",
"204 678 OFFCURVE",
"245 678 CURVE SMOOTH",
"420 678 OFFCURVE",
"531 551 OFFCURVE",
"531 351 CURVE SMOOTH",
"531 150 OFFCURVE",
"420 22 OFFCURVE",
"245 22 CURVE SMOOTH",
"204 22 OFFCURVE",
"146 27 OFFCURVE",
"109 28 CURVE"
);
}
);
width = 620;
}
);
note = Dcroat;
unicode = 0110;
},
{
glyphname = Ddotbelow;
lastChange = "2018-03-13 07:04:01 +0000";
layers = (
{
anchors = (
{
name = bottom;
position = "{310, -140}";
},
{
name = center;
position = "{310, 350}";
},
{
name = top;
position = "{310, 700}";
}
);
layerId = "A03BEFF0-B1C9-4D5E-A067-C5184F278B10";
paths = (
{
closed = 1;
nodes = (
"70 -2 LINE",
"122 -2 OFFCURVE",
"186 -10 OFFCURVE",
"243 -10 CURVE SMOOTH",
"443 -10 OFFCURVE",
"570 130 OFFCURVE",
"570 351 CURVE SMOOTH",
"570 571 OFFCURVE",
"443 710 OFFCURVE",
"243 710 CURVE SMOOTH",
"186 710 OFFCURVE",
"122 704 OFFCURVE",
"70 704 CURVE",
"64 691 LINE",
"84 650 OFFCURVE",
"90 602 OFFCURVE",
"90 514 CURVE SMOOTH",
"90 188 LINE SMOOTH",
"90 100 OFFCURVE",
"84 52 OFFCURVE",
"64 11 CURVE"
);
},
{
closed = 1;
nodes = (
"125 70 OFFCURVE",
"128 134 OFFCURVE",
"128 188 CURVE SMOOTH",
"128 514 LINE SMOOTH",
"128 568 OFFCURVE",
"125 630 OFFCURVE",
"109 672 CURVE",
"146 673 OFFCURVE",
"204 678 OFFCURVE",
"245 678 CURVE SMOOTH",
"420 678 OFFCURVE",
"531 551 OFFCURVE",
"531 351 CURVE SMOOTH",
"531 150 OFFCURVE",
"420 22 OFFCURVE",
"245 22 CURVE SMOOTH",
"204 22 OFFCURVE",
"146 27 OFFCURVE",
"109 28 CURVE"
);
},
{
closed = 1;
nodes = (
"268 -117 OFFCURVE",
"286 -135 OFFCURVE",
"310 -135 CURVE SMOOTH",
"334 -135 OFFCURVE",
"352 -117 OFFCURVE",
"352 -93 CURVE SMOOTH",
"352 -69 OFFCURVE",
"334 -51 OFFCURVE",
"310 -51 CURVE SMOOTH",
"286 -51 OFFCURVE",
"268 -69 OFFCURVE",
"268 -93 CURVE SMOOTH"
);
}
);
width = 620;
}
);
note = Ddotbelow;
rightKerningGroup = D;
unicode = 1E0C;
},
{
glyphname = Dlinebelow;
lastChange = "2018-03-13 07:04:01 +0000";
layers = (
{
anchors = (
{
name = bottom;
position = "{310, -102}";
},
{
name = center;
position = "{310, 350}";
},
{
name = top;
position = "{310, 700}";
}
);
layerId = "A03BEFF0-B1C9-4D5E-A067-C5184F278B10";
paths = (
{
closed = 1;
nodes = (
"70 -2 LINE",
"122 -2 OFFCURVE",
"186 -10 OFFCURVE",
"243 -10 CURVE SMOOTH",
"443 -10 OFFCURVE",
"570 130 OFFCURVE",
"570 351 CURVE SMOOTH",
"570 571 OFFCURVE",
"443 710 OFFCURVE",
"243 710 CURVE SMOOTH",
"186 710 OFFCURVE",
"122 704 OFFCURVE",
"70 704 CURVE",
"64 691 LINE",
"84 650 OFFCURVE",
"90 602 OFFCURVE",
"90 514 CURVE SMOOTH",
"90 188 LINE SMOOTH",
"90 100 OFFCURVE",
"84 52 OFFCURVE",
"64 11 CURVE"
);
},
{
closed = 1;
nodes = (
"125 70 OFFCURVE",
"128 134 OFFCURVE",
"128 188 CURVE SMOOTH",
"128 514 LINE SMOOTH",
"128 568 OFFCURVE",
"125 630 OFFCURVE",
"109 672 CURVE",
"146 673 OFFCURVE",
"204 678 OFFCURVE",
"245 678 CURVE SMOOTH",
"420 678 OFFCURVE",
"531 551 OFFCURVE",
"531 351 CURVE SMOOTH",
"531 150 OFFCURVE",
"420 22 OFFCURVE",
"245 22 CURVE SMOOTH",
"204 22 OFFCURVE",
"146 27 OFFCURVE",
"109 28 CURVE"
);
},
{
closed = 1;
nodes = (
"462 -102 LINE",
"462 -72 LINE",
"158 -72 LINE",
"158 -102 LINE"
);
}
);
width = 620;
}
);
note = Dlinebelow;
rightKerningGroup = D;
unicode = 1E0E;
},
{
glyphname = E;
lastChange = "2018-03-13 07:04:01 +0000";
layers = (
{
anchors = (
{
name = bottom;
position = "{270, 0}";
},
{
name = ogonek;
position = "{440, 10}";
},
{
name = top;
position = "{250, 700}";
},
{
name = topleft;
position = "{20, 700}";
}
);
layerId = "A03BEFF0-B1C9-4D5E-A067-C5184F278B10";
paths = (
{
closed = 1;
nodes = (
"70 0 LINE",
"437 0 LINE SMOOTH",
"455 0 OFFCURVE",
"466 7 OFFCURVE",
"466 20 CURVE SMOOTH",
"466 24 OFFCURVE",
"465 28 OFFCURVE",
"463 32 CURVE",
"110 32 LINE",
"126 74 OFFCURVE",
"128 136 OFFCURVE",
"128 188 CURVE SMOOTH",
"128 355 LINE",
"389 355 LINE SMOOTH",
"407 355 OFFCURVE",
"418 361 OFFCURVE",
"418 374 CURVE SMOOTH",
"418 378 OFFCURVE",
"417 382 OFFCURVE",
"415 386 CURVE",
"128 386 LINE",
"128 514 LINE SMOOTH",
"128 566 OFFCURVE",
"126 626 OFFCURVE",
"110 668 CURVE",
"421 668 LINE SMOOTH",
"439 668 OFFCURVE",
"450 675 OFFCURVE",
"450 688 CURVE SMOOTH",
"450 692 OFFCURVE",
"449 696 OFFCURVE",
"447 700 CURVE",
"70 700 LINE",
"64 687 LINE",
"84 646 OFFCURVE",
"90 602 OFFCURVE",
"90 514 CURVE SMOOTH",
"90 188 LINE SMOOTH",
"90 100 OFFCURVE",
"84 54 OFFCURVE",
"64 13 CURVE"
);
}
);
width = 500;
}
);
leftKerningGroup = E;
note = E;
rightKerningGroup = E;
unicode = 0045;
},
{
glyphname = Eacute;
lastChange = "2018-03-13 07:04:01 +0000";
layers = (
{
anchors = (
{
name = bottom;
position = "{270, 0}";
},
{
name = ogonek;
position = "{440, 10}";
},
{
name = top;
position = "{301, 890}";
},
{
name = topleft;
position = "{20, 700}";
}
);
layerId = "A03BEFF0-B1C9-4D5E-A067-C5184F278B10";
paths = (
{
closed = 1;
nodes = (
"70 0 LINE",
"437 0 LINE SMOOTH",
"455 0 OFFCURVE",
"466 7 OFFCURVE",
"466 20 CURVE SMOOTH",
"466 24 OFFCURVE",
"465 28 OFFCURVE",
"463 32 CURVE",
"110 32 LINE",
"126 74 OFFCURVE",
"128 136 OFFCURVE",
"128 188 CURVE SMOOTH",
"128 355 LINE",
"389 355 LINE SMOOTH",
"407 355 OFFCURVE",
"418 361 OFFCURVE",
"418 374 CURVE SMOOTH",
"418 378 OFFCURVE",
"417 382 OFFCURVE",
"415 386 CURVE",
"128 386 LINE",
"128 514 LINE SMOOTH",
"128 566 OFFCURVE",
"126 626 OFFCURVE",
"110 668 CURVE",
"421 668 LINE SMOOTH",
"439 668 OFFCURVE",
"450 675 OFFCURVE",
"450 688 CURVE SMOOTH",
"450 692 OFFCURVE",
"449 696 OFFCURVE",
"447 700 CURVE",
"70 700 LINE",
"64 687 LINE",
"84 646 OFFCURVE",
"90 602 OFFCURVE",
"90 514 CURVE SMOOTH",
"90 188 LINE SMOOTH",
"90 100 OFFCURVE",
"84 54 OFFCURVE",
"64 13 CURVE"
);
},
{
closed = 1;
nodes = (
"230 752 LINE",
"323 890 LINE",
"279 890 LINE",
"214 752 LINE"
);
}
);
width = 500;
}
);
note = Eacute;
unicode = 00C9;
},
{
glyphname = Ebreve;
lastChange = "2018-03-13 07:04:01 +0000";
layers = (
{
anchors = (
{
name = bottom;
position = "{270, 0}";
},
{
name = ogonek;
position = "{440, 10}";
},
{
name = top;
position = "{250, 870}";
},
{
name = topleft;
position = "{20, 700}";
}
);
layerId = "A03BEFF0-B1C9-4D5E-A067-C5184F278B10";
paths = (
{
closed = 1;
nodes = (
"70 0 LINE",
"437 0 LINE SMOOTH",
"455 0 OFFCURVE",
"466 7 OFFCURVE",
"466 20 CURVE SMOOTH",
"466 24 OFFCURVE",
"465 28 OFFCURVE",
"463 32 CURVE",
"110 32 LINE",
"126 74 OFFCURVE",
"128 136 OFFCURVE",
"128 188 CURVE SMOOTH",
"128 355 LINE",
"389 355 LINE SMOOTH",
"407 355 OFFCURVE",
"418 361 OFFCURVE",
"418 374 CURVE SMOOTH",
"418 378 OFFCURVE",
"417 382 OFFCURVE",
"415 386 CURVE",
"128 386 LINE",
"128 514 LINE SMOOTH",
"128 566 OFFCURVE",
"126 626 OFFCURVE",
"110 668 CURVE",
"421 668 LINE SMOOTH",
"439 668 OFFCURVE",
"450 675 OFFCURVE",
"450 688 CURVE SMOOTH",
"450 692 OFFCURVE",
"449 696 OFFCURVE",
"447 700 CURVE",
"70 700 LINE",
"64 687 LINE",
"84 646 OFFCURVE",
"90 602 OFFCURVE",
"90 514 CURVE SMOOTH",
"90 188 LINE SMOOTH",
"90 100 OFFCURVE",
"84 54 OFFCURVE",
"64 13 CURVE"
);
},
{
closed = 1;
nodes = (
"123 794 OFFCURVE",
"174 746 OFFCURVE",
"250 746 CURVE SMOOTH",
"326 746 OFFCURVE",
"377 794 OFFCURVE",
"380 870 CURVE",
"356 870 LINE",
"351 817 OFFCURVE",
"310 784 OFFCURVE",
"250 784 CURVE SMOOTH",
"190 784 OFFCURVE",
"149 817 OFFCURVE",
"144 870 CURVE",
"120 870 LINE"
);
}
);
width = 500;
}
);
note = Ebreve;
unicode = 0114;
},
{
glyphname = Ecaron;
lastChange = "2018-03-13 07:04:01 +0000";
layers = (
{
anchors = (
{
name = bottom;
position = "{270, 0}";
},
{
name = ogonek;
position = "{440, 10}";
},
{
name = top;
position = "{250, 890}";
},
{
name = topleft;
position = "{20, 700}";
}
);
layerId = "A03BEFF0-B1C9-4D5E-A067-C5184F278B10";
paths = (
{
closed = 1;
nodes = (
"70 0 LINE",
"437 0 LINE SMOOTH",
"455 0 OFFCURVE",
"466 7 OFFCURVE",
"466 20 CURVE SMOOTH",
"466 24 OFFCURVE",
"465 28 OFFCURVE",
"463 32 CURVE",
"110 32 LINE",
"126 74 OFFCURVE",
"128 136 OFFCURVE",
"128 188 CURVE SMOOTH",
"128 355 LINE",
"389 355 LINE SMOOTH",
"407 355 OFFCURVE",
"418 361 OFFCURVE",
"418 374 CURVE SMOOTH",
"418 378 OFFCURVE",
"417 382 OFFCURVE",
"415 386 CURVE",
"128 386 LINE",
"128 514 LINE SMOOTH",
"128 566 OFFCURVE",
"126 626 OFFCURVE",
"110 668 CURVE",
"421 668 LINE SMOOTH",
"439 668 OFFCURVE",
"450 675 OFFCURVE",
"450 688 CURVE SMOOTH",
"450 692 OFFCURVE",
"449 696 OFFCURVE",
"447 700 CURVE",
"70 700 LINE",
"64 687 LINE",
"84 646 OFFCURVE",
"90 602 OFFCURVE",
"90 514 CURVE SMOOTH",
"90 188 LINE SMOOTH",
"90 100 OFFCURVE",
"84 54 OFFCURVE",
"64 13 CURVE"
);
},
{
closed = 1;
nodes = (
"226 752 LINE",
"274 752 LINE",
"380 890 LINE",
"364 890 LINE",
"250 792 LINE",
"136 890 LINE",
"120 890 LINE"
);
}
);
width = 500;
}
);
note = Ecaron;
unicode = 011A;
},
{
glyphname = Ecircumflex;
lastChange = "2018-03-13 07:04:01 +0000";
layers = (
{
anchors = (
{
name = bottom;
position = "{270, 0}";
},
{
name = ogonek;
position = "{440, 10}";
},
{
name = top;
position = "{250, 890}";
},
{
name = topleft;
position = "{20, 700}";
}
);
layerId = "A03BEFF0-B1C9-4D5E-A067-C5184F278B10";
paths = (
{
closed = 1;
nodes = (
"70 0 LINE",
"437 0 LINE SMOOTH",
"455 0 OFFCURVE",
"466 7 OFFCURVE",
"466 20 CURVE SMOOTH",
"466 24 OFFCURVE",
"465 28 OFFCURVE",
"463 32 CURVE",
"110 32 LINE",
"126 74 OFFCURVE",
"128 136 OFFCURVE",
"128 188 CURVE SMOOTH",
"128 355 LINE",
"389 355 LINE SMOOTH",
"407 355 OFFCURVE",
"418 361 OFFCURVE",
"418 374 CURVE SMOOTH",
"418 378 OFFCURVE",
"417 382 OFFCURVE",
"415 386 CURVE",
"128 386 LINE",
"128 514 LINE SMOOTH",
"128 566 OFFCURVE",
"126 626 OFFCURVE",
"110 668 CURVE",
"421 668 LINE SMOOTH",
"439 668 OFFCURVE",
"450 675 OFFCURVE",
"450 688 CURVE SMOOTH",
"450 692 OFFCURVE",
"449 696 OFFCURVE",
"447 700 CURVE",
"70 700 LINE",
"64 687 LINE",
"84 646 OFFCURVE",
"90 602 OFFCURVE",
"90 514 CURVE SMOOTH",
"90 188 LINE SMOOTH",
"90 100 OFFCURVE",
"84 54 OFFCURVE",
"64 13 CURVE"
);
},
{
closed = 1;
nodes = (
"136 752 LINE",
"250 850 LINE",
"364 752 LINE",
"380 752 LINE",
"274 890 LINE",
"226 890 LINE",
"120 752 LINE"
);
}
);
width = 500;
}
);
note = Ecircumflex;
unicode = 00CA;
},
{
glyphname = Ecircumflexacute;
lastChange = "2018-03-13 07:04:01 +0000";
layers = (
{
anchors = (
{
name = bottom;
position = "{270, 0}";
},
{
name = ogonek;
position = "{440, 10}";
},
{
name = top;
position = "{250, 954}";
},
{
name = topleft;
position = "{20, 700}";
}
);
layerId = "A03BEFF0-B1C9-4D5E-A067-C5184F278B10";
paths = (
{
closed = 1;
nodes = (
"70 0 LINE",
"437 0 LINE SMOOTH",
"455 0 OFFCURVE",
"466 7 OFFCURVE",
"466 20 CURVE SMOOTH",
"466 24 OFFCURVE",
"465 28 OFFCURVE",
"463 32 CURVE",
"110 32 LINE",
"126 74 OFFCURVE",
"128 136 OFFCURVE",
"128 188 CURVE SMOOTH",
"128 355 LINE",
"389 355 LINE SMOOTH",
"407 355 OFFCURVE",
"418 361 OFFCURVE",
"418 374 CURVE SMOOTH",
"418 378 OFFCURVE",
"417 382 OFFCURVE",
"415 386 CURVE",
"128 386 LINE",
"128 514 LINE SMOOTH",
"128 566 OFFCURVE",
"126 626 OFFCURVE",
"110 668 CURVE",
"421 668 LINE SMOOTH",
"439 668 OFFCURVE",
"450 675 OFFCURVE",
"450 688 CURVE SMOOTH",
"450 692 OFFCURVE",
"449 696 OFFCURVE",
"447 700 CURVE",
"70 700 LINE",
"64 687 LINE",
"84 646 OFFCURVE",
"90 602 OFFCURVE",
"90 514 CURVE SMOOTH",
"90 188 LINE SMOOTH",
"90 100 OFFCURVE",
"84 54 OFFCURVE",
"64 13 CURVE"
);
},
{
closed = 1;
nodes = (
"136 752 LINE",
"250 850 LINE",
"364 752 LINE",
"380 752 LINE",
"274 890 LINE",
"226 890 LINE",
"120 752 LINE"
);
},
{
closed = 1;
nodes = (
"365 839 LINE",
"458 949 LINE",
"414 949 LINE",
"349 839 LINE"
);
}
);
width = 500;
}
);
note = Ecircumflexacute;
unicode = 1EBE;
},
{
glyphname = Ecircumflexdotbelow;
lastChange = "2018-03-13 07:04:01 +0000";
layers = (
{
anchors = (
{
name = bottom;
position = "{270, -140}";
},
{
name = ogonek;
position = "{440, 10}";
},
{
name = top;
position = "{250, 890}";
},
{
name = topleft;
position = "{20, 700}";
}
);
layerId = "A03BEFF0-B1C9-4D5E-A067-C5184F278B10";
paths = (
{
closed = 1;
nodes = (
"70 0 LINE",
"437 0 LINE SMOOTH",
"455 0 OFFCURVE",
"466 7 OFFCURVE",
"466 20 CURVE SMOOTH",
"466 24 OFFCURVE",
"465 28 OFFCURVE",
"463 32 CURVE",
"110 32 LINE",
"126 74 OFFCURVE",
"128 136 OFFCURVE",
"128 188 CURVE SMOOTH",
"128 355 LINE",
"389 355 LINE SMOOTH",
"407 355 OFFCURVE",
"418 361 OFFCURVE",
"418 374 CURVE SMOOTH",
"418 378 OFFCURVE",
"417 382 OFFCURVE",
"415 386 CURVE",
"128 386 LINE",
"128 514 LINE SMOOTH",
"128 566 OFFCURVE",
"126 626 OFFCURVE",
"110 668 CURVE",
"421 668 LINE SMOOTH",
"439 668 OFFCURVE",
"450 675 OFFCURVE",
"450 688 CURVE SMOOTH",
"450 692 OFFCURVE",
"449 696 OFFCURVE",
"447 700 CURVE",
"70 700 LINE",
"64 687 LINE",
"84 646 OFFCURVE",
"90 602 OFFCURVE",
"90 514 CURVE SMOOTH",
"90 188 LINE SMOOTH",
"90 100 OFFCURVE",
"84 54 OFFCURVE",
"64 13 CURVE"
);
},
{
closed = 1;
nodes = (
"136 752 LINE",
"250 850 LINE",
"364 752 LINE",
"380 752 LINE",
"274 890 LINE",
"226 890 LINE",
"120 752 LINE"
);
},
{
closed = 1;
nodes = (
"228 -117 OFFCURVE",
"246 -135 OFFCURVE",
"270 -135 CURVE SMOOTH",
"294 -135 OFFCURVE",
"312 -117 OFFCURVE",
"312 -93 CURVE SMOOTH",
"312 -69 OFFCURVE",
"294 -51 OFFCURVE",
"270 -51 CURVE SMOOTH",
"246 -51 OFFCURVE",
"228 -69 OFFCURVE",
"228 -93 CURVE SMOOTH"
);
}
);
width = 500;
}
);
note = Ecircumflexdotbelow;
unicode = 1EC6;
},
{
glyphname = Ecircumflexgrave;
lastChange = "2018-03-13 07:04:01 +0000";
layers = (
{
anchors = (
{
name = bottom;
position = "{270, 0}";
},
{
name = ogonek;
position = "{440, 10}";
},
{
name = top;
position = "{250, 954}";
},
{
name = topleft;
position = "{20, 700}";
}
);
layerId = "A03BEFF0-B1C9-4D5E-A067-C5184F278B10";
paths = (
{
closed = 1;
nodes = (
"70 0 LINE",
"437 0 LINE SMOOTH",
"455 0 OFFCURVE",
"466 7 OFFCURVE",
"466 20 CURVE SMOOTH",
"466 24 OFFCURVE",
"465 28 OFFCURVE",
"463 32 CURVE",
"110 32 LINE",
"126 74 OFFCURVE",
"128 136 OFFCURVE",
"128 188 CURVE SMOOTH",
"128 355 LINE",
"389 355 LINE SMOOTH",
"407 355 OFFCURVE",
"418 361 OFFCURVE",
"418 374 CURVE SMOOTH",
"418 378 OFFCURVE",
"417 382 OFFCURVE",
"415 386 CURVE",
"128 386 LINE",
"128 514 LINE SMOOTH",
"128 566 OFFCURVE",
"126 626 OFFCURVE",
"110 668 CURVE",
"421 668 LINE SMOOTH",
"439 668 OFFCURVE",
"450 675 OFFCURVE",
"450 688 CURVE SMOOTH",
"450 692 OFFCURVE",
"449 696 OFFCURVE",
"447 700 CURVE",
"70 700 LINE",
"64 687 LINE",
"84 646 OFFCURVE",
"90 602 OFFCURVE",
"90 514 CURVE SMOOTH",
"90 188 LINE SMOOTH",
"90 100 OFFCURVE",
"84 54 OFFCURVE",
"64 13 CURVE"
);
},
{
closed = 1;
nodes = (
"136 752 LINE",
"250 850 LINE",
"364 752 LINE",
"380 752 LINE",
"274 890 LINE",
"226 890 LINE",
"120 752 LINE"
);
},
{
closed = 1;
nodes = (
"379 839 LINE",
"395 839 LINE",
"330 949 LINE",
"286 949 LINE"
);
}
);
width = 500;
}
);
note = Ecircumflexgrave;
unicode = 1EC0;
},
{
glyphname = Ecircumflexhookabove;
lastChange = "2018-03-13 07:04:01 +0000";
layers = (
{
anchors = (
{
name = bottom;
position = "{270, 0}";
},
{
name = ogonek;
position = "{440, 10}";
},
{
name = top;
position = "{250, 966}";
},
{
name = topleft;
position = "{20, 700}";
}
);
layerId = "A03BEFF0-B1C9-4D5E-A067-C5184F278B10";
paths = (
{
closed = 1;
nodes = (
"70 0 LINE",
"437 0 LINE SMOOTH",
"455 0 OFFCURVE",
"466 7 OFFCURVE",
"466 20 CURVE SMOOTH",
"466 24 OFFCURVE",
"465 28 OFFCURVE",
"463 32 CURVE",
"110 32 LINE",
"126 74 OFFCURVE",
"128 136 OFFCURVE",
"128 188 CURVE SMOOTH",
"128 355 LINE",
"389 355 LINE SMOOTH",
"407 355 OFFCURVE",
"418 361 OFFCURVE",
"418 374 CURVE SMOOTH",
"418 378 OFFCURVE",
"417 382 OFFCURVE",
"415 386 CURVE",
"128 386 LINE",
"128 514 LINE SMOOTH",
"128 566 OFFCURVE",
"126 626 OFFCURVE",
"110 668 CURVE",
"421 668 LINE SMOOTH",
"439 668 OFFCURVE",
"450 675 OFFCURVE",
"450 688 CURVE SMOOTH",
"450 692 OFFCURVE",
"449 696 OFFCURVE",
"447 700 CURVE",
"70 700 LINE",
"64 687 LINE",
"84 646 OFFCURVE",
"90 602 OFFCURVE",
"90 514 CURVE SMOOTH",
"90 188 LINE SMOOTH",
"90 100 OFFCURVE",
"84 54 OFFCURVE",
"64 13 CURVE"
);
},
{
closed = 1;
nodes = (
"136 752 LINE",
"250 850 LINE",
"364 752 LINE",
"380 752 LINE",
"274 890 LINE",
"226 890 LINE",
"120 752 LINE"
);
},
{
closed = 1;
nodes = (
"352 944 OFFCURVE",
"363 948 OFFCURVE",
"374 948 CURVE SMOOTH",
"396 948 OFFCURVE",
"410 936 OFFCURVE",
"410 916 CURVE SMOOTH",
"410 895 OFFCURVE",
"397 867 OFFCURVE",
"367 840 CURVE",
"387 840 LINE",
"423 863 OFFCURVE",
"442 895 OFFCURVE",
"442 924 CURVE SMOOTH",
"442 955 OFFCURVE",
"420 972 OFFCURVE",
"386 972 CURVE SMOOTH",
"370 972 OFFCURVE",
"355 968 OFFCURVE",
"341 962 CURVE",
"341 940 LINE"
);
}
);
width = 500;
}
);
note = Ecircumflexhookabove;
unicode = 1EC2;
},
{
glyphname = Ecircumflextilde;
lastChange = "2018-03-13 07:04:01 +0000";
layers = (
{
anchors = (
{
name = bottom;
position = "{270, 0}";
},
{
name = ogonek;
position = "{440, 10}";
},
{
name = top;
position = "{250, 1013}";
},
{
name = topleft;
position = "{20, 700}";
}
);
layerId = "A03BEFF0-B1C9-4D5E-A067-C5184F278B10";
paths = (
{
closed = 1;
nodes = (
"70 0 LINE",
"437 0 LINE SMOOTH",
"455 0 OFFCURVE",
"466 7 OFFCURVE",
"466 20 CURVE SMOOTH",
"466 24 OFFCURVE",
"465 28 OFFCURVE",
"463 32 CURVE",
"110 32 LINE",
"126 74 OFFCURVE",
"128 136 OFFCURVE",
"128 188 CURVE SMOOTH",
"128 355 LINE",
"389 355 LINE SMOOTH",
"407 355 OFFCURVE",
"418 361 OFFCURVE",
"418 374 CURVE SMOOTH",
"418 378 OFFCURVE",
"417 382 OFFCURVE",
"415 386 CURVE",
"128 386 LINE",
"128 514 LINE SMOOTH",
"128 566 OFFCURVE",
"126 626 OFFCURVE",
"110 668 CURVE",
"421 668 LINE SMOOTH",
"439 668 OFFCURVE",
"450 675 OFFCURVE",
"450 688 CURVE SMOOTH",
"450 692 OFFCURVE",
"449 696 OFFCURVE",
"447 700 CURVE",
"70 700 LINE",
"64 687 LINE",
"84 646 OFFCURVE",
"90 602 OFFCURVE",
"90 514 CURVE SMOOTH",
"90 188 LINE SMOOTH",
"90 100 OFFCURVE",
"84 54 OFFCURVE",
"64 13 CURVE"
);
},
{
closed = 1;
nodes = (
"136 752 LINE",
"250 850 LINE",
"364 752 LINE",
"380 752 LINE",
"274 890 LINE",
"226 890 LINE",
"120 752 LINE"
);
},
{
closed = 1;
nodes = (
"154 926 LINE",
"159 959 OFFCURVE",
"175 977 OFFCURVE",
"196 977 CURVE SMOOTH",
"230 977 OFFCURVE",
"252 926 OFFCURVE",
"302 926 CURVE SMOOTH",
"338 926 OFFCURVE",
"364 955 OFFCURVE",
"367 1001 CURVE",
"345 1001 LINE",
"340 968 OFFCURVE",
"322 950 OFFCURVE",
"302 950 CURVE SMOOTH",
"268 950 OFFCURVE",
"246 1001 OFFCURVE",
"196 1001 CURVE SMOOTH",
"159 1001 OFFCURVE",
"136 972 OFFCURVE",
"132 926 CURVE"
);
}
);
width = 500;
}
);
note = Ecircumflextilde;
unicode = 1EC4;
},
{
glyphname = Edieresis;
lastChange = "2018-03-13 07:04:01 +0000";
layers = (
{
anchors = (
{
name = bottom;
position = "{270, 0}";
},
{
name = ogonek;
position = "{440, 10}";
},
{
name = top;
position = "{250, 834}";
},
{
name = topleft;
position = "{20, 700}";
}
);
layerId = "A03BEFF0-B1C9-4D5E-A067-C5184F278B10";
paths = (
{
closed = 1;
nodes = (
"70 0 LINE",
"437 0 LINE SMOOTH",
"455 0 OFFCURVE",
"466 7 OFFCURVE",
"466 20 CURVE SMOOTH",
"466 24 OFFCURVE",
"465 28 OFFCURVE",
"463 32 CURVE",
"110 32 LINE",
"126 74 OFFCURVE",
"128 136 OFFCURVE",
"128 188 CURVE SMOOTH",
"128 355 LINE",
"389 355 LINE SMOOTH",
"407 355 OFFCURVE",
"418 361 OFFCURVE",
"418 374 CURVE SMOOTH",
"418 378 OFFCURVE",
"417 382 OFFCURVE",
"415 386 CURVE",
"128 386 LINE",
"128 514 LINE SMOOTH",
"128 566 OFFCURVE",
"126 626 OFFCURVE",
"110 668 CURVE",
"421 668 LINE SMOOTH",
"439 668 OFFCURVE",
"450 675 OFFCURVE",
"450 688 CURVE SMOOTH",
"450 692 OFFCURVE",
"449 696 OFFCURVE",
"447 700 CURVE",
"70 700 LINE",
"64 687 LINE",
"84 646 OFFCURVE",
"90 602 OFFCURVE",
"90 514 CURVE SMOOTH",
"90 188 LINE SMOOTH",
"90 100 OFFCURVE",
"84 54 OFFCURVE",
"64 13 CURVE"
);
},
{
closed = 1;
nodes = (
"138 768 OFFCURVE",
"154 752 OFFCURVE",
"180 752 CURVE SMOOTH",
"204 752 OFFCURVE",
"220 768 OFFCURVE",
"220 792 CURVE SMOOTH",
"220 818 OFFCURVE",
"204 834 OFFCURVE",
"180 834 CURVE SMOOTH",
"154 834 OFFCURVE",
"138 818 OFFCURVE",
"138 792 CURVE SMOOTH"
);
},
{
closed = 1;
nodes = (
"280 768 OFFCURVE",
"296 752 OFFCURVE",
"322 752 CURVE SMOOTH",
"346 752 OFFCURVE",
"362 768 OFFCURVE",
"362 792 CURVE SMOOTH",
"362 818 OFFCURVE",
"346 834 OFFCURVE",
"322 834 CURVE SMOOTH",
"296 834 OFFCURVE",
"280 818 OFFCURVE",
"280 792 CURVE SMOOTH"
);
}
);
width = 500;
}
);
note = Edieresis;
unicode = 00CB;
},
{
glyphname = Edotaccent;
lastChange = "2018-03-13 07:04:01 +0000";
layers = (
{
anchors = (
{
name = bottom;
position = "{270, 0}";
},
{
name = ogonek;
position = "{440, 10}";
},
{
name = top;
position = "{251, 843}";
},
{
name = topleft;
position = "{20, 700}";
}
);
layerId = "A03BEFF0-B1C9-4D5E-A067-C5184F278B10";
paths = (
{
closed = 1;
nodes = (
"70 0 LINE",
"437 0 LINE SMOOTH",
"455 0 OFFCURVE",
"466 7 OFFCURVE",
"466 20 CURVE SMOOTH",
"466 24 OFFCURVE",
"465 28 OFFCURVE",
"463 32 CURVE",
"110 32 LINE",
"126 74 OFFCURVE",
"128 136 OFFCURVE",
"128 188 CURVE SMOOTH",
"128 355 LINE",
"389 355 LINE SMOOTH",
"407 355 OFFCURVE",
"418 361 OFFCURVE",
"418 374 CURVE SMOOTH",
"418 378 OFFCURVE",
"417 382 OFFCURVE",
"415 386 CURVE",
"128 386 LINE",
"128 514 LINE SMOOTH",
"128 566 OFFCURVE",
"126 626 OFFCURVE",
"110 668 CURVE",
"421 668 LINE SMOOTH",
"439 668 OFFCURVE",
"450 675 OFFCURVE",
"450 688 CURVE SMOOTH",
"450 692 OFFCURVE",
"449 696 OFFCURVE",
"447 700 CURVE",
"70 700 LINE",
"64 687 LINE",
"84 646 OFFCURVE",
"90 602 OFFCURVE",
"90 514 CURVE SMOOTH",
"90 188 LINE SMOOTH",
"90 100 OFFCURVE",
"84 54 OFFCURVE",
"64 13 CURVE"
);
},
{
closed = 1;
nodes = (
"209 773 OFFCURVE",
"227 755 OFFCURVE",
"251 755 CURVE SMOOTH",
"275 755 OFFCURVE",
"293 773 OFFCURVE",
"293 797 CURVE SMOOTH",
"293 821 OFFCURVE",
"275 839 OFFCURVE",
"251 839 CURVE SMOOTH",
"227 839 OFFCURVE",
"209 821 OFFCURVE",
"209 797 CURVE SMOOTH"
);
}
);
width = 500;
}
);
note = Edotaccent;
unicode = 0116;
},
{
glyphname = Edotbelow;
lastChange = "2018-03-13 07:04:01 +0000";
layers = (
{
anchors = (
{
name = bottom;
position = "{270, -140}";
},
{
name = ogonek;
position = "{440, 10}";
},
{
name = top;
position = "{250, 700}";
},
{
name = topleft;
position = "{20, 700}";
}
);
layerId = "A03BEFF0-B1C9-4D5E-A067-C5184F278B10";
paths = (
{
closed = 1;
nodes = (
"70 0 LINE",
"437 0 LINE SMOOTH",
"455 0 OFFCURVE",
"466 7 OFFCURVE",
"466 20 CURVE SMOOTH",
"466 24 OFFCURVE",
"465 28 OFFCURVE",
"463 32 CURVE",
"110 32 LINE",
"126 74 OFFCURVE",
"128 136 OFFCURVE",
"128 188 CURVE SMOOTH",
"128 355 LINE",
"389 355 LINE SMOOTH",
"407 355 OFFCURVE",
"418 361 OFFCURVE",
"418 374 CURVE SMOOTH",
"418 378 OFFCURVE",
"417 382 OFFCURVE",
"415 386 CURVE",
"128 386 LINE",
"128 514 LINE SMOOTH",
"128 566 OFFCURVE",
"126 626 OFFCURVE",
"110 668 CURVE",
"421 668 LINE SMOOTH",
"439 668 OFFCURVE",
"450 675 OFFCURVE",
"450 688 CURVE SMOOTH",
"450 692 OFFCURVE",
"449 696 OFFCURVE",
"447 700 CURVE",
"70 700 LINE",
"64 687 LINE",
"84 646 OFFCURVE",
"90 602 OFFCURVE",
"90 514 CURVE SMOOTH",
"90 188 LINE SMOOTH",
"90 100 OFFCURVE",
"84 54 OFFCURVE",
"64 13 CURVE"
);
},
{
closed = 1;
nodes = (
"228 -117 OFFCURVE",
"246 -135 OFFCURVE",
"270 -135 CURVE SMOOTH",
"294 -135 OFFCURVE",
"312 -117 OFFCURVE",
"312 -93 CURVE SMOOTH",
"312 -69 OFFCURVE",
"294 -51 OFFCURVE",
"270 -51 CURVE SMOOTH",
"246 -51 OFFCURVE",
"228 -69 OFFCURVE",
"228 -93 CURVE SMOOTH"
);
}
);
width = 500;
}
);
note = Edotbelow;
unicode = 1EB8;
},
{
glyphname = Egrave;
lastChange = "2018-03-13 07:04:01 +0000";
layers = (
{
anchors = (
{
name = bottom;
position = "{270, 0}";
},
{
name = ogonek;
position = "{440, 10}";
},
{
name = top;
position = "{199, 890}";
},
{
name = topleft;
position = "{20, 700}";
}
);
layerId = "A03BEFF0-B1C9-4D5E-A067-C5184F278B10";
paths = (
{
closed = 1;
nodes = (
"70 0 LINE",
"437 0 LINE SMOOTH",
"455 0 OFFCURVE",
"466 7 OFFCURVE",
"466 20 CURVE SMOOTH",
"466 24 OFFCURVE",
"465 28 OFFCURVE",
"463 32 CURVE",
"110 32 LINE",
"126 74 OFFCURVE",
"128 136 OFFCURVE",
"128 188 CURVE SMOOTH",
"128 355 LINE",
"389 355 LINE SMOOTH",
"407 355 OFFCURVE",
"418 361 OFFCURVE",
"418 374 CURVE SMOOTH",
"418 378 OFFCURVE",
"417 382 OFFCURVE",
"415 386 CURVE",
"128 386 LINE",
"128 514 LINE SMOOTH",
"128 566 OFFCURVE",
"126 626 OFFCURVE",
"110 668 CURVE",
"421 668 LINE SMOOTH",
"439 668 OFFCURVE",
"450 675 OFFCURVE",
"450 688 CURVE SMOOTH",
"450 692 OFFCURVE",
"449 696 OFFCURVE",
"447 700 CURVE",
"70 700 LINE",
"64 687 LINE",
"84 646 OFFCURVE",
"90 602 OFFCURVE",
"90 514 CURVE SMOOTH",
"90 188 LINE SMOOTH",
"90 100 OFFCURVE",
"84 54 OFFCURVE",
"64 13 CURVE"
);
},
{
closed = 1;
nodes = (
"270 752 LINE",
"286 752 LINE",
"221 890 LINE",
"177 890 LINE"
);
}
);
width = 500;
}
);
note = Egrave;
unicode = 00C8;
},
{
glyphname = Ehookabove;
lastChange = "2018-03-13 07:04:01 +0000";
layers = (
{
anchors = (
{
name = bottom;
position = "{270, 0}";
},
{
name = ogonek;
position = "{440, 10}";
},
{
name = top;
position = "{258, 917}";
},
{
name = topleft;
position = "{20, 700}";
}
);
layerId = "A03BEFF0-B1C9-4D5E-A067-C5184F278B10";
paths = (
{
closed = 1;
nodes = (
"70 0 LINE",
"437 0 LINE SMOOTH",
"455 0 OFFCURVE",
"466 7 OFFCURVE",
"466 20 CURVE SMOOTH",
"466 24 OFFCURVE",
"465 28 OFFCURVE",
"463 32 CURVE",
"110 32 LINE",
"126 74 OFFCURVE",
"128 136 OFFCURVE",
"128 188 CURVE SMOOTH",
"128 355 LINE",
"389 355 LINE SMOOTH",
"407 355 OFFCURVE",
"418 361 OFFCURVE",
"418 374 CURVE SMOOTH",
"418 378 OFFCURVE",
"417 382 OFFCURVE",
"415 386 CURVE",
"128 386 LINE",
"128 514 LINE SMOOTH",
"128 566 OFFCURVE",
"126 626 OFFCURVE",
"110 668 CURVE",
"421 668 LINE SMOOTH",
"439 668 OFFCURVE",
"450 675 OFFCURVE",
"450 688 CURVE SMOOTH",
"450 692 OFFCURVE",
"449 696 OFFCURVE",
"447 700 CURVE",
"70 700 LINE",
"64 687 LINE",
"84 646 OFFCURVE",
"90 602 OFFCURVE",
"90 514 CURVE SMOOTH",
"90 188 LINE SMOOTH",
"90 100 OFFCURVE",
"84 54 OFFCURVE",
"64 13 CURVE"
);
},
{
closed = 1;
nodes = (
"216 883 OFFCURVE",
"229 887 OFFCURVE",
"243 887 CURVE SMOOTH",
"271 887 OFFCURVE",
"288 873 OFFCURVE",
"288 847 CURVE SMOOTH",
"288 821 OFFCURVE",
"272 786 OFFCURVE",
"235 752 CURVE",
"260 752 LINE",
"304 781 OFFCURVE",
"328 821 OFFCURVE",
"328 857 CURVE SMOOTH",
"328 896 OFFCURVE",
"301 917 OFFCURVE",
"258 917 CURVE SMOOTH",
"238 917 OFFCURVE",
"219 912 OFFCURVE",
"202 905 CURVE",
"202 877 LINE"
);
}
);
width = 500;
}
);
note = Ehookabove;
unicode = 1EBA;
},
{
glyphname = Emacron;
lastChange = "2018-03-13 07:04:01 +0000";
layers = (
{
anchors = (
{
name = bottom;
position = "{270, 0}";
},
{
name = ogonek;
position = "{440, 10}";
},
{
name = top;
position = "{250, 790}";
},
{
name = topleft;
position = "{20, 700}";
}
);
layerId = "A03BEFF0-B1C9-4D5E-A067-C5184F278B10";
paths = (
{
closed = 1;
nodes = (
"70 0 LINE",
"437 0 LINE SMOOTH",
"455 0 OFFCURVE",
"466 7 OFFCURVE",
"466 20 CURVE SMOOTH",
"466 24 OFFCURVE",
"465 28 OFFCURVE",
"463 32 CURVE",
"110 32 LINE",
"126 74 OFFCURVE",
"128 136 OFFCURVE",
"128 188 CURVE SMOOTH",
"128 355 LINE",
"389 355 LINE SMOOTH",
"407 355 OFFCURVE",
"418 361 OFFCURVE",
"418 374 CURVE SMOOTH",
"418 378 OFFCURVE",
"417 382 OFFCURVE",
"415 386 CURVE",
"128 386 LINE",
"128 514 LINE SMOOTH",
"128 566 OFFCURVE",
"126 626 OFFCURVE",
"110 668 CURVE",
"421 668 LINE SMOOTH",
"439 668 OFFCURVE",
"450 675 OFFCURVE",
"450 688 CURVE SMOOTH",
"450 692 OFFCURVE",
"449 696 OFFCURVE",
"447 700 CURVE",
"70 700 LINE",
"64 687 LINE",
"84 646 OFFCURVE",
"90 602 OFFCURVE",
"90 514 CURVE SMOOTH",
"90 188 LINE SMOOTH",
"90 100 OFFCURVE",
"84 54 OFFCURVE",
"64 13 CURVE"
);
},
{
closed = 1;
nodes = (
"402 760 LINE",
"402 790 LINE",
"98 790 LINE",
"98 760 LINE"
);
}
);
width = 500;
}
);
note = Emacron;
unicode = 0112;
},
{
glyphname = Eogonek;
lastChange = "2018-03-13 07:04:01 +0000";
layers = (
{
anchors = (
{
name = bottom;
position = "{270, 0}";
},
{
name = ogonek;
position = "{440, 10}";
},
{
name = top;
position = "{250, 700}";
},
{
name = topleft;
position = "{20, 700}";
}
);
layerId = "A03BEFF0-B1C9-4D5E-A067-C5184F278B10";
paths = (
{
closed = 1;
nodes = (
"70 0 LINE",
"410 0 LINE",
"359 -30 OFFCURVE",
"330 -67 OFFCURVE",
"330 -100 CURVE SMOOTH",
"330 -132 OFFCURVE",
"357 -155 OFFCURVE",
"400 -155 CURVE SMOOTH",
"420 -155 OFFCURVE",
"439 -150 OFFCURVE",
"456 -143 CURVE",
"456 -115 LINE",
"442 -121 OFFCURVE",
"429 -125 OFFCURVE",
"415 -125 CURVE SMOOTH",
"387 -125 OFFCURVE",
"370 -109 OFFCURVE",
"370 -88 CURVE SMOOTH",
"370 -61 OFFCURVE",
"397 -30 OFFCURVE",
"441 0 CURVE",
"457 1 OFFCURVE",
"466 8 OFFCURVE",
"466 20 CURVE SMOOTH",
"466 24 OFFCURVE",
"465 28 OFFCURVE",
"463 32 CURVE",
"110 32 LINE",
"126 74 OFFCURVE",
"128 136 OFFCURVE",
"128 188 CURVE SMOOTH",
"128 355 LINE",
"389 355 LINE SMOOTH",
"407 355 OFFCURVE",
"418 361 OFFCURVE",
"418 374 CURVE SMOOTH",
"418 378 OFFCURVE",
"417 382 OFFCURVE",
"415 386 CURVE",
"128 386 LINE",
"128 514 LINE SMOOTH",
"128 566 OFFCURVE",
"126 626 OFFCURVE",
"110 668 CURVE",
"421 668 LINE SMOOTH",
"439 668 OFFCURVE",
"450 675 OFFCURVE",
"450 688 CURVE SMOOTH",
"450 692 OFFCURVE",
"449 696 OFFCURVE",
"447 700 CURVE",
"70 700 LINE",
"64 687 LINE",
"84 646 OFFCURVE",
"90 602 OFFCURVE",
"90 514 CURVE SMOOTH",
"90 188 LINE SMOOTH",
"90 100 OFFCURVE",
"84 54 OFFCURVE",
"64 13 CURVE"
);
}
);
width = 500;
}
);
note = Eogonek;
unicode = 0118;
},
{
glyphname = Etilde;
lastChange = "2018-03-13 07:04:01 +0000";
layers = (
{
anchors = (
{
name = bottom;
position = "{270, 0}";
},
{
name = ogonek;
position = "{440, 10}";
},
{
name = top;
position = "{250, 858}";
},
{
name = topleft;
position = "{20, 700}";
}
);
layerId = "A03BEFF0-B1C9-4D5E-A067-C5184F278B10";
paths = (
{
closed = 1;
nodes = (
"70 0 LINE",
"437 0 LINE SMOOTH",
"455 0 OFFCURVE",
"466 7 OFFCURVE",
"466 20 CURVE SMOOTH",
"466 24 OFFCURVE",
"465 28 OFFCURVE",
"463 32 CURVE",
"110 32 LINE",
"126 74 OFFCURVE",
"128 136 OFFCURVE",
"128 188 CURVE SMOOTH",
"128 355 LINE",
"389 355 LINE SMOOTH",
"407 355 OFFCURVE",
"418 361 OFFCURVE",
"418 374 CURVE SMOOTH",
"418 378 OFFCURVE",
"417 382 OFFCURVE",
"415 386 CURVE",
"128 386 LINE",
"128 514 LINE SMOOTH",
"128 566 OFFCURVE",
"126 626 OFFCURVE",
"110 668 CURVE",
"421 668 LINE SMOOTH",
"439 668 OFFCURVE",
"450 675 OFFCURVE",
"450 688 CURVE SMOOTH",
"450 692 OFFCURVE",
"449 696 OFFCURVE",
"447 700 CURVE",
"70 700 LINE",
"64 687 LINE",
"84 646 OFFCURVE",
"90 602 OFFCURVE",
"90 514 CURVE SMOOTH",
"90 188 LINE SMOOTH",
"90 100 OFFCURVE",
"84 54 OFFCURVE",
"64 13 CURVE"
);
},
{
closed = 1;
nodes = (
"131 752 LINE",
"137 798 OFFCURVE",
"157 824 OFFCURVE",
"183 824 CURVE SMOOTH",
"225 824 OFFCURVE",
"253 752 OFFCURVE",
"315 752 CURVE SMOOTH",
"361 752 OFFCURVE",
"393 793 OFFCURVE",
"397 858 CURVE",
"369 858 LINE",
"363 812 OFFCURVE",
"341 786 OFFCURVE",
"315 786 CURVE SMOOTH",
"273 786 OFFCURVE",
"245 858 OFFCURVE",
"183 858 CURVE SMOOTH",
"137 858 OFFCURVE",
"108 817 OFFCURVE",
"103 752 CURVE"
);
}
);
width = 500;
}
);
note = Etilde;
unicode = 1EBC;
},
{
glyphname = F;
lastChange = "2018-03-13 07:04:01 +0000";
layers = (
{
anchors = (
{
name = bottom;
position = "{239, 0}";
},
{
name = top;
position = "{239, 700}";
}
);
layerId = "A03BEFF0-B1C9-4D5E-A067-C5184F278B10";
paths = (
{
closed = 1;
nodes = (
"82 646 OFFCURVE",
"88 602 OFFCURVE",
"88 514 CURVE SMOOTH",
"88 0 LINE",
"93 -3 OFFCURVE",
"97 -4 OFFCURVE",
"101 -4 CURVE SMOOTH",
"118 -4 OFFCURVE",
"126 9 OFFCURVE",
"126 31 CURVE SMOOTH",
"126 345 LINE",
"371 345 LINE SMOOTH",
"389 345 OFFCURVE",
"400 351 OFFCURVE",
"400 364 CURVE SMOOTH",
"400 368 OFFCURVE",
"399 372 OFFCURVE",
"397 376 CURVE",
"126 376 LINE",
"126 514 LINE SMOOTH",
"126 566 OFFCURVE",
"124 626 OFFCURVE",
"108 668 CURVE",
"419 668 LINE SMOOTH",
"437 668 OFFCURVE",
"448 675 OFFCURVE",
"448 688 CURVE SMOOTH",
"448 692 OFFCURVE",
"447 696 OFFCURVE",
"445 700 CURVE",
"68 700 LINE",
"62 687 LINE"
);
}
);
width = 478;
}
);
leftKerningGroup = F;
note = F;
rightKerningGroup = F;
unicode = 0046;
},
{
glyphname = G;
layers = (
{
anchors = (
{
name = bottom;
position = "{334, 0}";
},
{
name = top;
position = "{374, 700}";
}
);
layerId = "A03BEFF0-B1C9-4D5E-A067-C5184F278B10";
paths = (
{
closed = 1;
nodes = (
"50 130 OFFCURVE",
"174 -10 OFFCURVE",
"360 -10 CURVE SMOOTH",
"523 -10 OFFCURVE",
"617 100 OFFCURVE",
"617 305 CURVE SMOOTH",
"617 325 OFFCURVE",
"616 335 OFFCURVE",
"613 346 CURVE",
"387 346 LINE SMOOTH",
"369 346 OFFCURVE",
"358 340 OFFCURVE",
"358 327 CURVE SMOOTH",
"358 323 OFFCURVE",
"359 319 OFFCURVE",
"361 315 CURVE",
"578 315 LINE",
"578 117 OFFCURVE",
"502 21 OFFCURVE",
"360 21 CURVE SMOOTH",
"194 21 OFFCURVE",
"89 149 OFFCURVE",
"89 350 CURVE SMOOTH",
"89 551 OFFCURVE",
"194 679 OFFCURVE",
"366 679 CURVE SMOOTH",
"451 679 OFFCURVE",
"518 650 OFFCURVE",
"565 600 CURVE",
"578 600 OFFCURVE",
"585 606 OFFCURVE",
"585 618 CURVE SMOOTH",
"585 638 OFFCURVE",
"499 710 OFFCURVE",
"374 710 CURVE SMOOTH",
"174 710 OFFCURVE",
"50 570 OFFCURVE",
"50 350 CURVE SMOOTH"
);
}
);
width = 667;
}
);
leftKerningGroup = O;
leftMetricsKey = O;
note = G;
rightKerningGroup = G;
unicode = 0047;
},
{
glyphname = Gbreve;
layers = (
{
anchors = (
{
name = bottom;
position = "{334, 0}";
},
{
name = top;
position = "{374, 870}";
}
);
layerId = "A03BEFF0-B1C9-4D5E-A067-C5184F278B10";
paths = (
{
closed = 1;
nodes = (
"50 130 OFFCURVE",
"174 -10 OFFCURVE",
"360 -10 CURVE SMOOTH",
"523 -10 OFFCURVE",
"617 100 OFFCURVE",
"617 305 CURVE SMOOTH",
"617 325 OFFCURVE",
"616 335 OFFCURVE",
"613 346 CURVE",
"387 346 LINE SMOOTH",
"369 346 OFFCURVE",
"358 340 OFFCURVE",
"358 327 CURVE SMOOTH",
"358 323 OFFCURVE",
"359 319 OFFCURVE",
"361 315 CURVE",
"578 315 LINE",
"578 117 OFFCURVE",
"502 21 OFFCURVE",
"360 21 CURVE SMOOTH",
"194 21 OFFCURVE",
"89 149 OFFCURVE",
"89 350 CURVE SMOOTH",
"89 551 OFFCURVE",
"194 679 OFFCURVE",
"366 679 CURVE SMOOTH",
"451 679 OFFCURVE",
"518 650 OFFCURVE",
"565 600 CURVE",
"578 600 OFFCURVE",
"585 606 OFFCURVE",
"585 618 CURVE SMOOTH",
"585 638 OFFCURVE",
"499 710 OFFCURVE",
"374 710 CURVE SMOOTH",
"174 710 OFFCURVE",
"50 570 OFFCURVE",
"50 350 CURVE SMOOTH"
);
},
{
closed = 1;
nodes = (
"247 794 OFFCURVE",
"298 746 OFFCURVE",
"374 746 CURVE SMOOTH",
"450 746 OFFCURVE",
"501 794 OFFCURVE",
"504 870 CURVE",
"480 870 LINE",
"475 817 OFFCURVE",
"434 784 OFFCURVE",
"374 784 CURVE SMOOTH",
"314 784 OFFCURVE",
"273 817 OFFCURVE",
"268 870 CURVE",
"244 870 LINE"
);
}
);
width = 667;
}
);
leftKerningGroup = G;
note = Gbreve;
unicode = 011E;
},
{
glyphname = Gcaron;
layers = (
{
anchors = (
{
name = bottom;
position = "{334, 0}";
},
{
name = top;
position = "{374, 890}";
}
);
layerId = "A03BEFF0-B1C9-4D5E-A067-C5184F278B10";
paths = (
{
closed = 1;
nodes = (
"50 130 OFFCURVE",
"174 -10 OFFCURVE",
"360 -10 CURVE SMOOTH",
"523 -10 OFFCURVE",
"617 100 OFFCURVE",
"617 305 CURVE SMOOTH",
"617 325 OFFCURVE",
"616 335 OFFCURVE",
"613 346 CURVE",
"387 346 LINE SMOOTH",
"369 346 OFFCURVE",
"358 340 OFFCURVE",
"358 327 CURVE SMOOTH",
"358 323 OFFCURVE",
"359 319 OFFCURVE",
"361 315 CURVE",
"578 315 LINE",
"578 117 OFFCURVE",
"502 21 OFFCURVE",
"360 21 CURVE SMOOTH",
"194 21 OFFCURVE",
"89 149 OFFCURVE",
"89 350 CURVE SMOOTH",
"89 551 OFFCURVE",
"194 679 OFFCURVE",
"366 679 CURVE SMOOTH",
"451 679 OFFCURVE",
"518 650 OFFCURVE",
"565 600 CURVE",
"578 600 OFFCURVE",
"585 606 OFFCURVE",
"585 618 CURVE SMOOTH",
"585 638 OFFCURVE",
"499 710 OFFCURVE",
"374 710 CURVE SMOOTH",
"174 710 OFFCURVE",
"50 570 OFFCURVE",
"50 350 CURVE SMOOTH"
);
},
{
closed = 1;
nodes = (
"350 752 LINE",
"398 752 LINE",
"504 890 LINE",
"488 890 LINE",
"374 792 LINE",
"260 890 LINE",
"244 890 LINE"
);
}
);
width = 667;
}
);
leftKerningGroup = G;
note = Gcaron;
unicode = 01E6;
},
{
glyphname = Gcircumflex;
layers = (
{
anchors = (
{
name = bottom;
position = "{334, 0}";
},
{
name = top;
position = "{374, 890}";
}
);
layerId = "A03BEFF0-B1C9-4D5E-A067-C5184F278B10";
paths = (
{
closed = 1;
nodes = (
"50 130 OFFCURVE",
"174 -10 OFFCURVE",
"360 -10 CURVE SMOOTH",
"523 -10 OFFCURVE",
"617 100 OFFCURVE",
"617 305 CURVE SMOOTH",
"617 325 OFFCURVE",
"616 335 OFFCURVE",
"613 346 CURVE",
"387 346 LINE SMOOTH",
"369 346 OFFCURVE",
"358 340 OFFCURVE",
"358 327 CURVE SMOOTH",
"358 323 OFFCURVE",
"359 319 OFFCURVE",
"361 315 CURVE",
"578 315 LINE",
"578 117 OFFCURVE",
"502 21 OFFCURVE",
"360 21 CURVE SMOOTH",
"194 21 OFFCURVE",
"89 149 OFFCURVE",
"89 350 CURVE SMOOTH",
"89 551 OFFCURVE",
"194 679 OFFCURVE",
"366 679 CURVE SMOOTH",
"451 679 OFFCURVE",
"518 650 OFFCURVE",
"565 600 CURVE",
"578 600 OFFCURVE",
"585 606 OFFCURVE",
"585 618 CURVE SMOOTH",
"585 638 OFFCURVE",
"499 710 OFFCURVE",
"374 710 CURVE SMOOTH",
"174 710 OFFCURVE",
"50 570 OFFCURVE",
"50 350 CURVE SMOOTH"
);
},
{
closed = 1;
nodes = (
"260 752 LINE",
"374 850 LINE",
"488 752 LINE",
"504 752 LINE",
"398 890 LINE",
"350 890 LINE",
"244 752 LINE"
);
}
);
width = 667;
}
);
leftKerningGroup = G;
note = Gcircumflex;
unicode = 011C;
},
{
glyphname = Gcommaaccent;
layers = (
{
anchors = (
{
name = bottom;
position = "{334, -299}";
},
{
name = top;
position = "{374, 700}";
}
);
layerId = "A03BEFF0-B1C9-4D5E-A067-C5184F278B10";
paths = (
{
closed = 1;
nodes = (
"50 130 OFFCURVE",
"174 -10 OFFCURVE",
"360 -10 CURVE SMOOTH",
"523 -10 OFFCURVE",
"617 100 OFFCURVE",
"617 305 CURVE SMOOTH",
"617 325 OFFCURVE",
"616 335 OFFCURVE",
"613 346 CURVE",
"387 346 LINE SMOOTH",
"369 346 OFFCURVE",
"358 340 OFFCURVE",
"358 327 CURVE SMOOTH",
"358 323 OFFCURVE",
"359 319 OFFCURVE",
"361 315 CURVE",
"578 315 LINE",
"578 117 OFFCURVE",
"502 21 OFFCURVE",
"360 21 CURVE SMOOTH",
"194 21 OFFCURVE",
"89 149 OFFCURVE",
"89 350 CURVE SMOOTH",
"89 551 OFFCURVE",
"194 679 OFFCURVE",
"366 679 CURVE SMOOTH",
"451 679 OFFCURVE",
"518 650 OFFCURVE",
"565 600 CURVE",
"578 600 OFFCURVE",
"585 606 OFFCURVE",
"585 618 CURVE SMOOTH",
"585 638 OFFCURVE",
"499 710 OFFCURVE",
"374 710 CURVE SMOOTH",
"174 710 OFFCURVE",
"50 570 OFFCURVE",
"50 350 CURVE SMOOTH"
);
},
{
closed = 1;
nodes = (
"294 -122 OFFCURVE",
"311 -140 OFFCURVE",
"334 -140 CURVE",
"337 -163 OFFCURVE",
"317 -190 OFFCURVE",
"298 -205 CURVE",
"314 -227 LINE",
"351 -202 OFFCURVE",
"377 -151 OFFCURVE",
"377 -115 CURVE SMOOTH",
"377 -77 OFFCURVE",
"358 -60 OFFCURVE",
"334 -60 CURVE SMOOTH",
"311 -60 OFFCURVE",
"294 -77 OFFCURVE",
"294 -99 CURVE SMOOTH"
);
}
);
width = 667;
}
);
leftKerningGroup = G;
note = Gcommaaccent;
unicode = 0122;
},
{
glyphname = Gdotaccent;
layers = (
{
anchors = (
{
name = bottom;
position = "{334, 0}";
},
{
name = top;
position = "{375, 843}";
}
);
layerId = "A03BEFF0-B1C9-4D5E-A067-C5184F278B10";
paths = (
{
closed = 1;
nodes = (
"50 130 OFFCURVE",
"174 -10 OFFCURVE",
"360 -10 CURVE SMOOTH",
"523 -10 OFFCURVE",
"617 100 OFFCURVE",
"617 305 CURVE SMOOTH",
"617 325 OFFCURVE",
"616 335 OFFCURVE",
"613 346 CURVE",
"387 346 LINE SMOOTH",
"369 346 OFFCURVE",
"358 340 OFFCURVE",
"358 327 CURVE SMOOTH",
"358 323 OFFCURVE",
"359 319 OFFCURVE",
"361 315 CURVE",
"578 315 LINE",
"578 117 OFFCURVE",
"502 21 OFFCURVE",
"360 21 CURVE SMOOTH",
"194 21 OFFCURVE",
"89 149 OFFCURVE",
"89 350 CURVE SMOOTH",
"89 551 OFFCURVE",
"194 679 OFFCURVE",
"366 679 CURVE SMOOTH",
"451 679 OFFCURVE",
"518 650 OFFCURVE",
"565 600 CURVE",
"578 600 OFFCURVE",
"585 606 OFFCURVE",
"585 618 CURVE SMOOTH",
"585 638 OFFCURVE",
"499 710 OFFCURVE",
"374 710 CURVE SMOOTH",
"174 710 OFFCURVE",
"50 570 OFFCURVE",
"50 350 CURVE SMOOTH"
);
},
{
closed = 1;
nodes = (
"333 773 OFFCURVE",
"351 755 OFFCURVE",
"375 755 CURVE SMOOTH",
"399 755 OFFCURVE",
"417 773 OFFCURVE",
"417 797 CURVE SMOOTH",
"417 821 OFFCURVE",
"399 839 OFFCURVE",
"375 839 CURVE SMOOTH",
"351 839 OFFCURVE",
"333 821 OFFCURVE",
"333 797 CURVE SMOOTH"
);
}
);
width = 667;
}
);
leftKerningGroup = G;
note = Gdotaccent;
unicode = 0120;
},
{
glyphname = Gmacron;
layers = (
{
anchors = (
{
name = bottom;
position = "{334, 0}";
},
{
name = top;
position = "{374, 790}";
}
);
layerId = "A03BEFF0-B1C9-4D5E-A067-C5184F278B10";
paths = (
{
closed = 1;
nodes = (
"50 130 OFFCURVE",
"174 -10 OFFCURVE",
"360 -10 CURVE SMOOTH",
"523 -10 OFFCURVE",
"617 100 OFFCURVE",
"617 305 CURVE SMOOTH",
"617 325 OFFCURVE",
"616 335 OFFCURVE",
"613 346 CURVE",
"387 346 LINE SMOOTH",
"369 346 OFFCURVE",
"358 340 OFFCURVE",
"358 327 CURVE SMOOTH",
"358 323 OFFCURVE",
"359 319 OFFCURVE",
"361 315 CURVE",
"578 315 LINE",
"578 117 OFFCURVE",
"502 21 OFFCURVE",
"360 21 CURVE SMOOTH",
"194 21 OFFCURVE",
"89 149 OFFCURVE",
"89 350 CURVE SMOOTH",
"89 551 OFFCURVE",
"194 679 OFFCURVE",
"366 679 CURVE SMOOTH",
"451 679 OFFCURVE",
"518 650 OFFCURVE",
"565 600 CURVE",
"578 600 OFFCURVE",
"585 606 OFFCURVE",
"585 618 CURVE SMOOTH",
"585 638 OFFCURVE",
"499 710 OFFCURVE",
"374 710 CURVE SMOOTH",
"174 710 OFFCURVE",
"50 570 OFFCURVE",
"50 350 CURVE SMOOTH"
);
},
{
closed = 1;
nodes = (
"526 760 LINE",
"526 790 LINE",
"222 790 LINE",
"222 760 LINE"
);
}
);
width = 667;
}
);
leftKerningGroup = G;
note = Gmacron;
unicode = 1E20;
},
{
glyphname = H;
layers = (
{
anchors = (
{
name = bottom;
position = "{324, 0}";
},
{
name = center;
position = "{324, 350}";
},
{
name = top;
position = "{324, 700}";
},
{
name = topleft;
position = "{20, 700}";
}
);
layerId = "A03BEFF0-B1C9-4D5E-A067-C5184F278B10";
paths = (
{
closed = 1;
nodes = (
"89 -3 OFFCURVE",
"93 -4 OFFCURVE",
"97 -4 CURVE SMOOTH",
"114 -4 OFFCURVE",
"122 9 OFFCURVE",
"122 31 CURVE SMOOTH",
"122 340 LINE",
"526 340 LINE",
"526 0 LINE",
"531 -3 OFFCURVE",
"535 -4 OFFCURVE",
"539 -4 CURVE SMOOTH",
"556 -4 OFFCURVE",
"564 9 OFFCURVE",
"564 31 CURVE SMOOTH",
"564 700 LINE",
"559 703 OFFCURVE",
"555 704 OFFCURVE",
"551 704 CURVE SMOOTH",
"534 704 OFFCURVE",
"526 691 OFFCURVE",
"526 669 CURVE SMOOTH",
"526 372 LINE",
"122 372 LINE",
"122 700 LINE",
"117 703 OFFCURVE",
"113 704 OFFCURVE",
"109 704 CURVE SMOOTH",
"92 704 OFFCURVE",
"84 691 OFFCURVE",
"84 669 CURVE SMOOTH",
"84 0 LINE"
);
}
);
width = 648;
}
);
leftKerningGroup = H;
leftMetricsKey = "=|";
note = H;
rightKerningGroup = H;
unicode = 0048;
},
{
glyphname = Hbar;
layers = (
{
anchors = (
{
name = bottom;
position = "{324, 0}";
},
{
name = center;
position = "{324, 350}";
},
{
name = top;
position = "{324, 700}";
},
{
name = topleft;
position = "{20, 700}";
}
);
layerId = "A03BEFF0-B1C9-4D5E-A067-C5184F278B10";
paths = (
{
closed = 1;
nodes = (
"84 522 LINE",
"84 0 LINE",
"89 -3 OFFCURVE",
"93 -4 OFFCURVE",
"97 -4 CURVE SMOOTH",
"114 -4 OFFCURVE",
"122 9 OFFCURVE",
"122 31 CURVE SMOOTH",
"122 340 LINE",
"526 340 LINE",
"526 0 LINE",
"531 -3 OFFCURVE",
"535 -4 OFFCURVE",
"539 -4 CURVE SMOOTH",
"556 -4 OFFCURVE",
"564 9 OFFCURVE",
"564 31 CURVE SMOOTH",
"564 522 LINE",
"628 522 LINE",
"628 554 LINE",
"564 554 LINE",
"564 700 LINE",
"559 703 OFFCURVE",
"555 704 OFFCURVE",
"551 704 CURVE SMOOTH",
"534 704 OFFCURVE",
"526 691 OFFCURVE",
"526 669 CURVE SMOOTH",
"526 554 LINE",
"122 554 LINE",
"122 700 LINE",
"117 703 OFFCURVE",
"113 704 OFFCURVE",
"109 704 CURVE SMOOTH",
"92 704 OFFCURVE",
"84 691 OFFCURVE",
"84 669 CURVE SMOOTH",
"84 554 LINE",
"20 554 LINE",
"20 522 LINE"
);
},
{
closed = 1;
nodes = (
"122 522 LINE",
"526 522 LINE",
"526 372 LINE",
"122 372 LINE"
);
}
);
width = 648;
}
);
note = Hbar;
unicode = 0126;
},
{
glyphname = Hbrevebelow;
layers = (
{
anchors = (
{
name = bottom;
position = "{324, -184}";
},
{
name = center;
position = "{324, 350}";
},
{
name = top;
position = "{324, 700}";
},
{
name = topleft;
position = "{20, 700}";
}
);
layerId = "A03BEFF0-B1C9-4D5E-A067-C5184F278B10";
paths = (
{
closed = 1;
nodes = (
"89 -3 OFFCURVE",
"93 -4 OFFCURVE",
"97 -4 CURVE SMOOTH",
"114 -4 OFFCURVE",
"122 9 OFFCURVE",
"122 31 CURVE SMOOTH",
"122 340 LINE",
"526 340 LINE",
"526 0 LINE",
"531 -3 OFFCURVE",
"535 -4 OFFCURVE",
"539 -4 CURVE SMOOTH",
"556 -4 OFFCURVE",
"564 9 OFFCURVE",
"564 31 CURVE SMOOTH",
"564 700 LINE",
"559 703 OFFCURVE",
"555 704 OFFCURVE",
"551 704 CURVE SMOOTH",
"534 704 OFFCURVE",
"526 691 OFFCURVE",
"526 669 CURVE SMOOTH",
"526 372 LINE",
"122 372 LINE",
"122 700 LINE",
"117 703 OFFCURVE",
"113 704 OFFCURVE",
"109 704 CURVE SMOOTH",
"92 704 OFFCURVE",
"84 691 OFFCURVE",
"84 669 CURVE SMOOTH",
"84 0 LINE"
);
},
{
closed = 1;
nodes = (
"197 -136 OFFCURVE",
"248 -184 OFFCURVE",
"324 -184 CURVE SMOOTH",
"400 -184 OFFCURVE",
"451 -136 OFFCURVE",
"454 -60 CURVE",
"430 -60 LINE",
"425 -113 OFFCURVE",
"384 -146 OFFCURVE",
"324 -146 CURVE SMOOTH",
"264 -146 OFFCURVE",
"223 -113 OFFCURVE",
"218 -60 CURVE",
"194 -60 LINE"
);
}
);
width = 648;
}
);
note = Hbrevebelow;
unicode = 1E2A;
},
{
glyphname = Hcircumflex;
layers = (
{
anchors = (
{
name = bottom;
position = "{324, 0}";
},
{
name = center;
position = "{324, 350}";
},
{
name = top;
position = "{324, 890}";
},
{
name = topleft;
position = "{20, 700}";
}
);
layerId = "A03BEFF0-B1C9-4D5E-A067-C5184F278B10";
paths = (
{
closed = 1;
nodes = (
"89 -3 OFFCURVE",
"93 -4 OFFCURVE",
"97 -4 CURVE SMOOTH",
"114 -4 OFFCURVE",
"122 9 OFFCURVE",
"122 31 CURVE SMOOTH",
"122 340 LINE",
"526 340 LINE",
"526 0 LINE",
"531 -3 OFFCURVE",
"535 -4 OFFCURVE",
"539 -4 CURVE SMOOTH",
"556 -4 OFFCURVE",
"564 9 OFFCURVE",
"564 31 CURVE SMOOTH",
"564 700 LINE",
"559 703 OFFCURVE",
"555 704 OFFCURVE",
"551 704 CURVE SMOOTH",
"534 704 OFFCURVE",
"526 691 OFFCURVE",
"526 669 CURVE SMOOTH",
"526 372 LINE",
"122 372 LINE",
"122 700 LINE",
"117 703 OFFCURVE",
"113 704 OFFCURVE",
"109 704 CURVE SMOOTH",
"92 704 OFFCURVE",
"84 691 OFFCURVE",
"84 669 CURVE SMOOTH",
"84 0 LINE"
);
},
{
closed = 1;
nodes = (
"210 752 LINE",
"324 850 LINE",
"438 752 LINE",
"454 752 LINE",
"348 890 LINE",
"300 890 LINE",
"194 752 LINE"
);
}
);
width = 648;
}
);
note = Hcircumflex;
unicode = 0124;
},
{
glyphname = Hdotbelow;
layers = (
{
anchors = (
{
name = bottom;
position = "{324, -140}";
},
{
name = center;
position = "{324, 350}";
},
{
name = top;
position = "{324, 700}";
},
{
name = topleft;
position = "{20, 700}";
}
);
layerId = "A03BEFF0-B1C9-4D5E-A067-C5184F278B10";
paths = (
{
closed = 1;
nodes = (
"89 -3 OFFCURVE",
"93 -4 OFFCURVE",
"97 -4 CURVE SMOOTH",
"114 -4 OFFCURVE",
"122 9 OFFCURVE",
"122 31 CURVE SMOOTH",
"122 340 LINE",
"526 340 LINE",
"526 0 LINE",
"531 -3 OFFCURVE",
"535 -4 OFFCURVE",
"539 -4 CURVE SMOOTH",
"556 -4 OFFCURVE",
"564 9 OFFCURVE",
"564 31 CURVE SMOOTH",
"564 700 LINE",
"559 703 OFFCURVE",
"555 704 OFFCURVE",
"551 704 CURVE SMOOTH",
"534 704 OFFCURVE",
"526 691 OFFCURVE",
"526 669 CURVE SMOOTH",
"526 372 LINE",
"122 372 LINE",
"122 700 LINE",
"117 703 OFFCURVE",
"113 704 OFFCURVE",
"109 704 CURVE SMOOTH",
"92 704 OFFCURVE",
"84 691 OFFCURVE",
"84 669 CURVE SMOOTH",
"84 0 LINE"
);
},
{
closed = 1;
nodes = (
"282 -117 OFFCURVE",
"300 -135 OFFCURVE",
"324 -135 CURVE SMOOTH",
"348 -135 OFFCURVE",
"366 -117 OFFCURVE",
"366 -93 CURVE SMOOTH",
"366 -69 OFFCURVE",
"348 -51 OFFCURVE",
"324 -51 CURVE SMOOTH",
"300 -51 OFFCURVE",
"282 -69 OFFCURVE",
"282 -93 CURVE SMOOTH"
);
}
);
width = 648;
}
);
note = Hdotbelow;
unicode = 1E24;
},
{
glyphname = I;
layers = (
{
anchors = (
{
name = bottom;
position = "{109, 0}";
},
{
name = ogonek;
position = "{106, 5}";
},
{
name = top;
position = "{109, 700}";
},
{
name = topleft;
position = "{20, 700}";
}
);
layerId = "A03BEFF0-B1C9-4D5E-A067-C5184F278B10";
paths = (
{
closed = 1;
nodes = (
"95 -3 OFFCURVE",
"99 -4 OFFCURVE",
"103 -4 CURVE SMOOTH",
"120 -4 OFFCURVE",
"128 9 OFFCURVE",
"128 31 CURVE SMOOTH",
"128 700 LINE",
"123 703 OFFCURVE",
"119 704 OFFCURVE",
"115 704 CURVE SMOOTH",
"98 704 OFFCURVE",
"90 691 OFFCURVE",
"90 669 CURVE SMOOTH",
"90 0 LINE"
);
}
);
width = 218;
}
);
leftKerningGroup = I;
leftMetricsKey = "=|";
note = I;
rightKerningGroup = I;
unicode = 0049;
},
{
glyphname = IJ;
layers = (
{
anchors = (
{
name = bottom;
position = "{397, 0}";
},
{
name = ogonek;
position = "{106, 5}";
},
{
name = top;
position = "{481, 700}";
},
{
name = topleft;
position = "{20, 700}";
}
);
layerId = "A03BEFF0-B1C9-4D5E-A067-C5184F278B10";
paths = (
{
closed = 1;
nodes = (
"95 -3 OFFCURVE",
"99 -4 OFFCURVE",
"103 -4 CURVE SMOOTH",
"120 -4 OFFCURVE",
"128 9 OFFCURVE",
"128 31 CURVE SMOOTH",
"128 700 LINE",
"123 703 OFFCURVE",
"119 704 OFFCURVE",
"115 704 CURVE SMOOTH",
"98 704 OFFCURVE",
"90 691 OFFCURVE",
"90 669 CURVE SMOOTH",
"90 0 LINE"
);
},
{
closed = 1;
nodes = (
"250 16 OFFCURVE",
"297 -10 OFFCURVE",
"357 -10 CURVE SMOOTH",
"445 -10 OFFCURVE",
"496 46 OFFCURVE",
"496 147 CURVE SMOOTH",
"496 700 LINE",
"491 703 OFFCURVE",
"487 704 OFFCURVE",
"483 704 CURVE SMOOTH",
"466 704 OFFCURVE",
"458 691 OFFCURVE",
"458 669 CURVE SMOOTH",
"458 147 LINE SMOOTH",
"458 66 OFFCURVE",
"423 21 OFFCURVE",
"358 21 CURVE SMOOTH",
"317 21 OFFCURVE",
"289 39 OFFCURVE",
"268 57 CURVE",
"256 57 OFFCURVE",
"250 50 OFFCURVE",
"250 37 CURVE SMOOTH"
);
}
);
width = 576;
}
);
note = IJ;
rightKerningGroup = J;
unicode = 0132;
},
{
glyphname = Iacute;
layers = (
{
anchors = (
{
name = bottom;
position = "{109, 0}";
},
{
name = ogonek;
position = "{106, 5}";
},
{
name = top;
position = "{160, 890}";
},
{
name = topleft;
position = "{20, 700}";
}
);
layerId = "A03BEFF0-B1C9-4D5E-A067-C5184F278B10";
paths = (
{
closed = 1;
nodes = (
"89 752 LINE",
"182 890 LINE",
"138 890 LINE",
"73 752 LINE"
);
},
{
closed = 1;
nodes = (
"95 -3 OFFCURVE",
"99 -4 OFFCURVE",
"103 -4 CURVE SMOOTH",
"120 -4 OFFCURVE",
"128 9 OFFCURVE",
"128 31 CURVE SMOOTH",
"128 700 LINE",
"123 703 OFFCURVE",
"119 704 OFFCURVE",
"115 704 CURVE SMOOTH",
"98 704 OFFCURVE",
"90 691 OFFCURVE",
"90 669 CURVE SMOOTH",
"90 0 LINE"
);
}
);
width = 218;
}
);
note = Iacute;
unicode = 00CD;
},
{
glyphname = Ibreve;
layers = (
{
anchors = (
{
name = bottom;
position = "{109, 0}";
},
{
name = ogonek;
position = "{106, 5}";
},
{
name = top;
position = "{109, 870}";
},
{
name = topleft;
position = "{20, 700}";
}
);
layerId = "A03BEFF0-B1C9-4D5E-A067-C5184F278B10";
paths = (
{
closed = 1;
nodes = (
"-18 794 OFFCURVE",
"33 746 OFFCURVE",
"109 746 CURVE SMOOTH",
"185 746 OFFCURVE",
"236 794 OFFCURVE",
"239 870 CURVE",
"215 870 LINE",
"210 817 OFFCURVE",
"169 784 OFFCURVE",
"109 784 CURVE SMOOTH",
"49 784 OFFCURVE",
"8 817 OFFCURVE",
"3 870 CURVE",
"-21 870 LINE"
);
},
{
closed = 1;
nodes = (
"95 -3 OFFCURVE",
"99 -4 OFFCURVE",
"103 -4 CURVE SMOOTH",
"120 -4 OFFCURVE",
"128 9 OFFCURVE",
"128 31 CURVE SMOOTH",
"128 700 LINE",
"123 703 OFFCURVE",
"119 704 OFFCURVE",
"115 704 CURVE SMOOTH",
"98 704 OFFCURVE",
"90 691 OFFCURVE",
"90 669 CURVE SMOOTH",
"90 0 LINE"
);
}
);
width = 218;
}
);
note = Ibreve;
unicode = 012C;
},
{
glyphname = Icaron;
layers = (
{
anchors = (
{
name = bottom;
position = "{109, 0}";
},
{
name = ogonek;
position = "{106, 5}";
},
{
name = top;
position = "{109, 890}";
},
{
name = topleft;
position = "{20, 700}";
}
);
layerId = "A03BEFF0-B1C9-4D5E-A067-C5184F278B10";
paths = (
{
closed = 1;
nodes = (
"85 752 LINE",
"133 752 LINE",
"239 890 LINE",
"223 890 LINE",
"109 792 LINE",
"-5 890 LINE",
"-21 890 LINE"
);
},
{
closed = 1;
nodes = (
"95 -3 OFFCURVE",
"99 -4 OFFCURVE",
"103 -4 CURVE SMOOTH",
"120 -4 OFFCURVE",
"128 9 OFFCURVE",
"128 31 CURVE SMOOTH",
"128 700 LINE",
"123 703 OFFCURVE",
"119 704 OFFCURVE",
"115 704 CURVE SMOOTH",
"98 704 OFFCURVE",
"90 691 OFFCURVE",
"90 669 CURVE SMOOTH",
"90 0 LINE"
);
}
);
width = 218;
}
);
note = Icaron;
unicode = 01CF;
},
{
glyphname = Icircumflex;
layers = (
{
anchors = (
{
name = bottom;
position = "{109, 0}";
},
{
name = ogonek;
position = "{106, 5}";
},
{
name = top;
position = "{109, 890}";
},
{
name = topleft;
position = "{20, 700}";
}
);
layerId = "A03BEFF0-B1C9-4D5E-A067-C5184F278B10";
paths = (
{
closed = 1;
nodes = (
"-5 752 LINE",
"109 850 LINE",
"223 752 LINE",
"239 752 LINE",
"133 890 LINE",
"85 890 LINE",
"-21 752 LINE"
);
},
{
closed = 1;
nodes = (
"95 -3 OFFCURVE",
"99 -4 OFFCURVE",
"103 -4 CURVE SMOOTH",
"120 -4 OFFCURVE",
"128 9 OFFCURVE",
"128 31 CURVE SMOOTH",
"128 700 LINE",
"123 703 OFFCURVE",
"119 704 OFFCURVE",
"115 704 CURVE SMOOTH",
"98 704 OFFCURVE",
"90 691 OFFCURVE",
"90 669 CURVE SMOOTH",
"90 0 LINE"
);
}
);
width = 218;
}
);
note = Icircumflex;
unicode = 00CE;
},
{
glyphname = Idieresis;
layers = (
{
anchors = (
{
name = bottom;
position = "{109, 0}";
},
{
name = ogonek;
position = "{106, 5}";
},
{
name = top;
position = "{109, 834}";
},
{
name = topleft;
position = "{20, 700}";
}
);
layerId = "A03BEFF0-B1C9-4D5E-A067-C5184F278B10";
paths = (
{
closed = 1;
nodes = (
"-3 768 OFFCURVE",
"13 752 OFFCURVE",
"39 752 CURVE SMOOTH",
"63 752 OFFCURVE",
"79 768 OFFCURVE",
"79 792 CURVE SMOOTH",
"79 818 OFFCURVE",
"63 834 OFFCURVE",
"39 834 CURVE SMOOTH",
"13 834 OFFCURVE",
"-3 818 OFFCURVE",
"-3 792 CURVE SMOOTH"
);
},
{
closed = 1;
nodes = (
"95 -3 OFFCURVE",
"99 -4 OFFCURVE",
"103 -4 CURVE SMOOTH",
"120 -4 OFFCURVE",
"128 9 OFFCURVE",
"128 31 CURVE SMOOTH",
"128 700 LINE",
"123 703 OFFCURVE",
"119 704 OFFCURVE",
"115 704 CURVE SMOOTH",
"98 704 OFFCURVE",
"90 691 OFFCURVE",
"90 669 CURVE SMOOTH",
"90 0 LINE"
);
},
{
closed = 1;
nodes = (
"139 768 OFFCURVE",
"155 752 OFFCURVE",
"181 752 CURVE SMOOTH",
"205 752 OFFCURVE",
"221 768 OFFCURVE",
"221 792 CURVE SMOOTH",
"221 818 OFFCURVE",
"205 834 OFFCURVE",
"181 834 CURVE SMOOTH",
"155 834 OFFCURVE",
"139 818 OFFCURVE",
"139 792 CURVE SMOOTH"
);
}
);
width = 218;
}
);
note = Idieresis;
unicode = 00CF;
},
{
glyphname = Idotaccent;
layers = (
{
anchors = (
{
name = bottom;
position = "{109, 0}";
},
{
name = ogonek;
position = "{106, 5}";
},
{
name = top;
position = "{110, 843}";
},
{
name = topleft;
position = "{20, 700}";
}
);
layerId = "A03BEFF0-B1C9-4D5E-A067-C5184F278B10";
paths = (
{
closed = 1;
nodes = (
"68 773 OFFCURVE",
"86 755 OFFCURVE",
"110 755 CURVE SMOOTH",
"134 755 OFFCURVE",
"152 773 OFFCURVE",
"152 797 CURVE SMOOTH",
"152 821 OFFCURVE",
"134 839 OFFCURVE",
"110 839 CURVE SMOOTH",
"86 839 OFFCURVE",
"68 821 OFFCURVE",
"68 797 CURVE SMOOTH"
);
},
{
closed = 1;
nodes = (
"95 -3 OFFCURVE",
"99 -4 OFFCURVE",
"103 -4 CURVE SMOOTH",
"120 -4 OFFCURVE",
"128 9 OFFCURVE",
"128 31 CURVE SMOOTH",
"128 700 LINE",
"123 703 OFFCURVE",
"119 704 OFFCURVE",
"115 704 CURVE SMOOTH",
"98 704 OFFCURVE",
"90 691 OFFCURVE",
"90 669 CURVE SMOOTH",
"90 0 LINE"
);
}
);
width = 218;
}
);
note = Idotaccent;
unicode = 0130;
},
{
glyphname = Idotbelow;
layers = (
{
anchors = (
{
name = bottom;
position = "{109, -140}";
},
{
name = ogonek;
position = "{106, 5}";
},
{
name = top;
position = "{109, 700}";
},
{
name = topleft;
position = "{20, 700}";
}
);
layerId = "A03BEFF0-B1C9-4D5E-A067-C5184F278B10";
paths = (
{
closed = 1;
nodes = (
"67 -117 OFFCURVE",
"85 -135 OFFCURVE",
"109 -135 CURVE SMOOTH",
"133 -135 OFFCURVE",
"151 -117 OFFCURVE",
"151 -93 CURVE SMOOTH",
"151 -69 OFFCURVE",
"133 -51 OFFCURVE",
"109 -51 CURVE SMOOTH",
"85 -51 OFFCURVE",
"67 -69 OFFCURVE",
"67 -93 CURVE SMOOTH"
);
},
{
closed = 1;
nodes = (
"95 -3 OFFCURVE",
"99 -4 OFFCURVE",
"103 -4 CURVE SMOOTH",
"120 -4 OFFCURVE",
"128 9 OFFCURVE",
"128 31 CURVE SMOOTH",
"128 700 LINE",
"123 703 OFFCURVE",
"119 704 OFFCURVE",
"115 704 CURVE SMOOTH",
"98 704 OFFCURVE",
"90 691 OFFCURVE",
"90 669 CURVE SMOOTH",
"90 0 LINE"
);
}
);
width = 218;
}
);
note = Idotbelow;
unicode = 1ECA;
},
{
glyphname = Igrave;
layers = (
{
anchors = (
{
name = bottom;
position = "{109, 0}";
},
{
name = ogonek;
position = "{106, 5}";
},
{
name = top;
position = "{58, 890}";
},
{
name = topleft;
position = "{20, 700}";
}
);
layerId = "A03BEFF0-B1C9-4D5E-A067-C5184F278B10";
paths = (
{
closed = 1;
nodes = (
"129 752 LINE",
"145 752 LINE",
"80 890 LINE",
"36 890 LINE"
);
},
{
closed = 1;
nodes = (
"95 -3 OFFCURVE",
"99 -4 OFFCURVE",
"103 -4 CURVE SMOOTH",
"120 -4 OFFCURVE",
"128 9 OFFCURVE",
"128 31 CURVE SMOOTH",
"128 700 LINE",
"123 703 OFFCURVE",
"119 704 OFFCURVE",
"115 704 CURVE SMOOTH",
"98 704 OFFCURVE",
"90 691 OFFCURVE",
"90 669 CURVE SMOOTH",
"90 0 LINE"
);
}
);
width = 218;
}
);
note = Igrave;
unicode = 00CC;
},
{
glyphname = Ihookabove;
layers = (
{
anchors = (
{
name = bottom;
position = "{109, 0}";
},
{
name = ogonek;
position = "{106, 5}";
},
{
name = top;
position = "{117, 917}";
},
{
name = topleft;
position = "{20, 700}";
}
);
layerId = "A03BEFF0-B1C9-4D5E-A067-C5184F278B10";
paths = (
{
closed = 1;
nodes = (
"75 883 OFFCURVE",
"88 887 OFFCURVE",
"102 887 CURVE SMOOTH",
"130 887 OFFCURVE",
"147 873 OFFCURVE",
"147 847 CURVE SMOOTH",
"147 821 OFFCURVE",
"131 786 OFFCURVE",
"94 752 CURVE",
"119 752 LINE",
"163 781 OFFCURVE",
"187 821 OFFCURVE",
"187 857 CURVE SMOOTH",
"187 896 OFFCURVE",
"160 917 OFFCURVE",
"117 917 CURVE SMOOTH",
"97 917 OFFCURVE",
"78 912 OFFCURVE",
"61 905 CURVE",
"61 877 LINE"
);
},
{
closed = 1;
nodes = (
"95 -3 OFFCURVE",
"99 -4 OFFCURVE",
"103 -4 CURVE SMOOTH",
"120 -4 OFFCURVE",
"128 9 OFFCURVE",
"128 31 CURVE SMOOTH",
"128 700 LINE",
"123 703 OFFCURVE",
"119 704 OFFCURVE",
"115 704 CURVE SMOOTH",
"98 704 OFFCURVE",
"90 691 OFFCURVE",
"90 669 CURVE SMOOTH",
"90 0 LINE"
);
}
);
width = 218;
}
);
note = Ihookabove;
unicode = 1EC8;
},
{
glyphname = Imacron;
layers = (
{
anchors = (
{
name = bottom;
position = "{109, 0}";
},
{
name = ogonek;
position = "{106, 5}";
},
{
name = top;
position = "{109, 790}";
},
{
name = topleft;
position = "{20, 700}";
}
);
layerId = "A03BEFF0-B1C9-4D5E-A067-C5184F278B10";
paths = (
{
closed = 1;
nodes = (
"261 760 LINE",
"261 790 LINE",
"-43 790 LINE",
"-43 760 LINE"
);
},
{
closed = 1;
nodes = (
"95 -3 OFFCURVE",
"99 -4 OFFCURVE",
"103 -4 CURVE SMOOTH",
"120 -4 OFFCURVE",
"128 9 OFFCURVE",
"128 31 CURVE SMOOTH",
"128 700 LINE",
"123 703 OFFCURVE",
"119 704 OFFCURVE",
"115 704 CURVE SMOOTH",
"98 704 OFFCURVE",
"90 691 OFFCURVE",
"90 669 CURVE SMOOTH",
"90 0 LINE"
);
}
);
width = 218;
}
);
note = Imacron;
unicode = 012A;
},
{
glyphname = Iogonek;
lastChange = "2018-03-13 07:04:01 +0000";
layers = (
{
anchors = (
{
name = bottom;
position = "{109, 0}";
},
{
name = ogonek;
position = "{106, 5}";
},
{
name = top;
position = "{109, 700}";
},
{
name = topleft;
position = "{20, 700}";
}
);
layerId = "A03BEFF0-B1C9-4D5E-A067-C5184F278B10";
paths = (
{
closed = 1;
nodes = (
"-4 -137 OFFCURVE",
"23 -160 OFFCURVE",
"66 -160 CURVE SMOOTH",
"86 -160 OFFCURVE",
"105 -155 OFFCURVE",
"122 -148 CURVE",
"122 -120 LINE",
"108 -126 OFFCURVE",
"95 -130 OFFCURVE",
"81 -130 CURVE SMOOTH",
"53 -130 OFFCURVE",
"36 -114 OFFCURVE",
"36 -93 CURVE SMOOTH",
"36 -66 OFFCURVE",
"64 -34 OFFCURVE",
"110 -3 CURVE",
"122 0 OFFCURVE",
"128 12 OFFCURVE",
"128 31 CURVE SMOOTH",
"128 700 LINE",
"123 703 OFFCURVE",
"119 704 OFFCURVE",
"115 704 CURVE SMOOTH",
"98 704 OFFCURVE",
"90 691 OFFCURVE",
"90 669 CURVE SMOOTH",
"90 3 LINE",
"30 -29 OFFCURVE",
"-4 -69 OFFCURVE",
"-4 -105 CURVE SMOOTH"
);
}
);
width = 218;
}
);
note = Iogonek;
unicode = 012E;
},
{
glyphname = Itilde;
layers = (
{
anchors = (
{
name = bottom;
position = "{109, 0}";
},
{
name = ogonek;
position = "{106, 5}";
},
{
name = top;
position = "{109, 858}";
},
{
name = topleft;
position = "{20, 700}";
}
);
layerId = "A03BEFF0-B1C9-4D5E-A067-C5184F278B10";
paths = (
{
closed = 1;
nodes = (
"-10 752 LINE",
"-4 798 OFFCURVE",
"16 824 OFFCURVE",
"42 824 CURVE SMOOTH",
"84 824 OFFCURVE",
"112 752 OFFCURVE",
"174 752 CURVE SMOOTH",
"220 752 OFFCURVE",
"252 793 OFFCURVE",
"256 858 CURVE",
"228 858 LINE",
"222 812 OFFCURVE",
"200 786 OFFCURVE",
"174 786 CURVE SMOOTH",
"132 786 OFFCURVE",
"104 858 OFFCURVE",
"42 858 CURVE SMOOTH",
"-4 858 OFFCURVE",
"-33 817 OFFCURVE",
"-38 752 CURVE"
);
},
{
closed = 1;
nodes = (
"95 -3 OFFCURVE",
"99 -4 OFFCURVE",
"103 -4 CURVE SMOOTH",
"120 -4 OFFCURVE",
"128 9 OFFCURVE",
"128 31 CURVE SMOOTH",
"128 700 LINE",
"123 703 OFFCURVE",
"119 704 OFFCURVE",
"115 704 CURVE SMOOTH",
"98 704 OFFCURVE",
"90 691 OFFCURVE",
"90 669 CURVE SMOOTH",
"90 0 LINE"
);
}
);
width = 218;
}
);
note = Itilde;
unicode = 0128;
},
{
glyphname = J;
layers = (
{
anchors = (
{
name = bottom;
position = "{179, 0}";
},
{
name = top;
position = "{263, 700}";
}
);
layerId = "A03BEFF0-B1C9-4D5E-A067-C5184F278B10";
paths = (
{
closed = 1;
nodes = (
"32 16 OFFCURVE",
"79 -10 OFFCURVE",
"139 -10 CURVE SMOOTH",
"227 -10 OFFCURVE",
"278 46 OFFCURVE",
"278 147 CURVE SMOOTH",
"278 700 LINE",
"273 703 OFFCURVE",
"269 704 OFFCURVE",
"265 704 CURVE SMOOTH",
"248 704 OFFCURVE",
"240 691 OFFCURVE",
"240 669 CURVE SMOOTH",
"240 147 LINE SMOOTH",
"240 66 OFFCURVE",
"205 21 OFFCURVE",
"140 21 CURVE SMOOTH",
"99 21 OFFCURVE",
"71 39 OFFCURVE",
"50 57 CURVE",
"38 57 OFFCURVE",
"32 50 OFFCURVE",
"32 37 CURVE SMOOTH"
);
}
);
width = 358;
}
);
leftKerningGroup = J;
note = J;
rightKerningGroup = J;
unicode = 004A;
},
{
glyphname = Jcircumflex;
layers = (
{
anchors = (
{
name = bottom;
position = "{179, 0}";
},
{
name = top;
position = "{263, 890}";
}
);
layerId = "A03BEFF0-B1C9-4D5E-A067-C5184F278B10";
paths = (
{
closed = 1;
nodes = (
"32 16 OFFCURVE",
"79 -10 OFFCURVE",
"139 -10 CURVE SMOOTH",
"227 -10 OFFCURVE",
"278 46 OFFCURVE",
"278 147 CURVE SMOOTH",
"278 700 LINE",
"273 703 OFFCURVE",
"269 704 OFFCURVE",
"265 704 CURVE SMOOTH",
"248 704 OFFCURVE",
"240 691 OFFCURVE",
"240 669 CURVE SMOOTH",
"240 147 LINE SMOOTH",
"240 66 OFFCURVE",
"205 21 OFFCURVE",
"140 21 CURVE SMOOTH",
"99 21 OFFCURVE",
"71 39 OFFCURVE",
"50 57 CURVE",
"38 57 OFFCURVE",
"32 50 OFFCURVE",
"32 37 CURVE SMOOTH"
);
},
{
closed = 1;
nodes = (
"149 752 LINE",
"263 850 LINE",
"377 752 LINE",
"393 752 LINE",
"287 890 LINE",
"239 890 LINE",
"133 752 LINE"
);
}
);
width = 358;
}
);
leftKerningGroup = J;
note = Jcircumflex;
rightKerningGroup = J;
unicode = 0134;
},
{
glyphname = K;
lastChange = "2018-03-13 07:04:01 +0000";
layers = (
{
anchors = (
{
name = bottom;
position = "{265, 0}";
},
{
name = top;
position = "{265, 700}";
}
);
layerId = "A03BEFF0-B1C9-4D5E-A067-C5184F278B10";
paths = (
{
closed = 1;
nodes = (
"89 -3 OFFCURVE",
"93 -4 OFFCURVE",
"97 -4 CURVE SMOOTH",
"114 -4 OFFCURVE",
"122 9 OFFCURVE",
"122 31 CURVE SMOOTH",
"122 241 LINE",
"214 352 LINE",
"465 12 LINE SMOOTH",
"472 2 OFFCURVE",
"480 -4 OFFCURVE",
"496 -4 CURVE SMOOTH",
"503 -4 OFFCURVE",
"510 -3 OFFCURVE",
"517 0 CURVE",
"517 6 LINE",
"509 9 OFFCURVE",
"501 19 OFFCURVE",
"488 38 CURVE SMOOTH",
"268 339 LINE SMOOTH",
"256 355 OFFCURVE",
"246 363 OFFCURVE",
"232 363 CURVE SMOOTH",
"228 363 OFFCURVE",
"225 363 OFFCURVE",
"222 362 CURVE",
"501 700 LINE",
"495 702 OFFCURVE",
"489 703 OFFCURVE",
"482 703 CURVE SMOOTH",
"464 703 OFFCURVE",
"453 696 OFFCURVE",
"443 684 CURVE SMOOTH",
"122 295 LINE",
"122 700 LINE",
"117 703 OFFCURVE",
"113 704 OFFCURVE",
"109 704 CURVE SMOOTH",
"92 704 OFFCURVE",
"84 691 OFFCURVE",
"84 669 CURVE SMOOTH",
"84 0 LINE"
);
}
);
width = 529;
}
);
leftKerningGroup = H;
leftMetricsKey = H;
note = K;
rightKerningGroup = K;
unicode = 004B;
},
{
glyphname = Kcommaaccent;
lastChange = "2018-03-13 07:04:01 +0000";
layers = (
{
anchors = (
{
name = bottom;
position = "{265, -299}";
},
{
name = top;
position = "{265, 700}";
}
);
layerId = "A03BEFF0-B1C9-4D5E-A067-C5184F278B10";
paths = (
{
closed = 1;
nodes = (
"89 -3 OFFCURVE",
"93 -4 OFFCURVE",
"97 -4 CURVE SMOOTH",
"114 -4 OFFCURVE",
"122 9 OFFCURVE",
"122 31 CURVE SMOOTH",
"122 241 LINE",
"214 352 LINE",
"465 12 LINE SMOOTH",
"472 2 OFFCURVE",
"480 -4 OFFCURVE",
"496 -4 CURVE SMOOTH",
"503 -4 OFFCURVE",
"510 -3 OFFCURVE",
"517 0 CURVE",
"517 6 LINE",
"509 9 OFFCURVE",
"501 19 OFFCURVE",
"488 38 CURVE SMOOTH",
"268 339 LINE SMOOTH",
"256 355 OFFCURVE",
"246 363 OFFCURVE",
"232 363 CURVE SMOOTH",
"228 363 OFFCURVE",
"225 363 OFFCURVE",
"222 362 CURVE",
"501 700 LINE",
"495 702 OFFCURVE",
"489 703 OFFCURVE",
"482 703 CURVE SMOOTH",
"464 703 OFFCURVE",
"453 696 OFFCURVE",
"443 684 CURVE SMOOTH",
"122 295 LINE",
"122 700 LINE",
"117 703 OFFCURVE",
"113 704 OFFCURVE",
"109 704 CURVE SMOOTH",
"92 704 OFFCURVE",
"84 691 OFFCURVE",
"84 669 CURVE SMOOTH",
"84 0 LINE"
);
},
{
closed = 1;
nodes = (
"225 -122 OFFCURVE",
"242 -140 OFFCURVE",
"265 -140 CURVE",
"268 -163 OFFCURVE",
"248 -190 OFFCURVE",
"229 -205 CURVE",
"245 -227 LINE",
"282 -202 OFFCURVE",
"308 -151 OFFCURVE",
"308 -115 CURVE SMOOTH",
"308 -77 OFFCURVE",
"289 -60 OFFCURVE",
"265 -60 CURVE SMOOTH",
"242 -60 OFFCURVE",
"225 -77 OFFCURVE",
"225 -99 CURVE SMOOTH"
);
}
);
width = 529;
}
);
note = Kcommaaccent;
rightKerningGroup = K;
unicode = 0136;
},
{
glyphname = L;
lastChange = "2018-03-13 07:04:01 +0000";
layers = (
{
anchors = (
{
name = bottom;
position = "{257, 0}";
},
{
name = center;
position = "{287, 350}";
},
{
name = top;
position = "{109, 700}";
},
{
name = topright;
position = "{454, 700}";
}
);
layerId = "A03BEFF0-B1C9-4D5E-A067-C5184F278B10";
paths = (
{
closed = 1;
nodes = (
"68 0 LINE",
"419 0 LINE SMOOTH",
"437 0 OFFCURVE",
"448 7 OFFCURVE",
"448 20 CURVE SMOOTH",
"448 24 OFFCURVE",
"447 28 OFFCURVE",
"445 32 CURVE",
"108 32 LINE",
"124 74 OFFCURVE",
"126 136 OFFCURVE",
"126 188 CURVE SMOOTH",
"126 700 LINE",
"121 703 OFFCURVE",
"117 704 OFFCURVE",
"113 704 CURVE SMOOTH",
"96 704 OFFCURVE",
"88 691 OFFCURVE",
"88 669 CURVE SMOOTH",
"88 188 LINE SMOOTH",
"88 100 OFFCURVE",
"82 54 OFFCURVE",
"62 13 CURVE"
);
}
);
width = 474;
}
);
leftKerningGroup = F;
leftMetricsKey = F;
note = L;
rightKerningGroup = L;
unicode = 004C;
},
{
glyphname = Lacute;
lastChange = "2018-03-13 07:04:01 +0000";
layers = (
{
anchors = (
{
name = bottom;
position = "{257, 0}";
},
{
name = center;
position = "{287, 350}";
},
{
name = top;
position = "{160, 890}";
},
{
name = topright;
position = "{454, 700}";
}
);
layerId = "A03BEFF0-B1C9-4D5E-A067-C5184F278B10";
paths = (
{
closed = 1;
nodes = (
"68 0 LINE",
"419 0 LINE SMOOTH",
"437 0 OFFCURVE",
"448 7 OFFCURVE",
"448 20 CURVE SMOOTH",
"448 24 OFFCURVE",
"447 28 OFFCURVE",
"445 32 CURVE",
"108 32 LINE",
"124 74 OFFCURVE",
"126 136 OFFCURVE",
"126 188 CURVE SMOOTH",
"126 700 LINE",
"121 703 OFFCURVE",
"117 704 OFFCURVE",
"113 704 CURVE SMOOTH",
"96 704 OFFCURVE",
"88 691 OFFCURVE",
"88 669 CURVE SMOOTH",
"88 188 LINE SMOOTH",
"88 100 OFFCURVE",
"82 54 OFFCURVE",
"62 13 CURVE"
);
},
{
closed = 1;
nodes = (
"89 752 LINE",
"182 890 LINE",
"138 890 LINE",
"73 752 LINE"
);
}
);
width = 474;
}
);
note = Lacute;
rightKerningGroup = L;
unicode = 0139;
},
{
glyphname = Lcaron;
lastChange = "2018-03-13 07:04:01 +0000";
layers = (
{
anchors = (
{
name = bottom;
position = "{257, 0}";
},
{
name = center;
position = "{287, 350}";
},
{
name = top;
position = "{109, 700}";
},
{
name = topright;
position = "{454, 700}";
}
);
layerId = "A03BEFF0-B1C9-4D5E-A067-C5184F278B10";
paths = (
{
closed = 1;
nodes = (
"68 0 LINE",
"419 0 LINE SMOOTH",
"437 0 OFFCURVE",
"448 7 OFFCURVE",
"448 20 CURVE SMOOTH",
"448 24 OFFCURVE",
"447 28 OFFCURVE",
"445 32 CURVE",
"108 32 LINE",
"124 74 OFFCURVE",
"126 136 OFFCURVE",
"126 188 CURVE SMOOTH",
"126 700 LINE",
"121 703 OFFCURVE",
"117 704 OFFCURVE",
"113 704 CURVE SMOOTH",
"96 704 OFFCURVE",
"88 691 OFFCURVE",
"88 669 CURVE SMOOTH",
"88 188 LINE SMOOTH",
"88 100 OFFCURVE",
"82 54 OFFCURVE",
"62 13 CURVE"
);
},
{
closed = 1;
nodes = (
"331 658 OFFCURVE",
"348 640 OFFCURVE",
"371 640 CURVE",
"374 617 OFFCURVE",
"354 590 OFFCURVE",
"335 575 CURVE",
"351 553 LINE",
"388 578 OFFCURVE",
"414 629 OFFCURVE",
"414 665 CURVE SMOOTH",
"414 703 OFFCURVE",
"395 720 OFFCURVE",
"371 720 CURVE SMOOTH",
"348 720 OFFCURVE",
"331 703 OFFCURVE",
"331 681 CURVE SMOOTH"
);
}
);
width = 474;
}
);
note = Lcaron;
rightKerningGroup = L;
unicode = 013D;
},
{
glyphname = Lcommaaccent;
lastChange = "2018-03-13 07:04:01 +0000";
layers = (
{
anchors = (
{
name = bottom;
position = "{257, -299}";
},
{
name = center;
position = "{287, 350}";
},
{
name = top;
position = "{109, 700}";
},
{
name = topright;
position = "{454, 700}";
}
);
layerId = "A03BEFF0-B1C9-4D5E-A067-C5184F278B10";
paths = (
{
closed = 1;
nodes = (
"68 0 LINE",
"419 0 LINE SMOOTH",
"437 0 OFFCURVE",
"448 7 OFFCURVE",
"448 20 CURVE SMOOTH",
"448 24 OFFCURVE",
"447 28 OFFCURVE",
"445 32 CURVE",
"108 32 LINE",
"124 74 OFFCURVE",
"126 136 OFFCURVE",
"126 188 CURVE SMOOTH",
"126 700 LINE",
"121 703 OFFCURVE",
"117 704 OFFCURVE",
"113 704 CURVE SMOOTH",
"96 704 OFFCURVE",
"88 691 OFFCURVE",
"88 669 CURVE SMOOTH",
"88 188 LINE SMOOTH",
"88 100 OFFCURVE",
"82 54 OFFCURVE",
"62 13 CURVE"
);
},
{
closed = 1;
nodes = (
"217 -122 OFFCURVE",
"234 -140 OFFCURVE",
"257 -140 CURVE",
"260 -163 OFFCURVE",
"240 -190 OFFCURVE",
"221 -205 CURVE",
"237 -227 LINE",
"274 -202 OFFCURVE",
"300 -151 OFFCURVE",
"300 -115 CURVE SMOOTH",
"300 -77 OFFCURVE",
"281 -60 OFFCURVE",
"257 -60 CURVE SMOOTH",
"234 -60 OFFCURVE",
"217 -77 OFFCURVE",
"217 -99 CURVE SMOOTH"
);
}
);
width = 474;
}
);
note = Lcommaaccent;
rightKerningGroup = L;
unicode = 013B;
},
{
glyphname = Ldot;
lastChange = "2018-03-13 07:04:01 +0000";
layers = (
{
anchors = (
{
name = bottom;
position = "{257, 0}";
},
{
name = center;
position = "{287, 350}";
},
{
name = top;
position = "{109, 700}";
},
{
name = topright;
position = "{454, 700}";
}
);
layerId = "A03BEFF0-B1C9-4D5E-A067-C5184F278B10";
paths = (
{
closed = 1;
nodes = (
"68 0 LINE",
"419 0 LINE SMOOTH",
"437 0 OFFCURVE",
"448 7 OFFCURVE",
"448 20 CURVE SMOOTH",
"448 24 OFFCURVE",
"447 28 OFFCURVE",
"445 32 CURVE",
"108 32 LINE",
"124 74 OFFCURVE",
"126 136 OFFCURVE",
"126 188 CURVE SMOOTH",
"126 700 LINE",
"121 703 OFFCURVE",
"117 704 OFFCURVE",
"113 704 CURVE SMOOTH",
"96 704 OFFCURVE",
"88 691 OFFCURVE",
"88 669 CURVE SMOOTH",
"88 188 LINE SMOOTH",
"88 100 OFFCURVE",
"82 54 OFFCURVE",
"62 13 CURVE"
);
},
{
closed = 1;
nodes = (
"249 329 OFFCURVE",
"265 312 OFFCURVE",
"288 312 CURVE SMOOTH",
"311 312 OFFCURVE",
"327 329 OFFCURVE",
"327 351 CURVE SMOOTH",
"327 373 OFFCURVE",
"311 390 OFFCURVE",
"288 390 CURVE SMOOTH",
"265 390 OFFCURVE",
"249 373 OFFCURVE",
"249 351 CURVE SMOOTH"
);
}
);
width = 474;
}
);
note = Ldot;
rightKerningGroup = L;
unicode = 013F;
},
{
glyphname = Ldotbelow;
lastChange = "2018-03-13 07:04:01 +0000";
layers = (
{
anchors = (
{
name = bottom;
position = "{257, -140}";
},
{
name = center;
position = "{287, 350}";
},
{
name = top;
position = "{109, 700}";
},
{
name = topright;
position = "{454, 700}";
}
);
layerId = "A03BEFF0-B1C9-4D5E-A067-C5184F278B10";
paths = (
{
closed = 1;
nodes = (
"68 0 LINE",
"419 0 LINE SMOOTH",
"437 0 OFFCURVE",
"448 7 OFFCURVE",
"448 20 CURVE SMOOTH",
"448 24 OFFCURVE",
"447 28 OFFCURVE",
"445 32 CURVE",
"108 32 LINE",
"124 74 OFFCURVE",
"126 136 OFFCURVE",
"126 188 CURVE SMOOTH",
"126 700 LINE",
"121 703 OFFCURVE",
"117 704 OFFCURVE",
"113 704 CURVE SMOOTH",
"96 704 OFFCURVE",
"88 691 OFFCURVE",
"88 669 CURVE SMOOTH",
"88 188 LINE SMOOTH",
"88 100 OFFCURVE",
"82 54 OFFCURVE",
"62 13 CURVE"
);
},
{
closed = 1;
nodes = (
"215 -117 OFFCURVE",
"233 -135 OFFCURVE",
"257 -135 CURVE SMOOTH",
"281 -135 OFFCURVE",
"299 -117 OFFCURVE",
"299 -93 CURVE SMOOTH",
"299 -69 OFFCURVE",
"281 -51 OFFCURVE",
"257 -51 CURVE SMOOTH",
"233 -51 OFFCURVE",
"215 -69 OFFCURVE",
"215 -93 CURVE SMOOTH"
);
}
);
width = 474;
}
);
note = Ldotbelow;
rightKerningGroup = L;
unicode = 1E36;
},
{
glyphname = Ldotbelowmacron;
lastChange = "2018-03-13 07:04:01 +0000";
layers = (
{
anchors = (
{
name = bottom;
position = "{257, -140}";
},
{
name = center;
position = "{287, 350}";
},
{
name = top;
position = "{259, 790}";
},
{
name = topright;
position = "{454, 700}";
}
);
layerId = "A03BEFF0-B1C9-4D5E-A067-C5184F278B10";
paths = (
{
closed = 1;
nodes = (
"68 0 LINE",
"419 0 LINE SMOOTH",
"437 0 OFFCURVE",
"448 7 OFFCURVE",
"448 20 CURVE SMOOTH",
"448 24 OFFCURVE",
"447 28 OFFCURVE",
"445 32 CURVE",
"108 32 LINE",
"124 74 OFFCURVE",
"126 136 OFFCURVE",
"126 188 CURVE SMOOTH",
"126 700 LINE",
"121 703 OFFCURVE",
"117 704 OFFCURVE",
"113 704 CURVE SMOOTH",
"96 704 OFFCURVE",
"88 691 OFFCURVE",
"88 669 CURVE SMOOTH",
"88 188 LINE SMOOTH",
"88 100 OFFCURVE",
"82 54 OFFCURVE",
"62 13 CURVE"
);
},
{
closed = 1;
nodes = (
"411 760 LINE",
"411 790 LINE",
"107 790 LINE",
"107 760 LINE"
);
},
{
closed = 1;
nodes = (
"215 -117 OFFCURVE",
"233 -135 OFFCURVE",
"257 -135 CURVE SMOOTH",
"281 -135 OFFCURVE",
"299 -117 OFFCURVE",
"299 -93 CURVE SMOOTH",
"299 -69 OFFCURVE",
"281 -51 OFFCURVE",
"257 -51 CURVE SMOOTH",
"233 -51 OFFCURVE",
"215 -69 OFFCURVE",
"215 -93 CURVE SMOOTH"
);
}
);
width = 474;
}
);
note = Ldotbelowmacron;
rightKerningGroup = L;
unicode = 1E38;
},
{
glyphname = Llinebelow;
lastChange = "2018-03-13 07:04:01 +0000";
layers = (
{
anchors = (
{
name = bottom;
position = "{257, -102}";
},
{
name = center;
position = "{287, 350}";
},
{
name = top;
position = "{109, 700}";
},
{
name = topright;
position = "{454, 700}";
}
);
layerId = "A03BEFF0-B1C9-4D5E-A067-C5184F278B10";
paths = (
{
closed = 1;
nodes = (
"68 0 LINE",
"419 0 LINE SMOOTH",
"437 0 OFFCURVE",
"448 7 OFFCURVE",
"448 20 CURVE SMOOTH",
"448 24 OFFCURVE",
"447 28 OFFCURVE",
"445 32 CURVE",
"108 32 LINE",
"124 74 OFFCURVE",
"126 136 OFFCURVE",
"126 188 CURVE SMOOTH",
"126 700 LINE",
"121 703 OFFCURVE",
"117 704 OFFCURVE",
"113 704 CURVE SMOOTH",
"96 704 OFFCURVE",
"88 691 OFFCURVE",
"88 669 CURVE SMOOTH",
"88 188 LINE SMOOTH",
"88 100 OFFCURVE",
"82 54 OFFCURVE",
"62 13 CURVE"
);
},
{
closed = 1;
nodes = (
"409 -102 LINE",
"409 -72 LINE",
"105 -72 LINE",
"105 -102 LINE"
);
}
);
width = 474;
}
);
note = Llinebelow;
rightKerningGroup = L;
unicode = 1E3A;
},
{
glyphname = Lslash;
lastChange = "2018-03-13 07:04:01 +0000";
layers = (
{
anchors = (
{
name = bottom;
position = "{257, 0}";
},
{
name = center;
position = "{287, 350}";
},
{
name = top;
position = "{109, 700}";
},
{
name = topright;
position = "{454, 700}";
}
);
layerId = "A03BEFF0-B1C9-4D5E-A067-C5184F278B10";
paths = (
{
closed = 1;
nodes = (
"88 359 LINE",
"88 188 LINE SMOOTH",
"88 100 OFFCURVE",
"82 54 OFFCURVE",
"62 13 CURVE",
"68 0 LINE",
"419 0 LINE SMOOTH",
"437 0 OFFCURVE",
"448 7 OFFCURVE",
"448 20 CURVE SMOOTH",
"448 24 OFFCURVE",
"447 28 OFFCURVE",
"445 32 CURVE",
"108 32 LINE",
"124 74 OFFCURVE",
"126 136 OFFCURVE",
"126 188 CURVE SMOOTH",
"126 374 LINE",
"350 464 LINE",
"350 496 LINE",
"126 406 LINE",
"126 700 LINE",
"121 703 OFFCURVE",
"117 704 OFFCURVE",
"113 704 CURVE SMOOTH",
"96 704 OFFCURVE",
"88 691 OFFCURVE",
"88 669 CURVE SMOOTH",
"88 391 LINE",
"0 356 LINE",
"0 324 LINE"
);
}
);
width = 474;
}
);
note = Lslash;
rightMetricsKey = L;
unicode = 0141;
},
{
glyphname = M;
lastChange = "2018-03-13 07:04:01 +0000";
layers = (
{
anchors = (
{
name = bottom;
position = "{388, 0}";
},
{
name = top;
position = "{388, 700}";
}
);
layerId = "A03BEFF0-B1C9-4D5E-A067-C5184F278B10";
paths = (
{
closed = 1;
nodes = (
"89 -3 OFFCURVE",
"93 -4 OFFCURVE",
"97 -4 CURVE SMOOTH",
"114 -4 OFFCURVE",
"122 9 OFFCURVE",
"122 31 CURVE SMOOTH",
"122 640 LINE",
"380 70 LINE",
"396 70 LINE",
"626 578 LINE SMOOTH",
"640 611 OFFCURVE",
"649 633 OFFCURVE",
"657 648 CURVE",
"654 628 OFFCURVE",
"654 607 OFFCURVE",
"654 581 CURVE SMOOTH",
"654 0 LINE",
"659 -3 OFFCURVE",
"663 -4 OFFCURVE",
"667 -4 CURVE SMOOTH",
"684 -4 OFFCURVE",
"692 9 OFFCURVE",
"692 31 CURVE SMOOTH",
"692 581 LINE SMOOTH",
"692 637 OFFCURVE",
"697 660 OFFCURVE",
"714 687 CURVE",
"708 700 LINE",
"697 700 OFFCURVE",
"681 704 OFFCURVE",
"671 704 CURVE SMOOTH",
"650 704 OFFCURVE",
"640 696 OFFCURVE",
"627 666 CURVE SMOOTH",
"388 134 LINE",
"134 700 LINE",
"128 703 OFFCURVE",
"121 704 OFFCURVE",
"117 704 CURVE SMOOTH",
"95 704 OFFCURVE",
"84 690 OFFCURVE",
"84 664 CURVE SMOOTH",
"84 0 LINE"
);
}
);
width = 776;
}
);
leftKerningGroup = H;
leftMetricsKey = H;
note = M;
rightKerningGroup = M;
unicode = 004D;
},
{
glyphname = Mdotbelow;
lastChange = "2018-03-13 07:04:01 +0000";
layers = (
{
anchors = (
{
name = bottom;
position = "{388, -140}";
},
{
name = top;
position = "{388, 700}";
}
);
layerId = "A03BEFF0-B1C9-4D5E-A067-C5184F278B10";
paths = (
{
closed = 1;
nodes = (
"89 -3 OFFCURVE",
"93 -4 OFFCURVE",
"97 -4 CURVE SMOOTH",
"114 -4 OFFCURVE",
"122 9 OFFCURVE",
"122 31 CURVE SMOOTH",
"122 640 LINE",
"380 70 LINE",
"396 70 LINE",
"626 578 LINE SMOOTH",
"640 611 OFFCURVE",
"649 633 OFFCURVE",
"657 648 CURVE",
"654 628 OFFCURVE",
"654 607 OFFCURVE",
"654 581 CURVE SMOOTH",
"654 0 LINE",
"659 -3 OFFCURVE",
"663 -4 OFFCURVE",
"667 -4 CURVE SMOOTH",
"684 -4 OFFCURVE",
"692 9 OFFCURVE",
"692 31 CURVE SMOOTH",
"692 581 LINE SMOOTH",
"692 637 OFFCURVE",
"697 660 OFFCURVE",
"714 687 CURVE",
"708 700 LINE",
"697 700 OFFCURVE",
"681 704 OFFCURVE",
"671 704 CURVE SMOOTH",
"650 704 OFFCURVE",
"640 696 OFFCURVE",
"627 666 CURVE SMOOTH",
"388 134 LINE",
"134 700 LINE",
"128 703 OFFCURVE",
"121 704 OFFCURVE",
"117 704 CURVE SMOOTH",
"95 704 OFFCURVE",
"84 690 OFFCURVE",
"84 664 CURVE SMOOTH",
"84 0 LINE"
);
},
{
closed = 1;
nodes = (
"346 -117 OFFCURVE",
"364 -135 OFFCURVE",
"388 -135 CURVE SMOOTH",
"412 -135 OFFCURVE",
"430 -117 OFFCURVE",
"430 -93 CURVE SMOOTH",
"430 -69 OFFCURVE",
"412 -51 OFFCURVE",
"388 -51 CURVE SMOOTH",
"364 -51 OFFCURVE",
"346 -69 OFFCURVE",
"346 -93 CURVE SMOOTH"
);
}
);
width = 776;
}
);
note = Mdotbelow;
unicode = 1E42;
},
{
glyphname = N;
layers = (
{
anchors = (
{
name = bottom;
position = "{320, 0}";
},
{
name = top;
position = "{320, 700}";
}
);
layerId = "A03BEFF0-B1C9-4D5E-A067-C5184F278B10";
paths = (
{
closed = 1;
nodes = (
"89 -3 OFFCURVE",
"93 -4 OFFCURVE",
"97 -4 CURVE SMOOTH",
"114 -4 OFFCURVE",
"122 9 OFFCURVE",
"122 31 CURVE SMOOTH",
"122 647 LINE",
"506 0 LINE",
"512 -3 OFFCURVE",
"519 -4 OFFCURVE",
"523 -4 CURVE SMOOTH",
"545 -4 OFFCURVE",
"556 10 OFFCURVE",
"556 36 CURVE SMOOTH",
"556 700 LINE",
"551 703 OFFCURVE",
"547 704 OFFCURVE",
"543 704 CURVE SMOOTH",
"526 704 OFFCURVE",
"518 691 OFFCURVE",
"518 669 CURVE SMOOTH",
"518 53 LINE",
"134 700 LINE",
"128 703 OFFCURVE",
"121 704 OFFCURVE",
"117 704 CURVE SMOOTH",
"95 704 OFFCURVE",
"84 690 OFFCURVE",
"84 664 CURVE SMOOTH",
"84 0 LINE"
);
}
);
width = 640;
}
);
leftKerningGroup = H;
leftMetricsKey = "=|";
note = N;
rightKerningGroup = H;
rightMetricsKey = H;
unicode = 004E;
},
{
glyphname = Nacute;
layers = (
{
anchors = (
{
name = bottom;
position = "{320, 0}";
},
{
name = top;
position = "{371, 890}";
}
);
layerId = "A03BEFF0-B1C9-4D5E-A067-C5184F278B10";
paths = (
{
closed = 1;
nodes = (
"89 -3 OFFCURVE",
"93 -4 OFFCURVE",
"97 -4 CURVE SMOOTH",
"114 -4 OFFCURVE",
"122 9 OFFCURVE",
"122 31 CURVE SMOOTH",
"122 647 LINE",
"506 0 LINE",
"512 -3 OFFCURVE",
"519 -4 OFFCURVE",
"523 -4 CURVE SMOOTH",
"545 -4 OFFCURVE",
"556 10 OFFCURVE",
"556 36 CURVE SMOOTH",
"556 700 LINE",
"551 703 OFFCURVE",
"547 704 OFFCURVE",
"543 704 CURVE SMOOTH",
"526 704 OFFCURVE",
"518 691 OFFCURVE",
"518 669 CURVE SMOOTH",
"518 53 LINE",
"134 700 LINE",
"128 703 OFFCURVE",
"121 704 OFFCURVE",
"117 704 CURVE SMOOTH",
"95 704 OFFCURVE",
"84 690 OFFCURVE",
"84 664 CURVE SMOOTH",
"84 0 LINE"
);
},
{
closed = 1;
nodes = (
"300 752 LINE",
"393 890 LINE",
"349 890 LINE",
"284 752 LINE"
);
}
);
width = 640;
}
);
note = Nacute;
unicode = 0143;
},
{
glyphname = Ncaron;
layers = (
{
anchors = (
{
name = bottom;
position = "{320, 0}";
},
{
name = top;
position = "{320, 890}";
}
);
layerId = "A03BEFF0-B1C9-4D5E-A067-C5184F278B10";
paths = (
{
closed = 1;
nodes = (
"89 -3 OFFCURVE",
"93 -4 OFFCURVE",
"97 -4 CURVE SMOOTH",
"114 -4 OFFCURVE",
"122 9 OFFCURVE",
"122 31 CURVE SMOOTH",
"122 647 LINE",
"506 0 LINE",
"512 -3 OFFCURVE",
"519 -4 OFFCURVE",
"523 -4 CURVE SMOOTH",
"545 -4 OFFCURVE",
"556 10 OFFCURVE",
"556 36 CURVE SMOOTH",
"556 700 LINE",
"551 703 OFFCURVE",
"547 704 OFFCURVE",
"543 704 CURVE SMOOTH",
"526 704 OFFCURVE",
"518 691 OFFCURVE",
"518 669 CURVE SMOOTH",
"518 53 LINE",
"134 700 LINE",
"128 703 OFFCURVE",
"121 704 OFFCURVE",
"117 704 CURVE SMOOTH",
"95 704 OFFCURVE",
"84 690 OFFCURVE",
"84 664 CURVE SMOOTH",
"84 0 LINE"
);
},
{
closed = 1;
nodes = (
"296 752 LINE",
"344 752 LINE",
"450 890 LINE",
"434 890 LINE",
"320 792 LINE",
"206 890 LINE",
"190 890 LINE"
);
}
);
width = 640;
}
);
note = Ncaron;
unicode = 0147;
},
{
glyphname = Ncommaaccent;
layers = (
{
anchors = (
{
name = bottom;
position = "{320, -299}";
},
{
name = top;
position = "{320, 700}";
}
);
layerId = "A03BEFF0-B1C9-4D5E-A067-C5184F278B10";
paths = (
{
closed = 1;
nodes = (
"89 -3 OFFCURVE",
"93 -4 OFFCURVE",
"97 -4 CURVE SMOOTH",
"114 -4 OFFCURVE",
"122 9 OFFCURVE",
"122 31 CURVE SMOOTH",
"122 647 LINE",
"506 0 LINE",
"512 -3 OFFCURVE",
"519 -4 OFFCURVE",
"523 -4 CURVE SMOOTH",
"545 -4 OFFCURVE",
"556 10 OFFCURVE",
"556 36 CURVE SMOOTH",
"556 700 LINE",
"551 703 OFFCURVE",
"547 704 OFFCURVE",
"543 704 CURVE SMOOTH",
"526 704 OFFCURVE",
"518 691 OFFCURVE",
"518 669 CURVE SMOOTH",
"518 53 LINE",
"134 700 LINE",
"128 703 OFFCURVE",
"121 704 OFFCURVE",
"117 704 CURVE SMOOTH",
"95 704 OFFCURVE",
"84 690 OFFCURVE",
"84 664 CURVE SMOOTH",
"84 0 LINE"
);
},
{
closed = 1;
nodes = (
"280 -122 OFFCURVE",
"297 -140 OFFCURVE",
"320 -140 CURVE",
"323 -163 OFFCURVE",
"303 -190 OFFCURVE",
"284 -205 CURVE",
"300 -227 LINE",
"337 -202 OFFCURVE",
"363 -151 OFFCURVE",
"363 -115 CURVE SMOOTH",
"363 -77 OFFCURVE",
"344 -60 OFFCURVE",
"320 -60 CURVE SMOOTH",
"297 -60 OFFCURVE",
"280 -77 OFFCURVE",
"280 -99 CURVE SMOOTH"
);
}
);
width = 640;
}
);
note = Ncommaaccent;
unicode = 0145;
},
{
glyphname = Ndotaccent;
layers = (
{
anchors = (
{
name = bottom;
position = "{320, 0}";
},
{
name = top;
position = "{321, 843}";
}
);
layerId = "A03BEFF0-B1C9-4D5E-A067-C5184F278B10";
paths = (
{
closed = 1;
nodes = (
"89 -3 OFFCURVE",
"93 -4 OFFCURVE",
"97 -4 CURVE SMOOTH",
"114 -4 OFFCURVE",
"122 9 OFFCURVE",
"122 31 CURVE SMOOTH",
"122 647 LINE",
"506 0 LINE",
"512 -3 OFFCURVE",
"519 -4 OFFCURVE",
"523 -4 CURVE SMOOTH",
"545 -4 OFFCURVE",
"556 10 OFFCURVE",
"556 36 CURVE SMOOTH",
"556 700 LINE",
"551 703 OFFCURVE",
"547 704 OFFCURVE",
"543 704 CURVE SMOOTH",
"526 704 OFFCURVE",
"518 691 OFFCURVE",
"518 669 CURVE SMOOTH",
"518 53 LINE",
"134 700 LINE",
"128 703 OFFCURVE",
"121 704 OFFCURVE",
"117 704 CURVE SMOOTH",
"95 704 OFFCURVE",
"84 690 OFFCURVE",
"84 664 CURVE SMOOTH",
"84 0 LINE"
);
},
{
closed = 1;
nodes = (
"279 773 OFFCURVE",
"297 755 OFFCURVE",
"321 755 CURVE SMOOTH",
"345 755 OFFCURVE",
"363 773 OFFCURVE",
"363 797 CURVE SMOOTH",
"363 821 OFFCURVE",
"345 839 OFFCURVE",
"321 839 CURVE SMOOTH",
"297 839 OFFCURVE",
"279 821 OFFCURVE",
"279 797 CURVE SMOOTH"
);
}
);
width = 640;
}
);
note = Ndotaccent;
unicode = 1E44;
},
{
glyphname = Ndotbelow;
layers = (
{
anchors = (
{
name = bottom;
position = "{320, -140}";
},
{
name = top;
position = "{320, 700}";
}
);
layerId = "A03BEFF0-B1C9-4D5E-A067-C5184F278B10";
paths = (
{
closed = 1;
nodes = (
"89 -3 OFFCURVE",
"93 -4 OFFCURVE",
"97 -4 CURVE SMOOTH",
"114 -4 OFFCURVE",
"122 9 OFFCURVE",
"122 31 CURVE SMOOTH",
"122 647 LINE",
"506 0 LINE",
"512 -3 OFFCURVE",
"519 -4 OFFCURVE",
"523 -4 CURVE SMOOTH",
"545 -4 OFFCURVE",
"556 10 OFFCURVE",
"556 36 CURVE SMOOTH",
"556 700 LINE",
"551 703 OFFCURVE",
"547 704 OFFCURVE",
"543 704 CURVE SMOOTH",
"526 704 OFFCURVE",
"518 691 OFFCURVE",
"518 669 CURVE SMOOTH",
"518 53 LINE",
"134 700 LINE",
"128 703 OFFCURVE",
"121 704 OFFCURVE",
"117 704 CURVE SMOOTH",
"95 704 OFFCURVE",
"84 690 OFFCURVE",
"84 664 CURVE SMOOTH",
"84 0 LINE"
);
},
{
closed = 1;
nodes = (
"278 -117 OFFCURVE",
"296 -135 OFFCURVE",
"320 -135 CURVE SMOOTH",
"344 -135 OFFCURVE",
"362 -117 OFFCURVE",
"362 -93 CURVE SMOOTH",
"362 -69 OFFCURVE",
"344 -51 OFFCURVE",
"320 -51 CURVE SMOOTH",
"296 -51 OFFCURVE",
"278 -69 OFFCURVE",
"278 -93 CURVE SMOOTH"
);
}
);
width = 640;
}
);
note = uni1E46;
unicode = 1E46;
},
{
glyphname = Eng;
layers = (
{
anchors = (
{
name = bottom;
position = "{320, 0}";
},
{
name = top;
position = "{320, 700}";
}
);
layerId = "A03BEFF0-B1C9-4D5E-A067-C5184F278B10";
paths = (
{
closed = 1;
nodes = (
"89 -3 OFFCURVE",
"93 -4 OFFCURVE",
"97 -4 CURVE SMOOTH",
"114 -4 OFFCURVE",
"122 9 OFFCURVE",
"122 31 CURVE SMOOTH",
"122 647 LINE",
"506 0 LINE",
"510 -2 OFFCURVE",
"514 -3 OFFCURVE",
"518 -4 CURVE",
"518 -13 LINE SMOOTH",
"518 -94 OFFCURVE",
"483 -139 OFFCURVE",
"418 -139 CURVE SMOOTH",
"377 -139 OFFCURVE",
"349 -121 OFFCURVE",
"328 -103 CURVE",
"316 -103 OFFCURVE",
"310 -110 OFFCURVE",
"310 -123 CURVE SMOOTH",
"310 -144 OFFCURVE",
"357 -170 OFFCURVE",
"417 -170 CURVE SMOOTH",
"505 -170 OFFCURVE",
"556 -114 OFFCURVE",
"556 -13 CURVE SMOOTH",
"556 700 LINE",
"551 703 OFFCURVE",
"547 704 OFFCURVE",
"543 704 CURVE SMOOTH",
"526 704 OFFCURVE",
"518 691 OFFCURVE",
"518 669 CURVE SMOOTH",
"518 53 LINE",
"134 700 LINE",
"128 703 OFFCURVE",
"121 704 OFFCURVE",
"117 704 CURVE SMOOTH",
"95 704 OFFCURVE",
"84 690 OFFCURVE",
"84 664 CURVE SMOOTH",
"84 0 LINE"
);
}
);
width = 640;
}
);
leftMetricsKey = N;
note = Eng;
rightMetricsKey = N;
unicode = 014A;
},
{
glyphname = Nlinebelow;
layers = (
{
anchors = (
{
name = bottom;
position = "{320, -102}";
},
{
name = top;
position = "{320, 700}";
}
);
layerId = "A03BEFF0-B1C9-4D5E-A067-C5184F278B10";
paths = (
{
closed = 1;
nodes = (
"89 -3 OFFCURVE",
"93 -4 OFFCURVE",
"97 -4 CURVE SMOOTH",
"114 -4 OFFCURVE",
"122 9 OFFCURVE",
"122 31 CURVE SMOOTH",
"122 647 LINE",
"506 0 LINE",
"512 -3 OFFCURVE",
"519 -4 OFFCURVE",
"523 -4 CURVE SMOOTH",
"545 -4 OFFCURVE",
"556 10 OFFCURVE",
"556 36 CURVE SMOOTH",
"556 700 LINE",
"551 703 OFFCURVE",
"547 704 OFFCURVE",
"543 704 CURVE SMOOTH",
"526 704 OFFCURVE",
"518 691 OFFCURVE",
"518 669 CURVE SMOOTH",
"518 53 LINE",
"134 700 LINE",
"128 703 OFFCURVE",
"121 704 OFFCURVE",
"117 704 CURVE SMOOTH",
"95 704 OFFCURVE",
"84 690 OFFCURVE",
"84 664 CURVE SMOOTH",
"84 0 LINE"
);
},
{
closed = 1;
nodes = (
"472 -102 LINE",
"472 -72 LINE",
"168 -72 LINE",
"168 -102 LINE"
);
}
);
width = 640;
}
);
note = Nlinebelow;
unicode = 1E48;
},
{
glyphname = Ntilde;
layers = (
{
anchors = (
{
name = bottom;
position = "{320, 0}";
},
{
name = top;
position = "{320, 858}";
}
);
layerId = "A03BEFF0-B1C9-4D5E-A067-C5184F278B10";
paths = (
{
closed = 1;
nodes = (
"89 -3 OFFCURVE",
"93 -4 OFFCURVE",
"97 -4 CURVE SMOOTH",
"114 -4 OFFCURVE",
"122 9 OFFCURVE",
"122 31 CURVE SMOOTH",
"122 647 LINE",
"506 0 LINE",
"512 -3 OFFCURVE",
"519 -4 OFFCURVE",
"523 -4 CURVE SMOOTH",
"545 -4 OFFCURVE",
"556 10 OFFCURVE",
"556 36 CURVE SMOOTH",
"556 700 LINE",
"551 703 OFFCURVE",
"547 704 OFFCURVE",
"543 704 CURVE SMOOTH",
"526 704 OFFCURVE",
"518 691 OFFCURVE",
"518 669 CURVE SMOOTH",
"518 53 LINE",
"134 700 LINE",
"128 703 OFFCURVE",
"121 704 OFFCURVE",
"117 704 CURVE SMOOTH",
"95 704 OFFCURVE",
"84 690 OFFCURVE",
"84 664 CURVE SMOOTH",
"84 0 LINE"
);
},
{
closed = 1;
nodes = (
"201 752 LINE",
"207 798 OFFCURVE",
"227 824 OFFCURVE",
"253 824 CURVE SMOOTH",
"295 824 OFFCURVE",
"323 752 OFFCURVE",
"385 752 CURVE SMOOTH",
"431 752 OFFCURVE",
"463 793 OFFCURVE",
"467 858 CURVE",
"439 858 LINE",
"433 812 OFFCURVE",
"411 786 OFFCURVE",
"385 786 CURVE SMOOTH",
"343 786 OFFCURVE",
"315 858 OFFCURVE",
"253 858 CURVE SMOOTH",
"207 858 OFFCURVE",
"178 817 OFFCURVE",
"173 752 CURVE"
);
}
);
width = 640;
}
);
note = Ntilde;
unicode = 00D1;
},
{
glyphname = O;
layers = (
{
anchors = (
{
name = bottom;
position = "{361, 0}";
},
{
name = center;
position = "{361, 350}";
},
{
name = ogonek;
position = "{650, 10}";
},
{
name = top;
position = "{361, 700}";
},
{
name = topleft;
position = "{20, 700}";
},
{
name = topright;
position = "{623, 510}";
}
);
layerId = "A03BEFF0-B1C9-4D5E-A067-C5184F278B10";
paths = (
{
closed = 1;
nodes = (
"50 130 OFFCURVE",
"170 -10 OFFCURVE",
"360 -10 CURVE SMOOTH",
"551 -10 OFFCURVE",
"672 130 OFFCURVE",
"672 351 CURVE SMOOTH",
"672 571 OFFCURVE",
"551 710 OFFCURVE",
"360 710 CURVE SMOOTH",
"170 710 OFFCURVE",
"50 571 OFFCURVE",
"50 351 CURVE SMOOTH"
);
},
{
closed = 1;
nodes = (
"89 552 OFFCURVE",
"194 679 OFFCURVE",
"360 679 CURVE SMOOTH",
"527 679 OFFCURVE",
"633 552 OFFCURVE",
"633 351 CURVE SMOOTH",
"633 149 OFFCURVE",
"527 21 OFFCURVE",
"360 21 CURVE SMOOTH",
"194 21 OFFCURVE",
"89 149 OFFCURVE",
"89 351 CURVE SMOOTH"
);
}
);
width = 722;
}
);
leftKerningGroup = O;
note = O;
rightKerningGroup = O;
unicode = 004F;
},
{
glyphname = Oacute;
layers = (
{
anchors = (
{
name = bottom;
position = "{361, 0}";
},
{
name = center;
position = "{361, 350}";
},
{
name = ogonek;
position = "{650, 10}";
},
{
name = top;
position = "{412, 890}";
},
{
name = topleft;
position = "{20, 700}";
},
{
name = topright;
position = "{623, 510}";
}
);
layerId = "A03BEFF0-B1C9-4D5E-A067-C5184F278B10";
paths = (
{
closed = 1;
nodes = (
"50 130 OFFCURVE",
"170 -10 OFFCURVE",
"360 -10 CURVE SMOOTH",
"551 -10 OFFCURVE",
"672 130 OFFCURVE",
"672 351 CURVE SMOOTH",
"672 571 OFFCURVE",
"551 710 OFFCURVE",
"360 710 CURVE SMOOTH",
"170 710 OFFCURVE",
"50 571 OFFCURVE",
"50 351 CURVE SMOOTH"
);
},
{
closed = 1;
nodes = (
"89 552 OFFCURVE",
"194 679 OFFCURVE",
"360 679 CURVE SMOOTH",
"527 679 OFFCURVE",
"633 552 OFFCURVE",
"633 351 CURVE SMOOTH",
"633 149 OFFCURVE",
"527 21 OFFCURVE",
"360 21 CURVE SMOOTH",
"194 21 OFFCURVE",
"89 149 OFFCURVE",
"89 351 CURVE SMOOTH"
);
},
{
closed = 1;
nodes = (
"341 752 LINE",
"434 890 LINE",
"390 890 LINE",
"325 752 LINE"
);
}
);
width = 722;
}
);
leftKerningGroup = O;
note = Oacute;
rightKerningGroup = O;
unicode = 00D3;
},
{
glyphname = Obreve;
layers = (
{
anchors = (
{
name = bottom;
position = "{361, 0}";
},
{
name = center;
position = "{361, 350}";
},
{
name = ogonek;
position = "{650, 10}";
},
{
name = top;
position = "{361, 870}";
},
{
name = topleft;
position = "{20, 700}";
},
{
name = topright;
position = "{623, 510}";
}
);
layerId = "A03BEFF0-B1C9-4D5E-A067-C5184F278B10";
paths = (
{
closed = 1;
nodes = (
"50 130 OFFCURVE",
"170 -10 OFFCURVE",
"360 -10 CURVE SMOOTH",
"551 -10 OFFCURVE",
"672 130 OFFCURVE",
"672 351 CURVE SMOOTH",
"672 571 OFFCURVE",
"551 710 OFFCURVE",
"360 710 CURVE SMOOTH",
"170 710 OFFCURVE",
"50 571 OFFCURVE",
"50 351 CURVE SMOOTH"
);
},
{
closed = 1;
nodes = (
"89 552 OFFCURVE",
"194 679 OFFCURVE",
"360 679 CURVE SMOOTH",
"527 679 OFFCURVE",
"633 552 OFFCURVE",
"633 351 CURVE SMOOTH",
"633 149 OFFCURVE",
"527 21 OFFCURVE",
"360 21 CURVE SMOOTH",
"194 21 OFFCURVE",
"89 149 OFFCURVE",
"89 351 CURVE SMOOTH"
);
},
{
closed = 1;
nodes = (
"234 794 OFFCURVE",
"285 746 OFFCURVE",
"361 746 CURVE SMOOTH",
"437 746 OFFCURVE",
"488 794 OFFCURVE",
"491 870 CURVE",
"467 870 LINE",
"462 817 OFFCURVE",
"421 784 OFFCURVE",
"361 784 CURVE SMOOTH",
"301 784 OFFCURVE",
"260 817 OFFCURVE",
"255 870 CURVE",
"231 870 LINE"
);
}
);
width = 722;
}
);
leftKerningGroup = O;
note = Obreve;
rightKerningGroup = O;
unicode = 014E;
},
{
glyphname = Ocaron;
layers = (
{
anchors = (
{
name = bottom;
position = "{361, 0}";
},
{
name = center;
position = "{361, 350}";
},
{
name = ogonek;
position = "{650, 10}";
},
{
name = top;
position = "{361, 890}";
},
{
name = topleft;
position = "{20, 700}";
},
{
name = topright;
position = "{623, 510}";
}
);
layerId = "A03BEFF0-B1C9-4D5E-A067-C5184F278B10";
paths = (
{
closed = 1;
nodes = (
"50 130 OFFCURVE",
"170 -10 OFFCURVE",
"360 -10 CURVE SMOOTH",
"551 -10 OFFCURVE",
"672 130 OFFCURVE",
"672 351 CURVE SMOOTH",
"672 571 OFFCURVE",
"551 710 OFFCURVE",
"360 710 CURVE SMOOTH",
"170 710 OFFCURVE",
"50 571 OFFCURVE",
"50 351 CURVE SMOOTH"
);
},
{
closed = 1;
nodes = (
"89 552 OFFCURVE",
"194 679 OFFCURVE",
"360 679 CURVE SMOOTH",
"527 679 OFFCURVE",
"633 552 OFFCURVE",
"633 351 CURVE SMOOTH",
"633 149 OFFCURVE",
"527 21 OFFCURVE",
"360 21 CURVE SMOOTH",
"194 21 OFFCURVE",
"89 149 OFFCURVE",
"89 351 CURVE SMOOTH"
);
},
{
closed = 1;
nodes = (
"337 752 LINE",
"385 752 LINE",
"491 890 LINE",
"475 890 LINE",
"361 792 LINE",
"247 890 LINE",
"231 890 LINE"
);
}
);
width = 722;
}
);
leftKerningGroup = O;
note = Ocaron;
rightKerningGroup = O;
unicode = 01D1;
},
{
glyphname = Ocircumflex;
layers = (
{
anchors = (
{
name = bottom;
position = "{361, 0}";
},
{
name = center;
position = "{361, 350}";
},
{
name = ogonek;
position = "{650, 10}";
},
{
name = top;
position = "{361, 890}";
},
{
name = topleft;
position = "{20, 700}";
},
{
name = topright;
position = "{623, 510}";
}
);
layerId = "A03BEFF0-B1C9-4D5E-A067-C5184F278B10";
paths = (
{
closed = 1;
nodes = (
"50 130 OFFCURVE",
"170 -10 OFFCURVE",
"360 -10 CURVE SMOOTH",
"551 -10 OFFCURVE",
"672 130 OFFCURVE",
"672 351 CURVE SMOOTH",
"672 571 OFFCURVE",
"551 710 OFFCURVE",
"360 710 CURVE SMOOTH",
"170 710 OFFCURVE",
"50 571 OFFCURVE",
"50 351 CURVE SMOOTH"
);
},
{
closed = 1;
nodes = (
"89 552 OFFCURVE",
"194 679 OFFCURVE",
"360 679 CURVE SMOOTH",
"527 679 OFFCURVE",
"633 552 OFFCURVE",
"633 351 CURVE SMOOTH",
"633 149 OFFCURVE",
"527 21 OFFCURVE",
"360 21 CURVE SMOOTH",
"194 21 OFFCURVE",
"89 149 OFFCURVE",
"89 351 CURVE SMOOTH"
);
},
{
closed = 1;
nodes = (
"247 752 LINE",
"361 850 LINE",
"475 752 LINE",
"491 752 LINE",
"385 890 LINE",
"337 890 LINE",
"231 752 LINE"
);
}
);
width = 722;
}
);
leftKerningGroup = O;
note = Ocircumflex;
rightKerningGroup = O;
unicode = 00D4;
},
{
glyphname = Ocircumflexacute;
layers = (
{
anchors = (
{
name = bottom;
position = "{361, 0}";
},
{
name = center;
position = "{361, 350}";
},
{
name = ogonek;
position = "{650, 10}";
},
{
name = top;
position = "{361, 954}";
},
{
name = topleft;
position = "{20, 700}";
},
{
name = topright;
position = "{623, 510}";
}
);
layerId = "A03BEFF0-B1C9-4D5E-A067-C5184F278B10";
paths = (
{
closed = 1;
nodes = (
"50 130 OFFCURVE",
"170 -10 OFFCURVE",
"360 -10 CURVE SMOOTH",
"551 -10 OFFCURVE",
"672 130 OFFCURVE",
"672 351 CURVE SMOOTH",
"672 571 OFFCURVE",
"551 710 OFFCURVE",
"360 710 CURVE SMOOTH",
"170 710 OFFCURVE",
"50 571 OFFCURVE",
"50 351 CURVE SMOOTH"
);
},
{
closed = 1;
nodes = (
"89 552 OFFCURVE",
"194 679 OFFCURVE",
"360 679 CURVE SMOOTH",
"527 679 OFFCURVE",
"633 552 OFFCURVE",
"633 351 CURVE SMOOTH",
"633 149 OFFCURVE",
"527 21 OFFCURVE",
"360 21 CURVE SMOOTH",
"194 21 OFFCURVE",
"89 149 OFFCURVE",
"89 351 CURVE SMOOTH"
);
},
{
closed = 1;
nodes = (
"247 752 LINE",
"361 850 LINE",
"475 752 LINE",
"491 752 LINE",
"385 890 LINE",
"337 890 LINE",
"231 752 LINE"
);
},
{
closed = 1;
nodes = (
"476 839 LINE",
"569 949 LINE",
"525 949 LINE",
"460 839 LINE"
);
}
);
width = 722;
}
);
leftKerningGroup = O;
note = Ocircumflexacute;
rightKerningGroup = O;
unicode = 1ED0;
},
{
glyphname = Ocircumflexdotbelow;
layers = (
{
anchors = (
{
name = bottom;
position = "{361, -140}";
},
{
name = center;
position = "{361, 350}";
},
{
name = ogonek;
position = "{650, 10}";
},
{
name = top;
position = "{361, 890}";
},
{
name = topleft;
position = "{20, 700}";
},
{
name = topright;
position = "{623, 510}";
}
);
layerId = "A03BEFF0-B1C9-4D5E-A067-C5184F278B10";
paths = (
{
closed = 1;
nodes = (
"50 130 OFFCURVE",
"170 -10 OFFCURVE",
"360 -10 CURVE SMOOTH",
"551 -10 OFFCURVE",
"672 130 OFFCURVE",
"672 351 CURVE SMOOTH",
"672 571 OFFCURVE",
"551 710 OFFCURVE",
"360 710 CURVE SMOOTH",
"170 710 OFFCURVE",
"50 571 OFFCURVE",
"50 351 CURVE SMOOTH"
);
},
{
closed = 1;
nodes = (
"89 552 OFFCURVE",
"194 679 OFFCURVE",
"360 679 CURVE SMOOTH",
"527 679 OFFCURVE",
"633 552 OFFCURVE",
"633 351 CURVE SMOOTH",
"633 149 OFFCURVE",
"527 21 OFFCURVE",
"360 21 CURVE SMOOTH",
"194 21 OFFCURVE",
"89 149 OFFCURVE",
"89 351 CURVE SMOOTH"
);
},
{
closed = 1;
nodes = (
"247 752 LINE",
"361 850 LINE",
"475 752 LINE",
"491 752 LINE",
"385 890 LINE",
"337 890 LINE",
"231 752 LINE"
);
},
{
closed = 1;
nodes = (
"319 -117 OFFCURVE",
"337 -135 OFFCURVE",
"361 -135 CURVE SMOOTH",
"385 -135 OFFCURVE",
"403 -117 OFFCURVE",
"403 -93 CURVE SMOOTH",
"403 -69 OFFCURVE",
"385 -51 OFFCURVE",
"361 -51 CURVE SMOOTH",
"337 -51 OFFCURVE",
"319 -69 OFFCURVE",
"319 -93 CURVE SMOOTH"
);
}
);
width = 722;
}
);
leftKerningGroup = O;
note = Ocircumflexdotbelow;
rightKerningGroup = O;
unicode = 1ED8;
},
{
glyphname = Ocircumflexgrave;
layers = (
{
anchors = (
{
name = bottom;
position = "{361, 0}";
},
{
name = center;
position = "{361, 350}";
},
{
name = ogonek;
position = "{650, 10}";
},
{
name = top;
position = "{361, 954}";
},
{
name = topleft;
position = "{20, 700}";
},
{
name = topright;
position = "{623, 510}";
}
);
layerId = "A03BEFF0-B1C9-4D5E-A067-C5184F278B10";
paths = (
{
closed = 1;
nodes = (
"50 130 OFFCURVE",
"170 -10 OFFCURVE",
"360 -10 CURVE SMOOTH",
"551 -10 OFFCURVE",
"672 130 OFFCURVE",
"672 351 CURVE SMOOTH",
"672 571 OFFCURVE",
"551 710 OFFCURVE",
"360 710 CURVE SMOOTH",
"170 710 OFFCURVE",
"50 571 OFFCURVE",
"50 351 CURVE SMOOTH"
);
},
{
closed = 1;
nodes = (
"89 552 OFFCURVE",
"194 679 OFFCURVE",
"360 679 CURVE SMOOTH",
"527 679 OFFCURVE",
"633 552 OFFCURVE",
"633 351 CURVE SMOOTH",
"633 149 OFFCURVE",
"527 21 OFFCURVE",
"360 21 CURVE SMOOTH",
"194 21 OFFCURVE",
"89 149 OFFCURVE",
"89 351 CURVE SMOOTH"
);
},
{
closed = 1;
nodes = (
"247 752 LINE",
"361 850 LINE",
"475 752 LINE",
"491 752 LINE",
"385 890 LINE",
"337 890 LINE",
"231 752 LINE"
);
},
{
closed = 1;
nodes = (
"490 839 LINE",
"506 839 LINE",
"441 949 LINE",
"397 949 LINE"
);
}
);
width = 722;
}
);
leftKerningGroup = O;
note = Ocircumflexgrave;
rightKerningGroup = O;
unicode = 1ED2;
},
{
glyphname = Ocircumflexhookabove;
layers = (
{
anchors = (
{
name = bottom;
position = "{361, 0}";
},
{
name = center;
position = "{361, 350}";
},
{
name = ogonek;
position = "{650, 10}";
},
{
name = top;
position = "{361, 966}";
},
{
name = topleft;
position = "{20, 700}";
},
{
name = topright;
position = "{623, 510}";
}
);
layerId = "A03BEFF0-B1C9-4D5E-A067-C5184F278B10";
paths = (
{
closed = 1;
nodes = (
"50 130 OFFCURVE",
"170 -10 OFFCURVE",
"360 -10 CURVE SMOOTH",
"551 -10 OFFCURVE",
"672 130 OFFCURVE",
"672 351 CURVE SMOOTH",
"672 571 OFFCURVE",
"551 710 OFFCURVE",
"360 710 CURVE SMOOTH",
"170 710 OFFCURVE",
"50 571 OFFCURVE",
"50 351 CURVE SMOOTH"
);
},
{
closed = 1;
nodes = (
"89 552 OFFCURVE",
"194 679 OFFCURVE",
"360 679 CURVE SMOOTH",
"527 679 OFFCURVE",
"633 552 OFFCURVE",
"633 351 CURVE SMOOTH",
"633 149 OFFCURVE",
"527 21 OFFCURVE",
"360 21 CURVE SMOOTH",
"194 21 OFFCURVE",
"89 149 OFFCURVE",
"89 351 CURVE SMOOTH"
);
},
{
closed = 1;
nodes = (
"247 752 LINE",
"361 850 LINE",
"475 752 LINE",
"491 752 LINE",
"385 890 LINE",
"337 890 LINE",
"231 752 LINE"
);
},
{
closed = 1;
nodes = (
"463 944 OFFCURVE",
"474 948 OFFCURVE",
"485 948 CURVE SMOOTH",
"507 948 OFFCURVE",
"521 936 OFFCURVE",
"521 916 CURVE SMOOTH",
"521 895 OFFCURVE",
"508 867 OFFCURVE",
"478 840 CURVE",
"498 840 LINE",
"534 863 OFFCURVE",
"553 895 OFFCURVE",
"553 924 CURVE SMOOTH",
"553 955 OFFCURVE",
"531 972 OFFCURVE",
"497 972 CURVE SMOOTH",
"481 972 OFFCURVE",
"466 968 OFFCURVE",
"452 962 CURVE",
"452 940 LINE"
);
}
);
width = 722;
}
);
leftKerningGroup = O;
note = Ocircumflexhookabove;
rightKerningGroup = O;
unicode = 1ED4;
},
{
glyphname = Ocircumflextilde;
layers = (
{
anchors = (
{
name = bottom;
position = "{361, 0}";
},
{
name = center;
position = "{361, 350}";
},
{
name = ogonek;
position = "{650, 10}";
},
{
name = top;
position = "{361, 1013}";
},
{
name = topleft;
position = "{20, 700}";
},
{
name = topright;
position = "{623, 510}";
}
);
layerId = "A03BEFF0-B1C9-4D5E-A067-C5184F278B10";
paths = (
{
closed = 1;
nodes = (
"50 130 OFFCURVE",
"170 -10 OFFCURVE",
"360 -10 CURVE SMOOTH",
"551 -10 OFFCURVE",
"672 130 OFFCURVE",
"672 351 CURVE SMOOTH",
"672 571 OFFCURVE",
"551 710 OFFCURVE",
"360 710 CURVE SMOOTH",
"170 710 OFFCURVE",
"50 571 OFFCURVE",
"50 351 CURVE SMOOTH"
);
},
{
closed = 1;
nodes = (
"89 552 OFFCURVE",
"194 679 OFFCURVE",
"360 679 CURVE SMOOTH",
"527 679 OFFCURVE",
"633 552 OFFCURVE",
"633 351 CURVE SMOOTH",
"633 149 OFFCURVE",
"527 21 OFFCURVE",
"360 21 CURVE SMOOTH",
"194 21 OFFCURVE",
"89 149 OFFCURVE",
"89 351 CURVE SMOOTH"
);
},
{
closed = 1;
nodes = (
"247 752 LINE",
"361 850 LINE",
"475 752 LINE",
"491 752 LINE",
"385 890 LINE",
"337 890 LINE",
"231 752 LINE"
);
},
{
closed = 1;
nodes = (
"265 926 LINE",
"270 959 OFFCURVE",
"286 977 OFFCURVE",
"307 977 CURVE SMOOTH",
"341 977 OFFCURVE",
"363 926 OFFCURVE",
"413 926 CURVE SMOOTH",
"449 926 OFFCURVE",
"475 955 OFFCURVE",
"478 1001 CURVE",
"456 1001 LINE",
"451 968 OFFCURVE",
"433 950 OFFCURVE",
"413 950 CURVE SMOOTH",
"379 950 OFFCURVE",
"357 1001 OFFCURVE",
"307 1001 CURVE SMOOTH",
"270 1001 OFFCURVE",
"247 972 OFFCURVE",
"243 926 CURVE"
);
}
);
width = 722;
}
);
leftKerningGroup = O;
note = Ocircumflextilde;
rightKerningGroup = O;
unicode = 1ED6;
},
{
glyphname = Odieresis;
layers = (
{
anchors = (
{
name = bottom;
position = "{361, 0}";
},
{
name = center;
position = "{361, 350}";
},
{
name = ogonek;
position = "{650, 10}";
},
{
name = top;
position = "{361, 834}";
},
{
name = topleft;
position = "{20, 700}";
},
{
name = topright;
position = "{623, 510}";
}
);
layerId = "A03BEFF0-B1C9-4D5E-A067-C5184F278B10";
paths = (
{
closed = 1;
nodes = (
"50 130 OFFCURVE",
"170 -10 OFFCURVE",
"360 -10 CURVE SMOOTH",
"551 -10 OFFCURVE",
"672 130 OFFCURVE",
"672 351 CURVE SMOOTH",
"672 571 OFFCURVE",
"551 710 OFFCURVE",
"360 710 CURVE SMOOTH",
"170 710 OFFCURVE",
"50 571 OFFCURVE",
"50 351 CURVE SMOOTH"
);
},
{
closed = 1;
nodes = (
"89 552 OFFCURVE",
"194 679 OFFCURVE",
"360 679 CURVE SMOOTH",
"527 679 OFFCURVE",
"633 552 OFFCURVE",
"633 351 CURVE SMOOTH",
"633 149 OFFCURVE",
"527 21 OFFCURVE",
"360 21 CURVE SMOOTH",
"194 21 OFFCURVE",
"89 149 OFFCURVE",
"89 351 CURVE SMOOTH"
);
},
{
closed = 1;
nodes = (
"249 768 OFFCURVE",
"265 752 OFFCURVE",
"291 752 CURVE SMOOTH",
"315 752 OFFCURVE",
"331 768 OFFCURVE",
"331 792 CURVE SMOOTH",
"331 818 OFFCURVE",
"315 834 OFFCURVE",
"291 834 CURVE SMOOTH",
"265 834 OFFCURVE",
"249 818 OFFCURVE",
"249 792 CURVE SMOOTH"
);
},
{
closed = 1;
nodes = (
"391 768 OFFCURVE",
"407 752 OFFCURVE",
"433 752 CURVE SMOOTH",
"457 752 OFFCURVE",
"473 768 OFFCURVE",
"473 792 CURVE SMOOTH",
"473 818 OFFCURVE",
"457 834 OFFCURVE",
"433 834 CURVE SMOOTH",
"407 834 OFFCURVE",
"391 818 OFFCURVE",
"391 792 CURVE SMOOTH"
);
}
);
width = 722;
}
);
leftKerningGroup = O;
note = Odieresis;
rightKerningGroup = O;
unicode = 00D6;
},
{
glyphname = Odotbelow;
layers = (
{
anchors = (
{
name = bottom;
position = "{361, -140}";
},
{
name = center;
position = "{361, 350}";
},
{
name = ogonek;
position = "{650, 10}";
},
{
name = top;
position = "{361, 700}";
},
{
name = topleft;
position = "{20, 700}";
},
{
name = topright;
position = "{623, 510}";
}
);
layerId = "A03BEFF0-B1C9-4D5E-A067-C5184F278B10";
paths = (
{
closed = 1;
nodes = (
"50 130 OFFCURVE",
"170 -10 OFFCURVE",
"360 -10 CURVE SMOOTH",
"551 -10 OFFCURVE",
"672 130 OFFCURVE",
"672 351 CURVE SMOOTH",
"672 571 OFFCURVE",
"551 710 OFFCURVE",
"360 710 CURVE SMOOTH",
"170 710 OFFCURVE",
"50 571 OFFCURVE",
"50 351 CURVE SMOOTH"
);
},
{
closed = 1;
nodes = (
"89 552 OFFCURVE",
"194 679 OFFCURVE",
"360 679 CURVE SMOOTH",
"527 679 OFFCURVE",
"633 552 OFFCURVE",
"633 351 CURVE SMOOTH",
"633 149 OFFCURVE",
"527 21 OFFCURVE",
"360 21 CURVE SMOOTH",
"194 21 OFFCURVE",
"89 149 OFFCURVE",
"89 351 CURVE SMOOTH"
);
},
{
closed = 1;
nodes = (
"319 -117 OFFCURVE",
"337 -135 OFFCURVE",
"361 -135 CURVE SMOOTH",
"385 -135 OFFCURVE",
"403 -117 OFFCURVE",
"403 -93 CURVE SMOOTH",
"403 -69 OFFCURVE",
"385 -51 OFFCURVE",
"361 -51 CURVE SMOOTH",
"337 -51 OFFCURVE",
"319 -69 OFFCURVE",
"319 -93 CURVE SMOOTH"
);
}
);
width = 722;
}
);
leftKerningGroup = O;
note = Odotbelow;
rightKerningGroup = O;
unicode = 1ECC;
},
{
glyphname = Ograve;
layers = (
{
anchors = (
{
name = bottom;
position = "{361, 0}";
},
{
name = center;
position = "{361, 350}";
},
{
name = ogonek;
position = "{650, 10}";
},
{
name = top;
position = "{310, 890}";
},
{
name = topleft;
position = "{20, 700}";
},
{
name = topright;
position = "{623, 510}";
}
);
layerId = "A03BEFF0-B1C9-4D5E-A067-C5184F278B10";
paths = (
{
closed = 1;
nodes = (
"50 130 OFFCURVE",
"170 -10 OFFCURVE",
"360 -10 CURVE SMOOTH",
"551 -10 OFFCURVE",
"672 130 OFFCURVE",
"672 351 CURVE SMOOTH",
"672 571 OFFCURVE",
"551 710 OFFCURVE",
"360 710 CURVE SMOOTH",
"170 710 OFFCURVE",
"50 571 OFFCURVE",
"50 351 CURVE SMOOTH"
);
},
{
closed = 1;
nodes = (
"89 552 OFFCURVE",
"194 679 OFFCURVE",
"360 679 CURVE SMOOTH",
"527 679 OFFCURVE",
"633 552 OFFCURVE",
"633 351 CURVE SMOOTH",
"633 149 OFFCURVE",
"527 21 OFFCURVE",
"360 21 CURVE SMOOTH",
"194 21 OFFCURVE",
"89 149 OFFCURVE",
"89 351 CURVE SMOOTH"
);
},
{
closed = 1;
nodes = (
"381 752 LINE",
"397 752 LINE",
"332 890 LINE",
"288 890 LINE"
);
}
);
width = 722;
}
);
leftKerningGroup = O;
note = Ograve;
rightKerningGroup = O;
unicode = 00D2;
},
{
glyphname = Ohookabove;
layers = (
{
anchors = (
{
name = bottom;
position = "{361, 0}";
},
{
name = center;
position = "{361, 350}";
},
{
name = ogonek;
position = "{650, 10}";
},
{
name = top;
position = "{369, 917}";
},
{
name = topleft;
position = "{20, 700}";
},
{
name = topright;
position = "{623, 510}";
}
);
layerId = "A03BEFF0-B1C9-4D5E-A067-C5184F278B10";
paths = (
{
closed = 1;
nodes = (
"50 130 OFFCURVE",
"170 -10 OFFCURVE",
"360 -10 CURVE SMOOTH",
"551 -10 OFFCURVE",
"672 130 OFFCURVE",
"672 351 CURVE SMOOTH",
"672 571 OFFCURVE",
"551 710 OFFCURVE",
"360 710 CURVE SMOOTH",
"170 710 OFFCURVE",
"50 571 OFFCURVE",
"50 351 CURVE SMOOTH"
);
},
{
closed = 1;
nodes = (
"89 552 OFFCURVE",
"194 679 OFFCURVE",
"360 679 CURVE SMOOTH",
"527 679 OFFCURVE",
"633 552 OFFCURVE",
"633 351 CURVE SMOOTH",
"633 149 OFFCURVE",
"527 21 OFFCURVE",
"360 21 CURVE SMOOTH",
"194 21 OFFCURVE",
"89 149 OFFCURVE",
"89 351 CURVE SMOOTH"
);
},
{
closed = 1;
nodes = (
"327 883 OFFCURVE",
"340 887 OFFCURVE",
"354 887 CURVE SMOOTH",
"382 887 OFFCURVE",
"399 873 OFFCURVE",
"399 847 CURVE SMOOTH",
"399 821 OFFCURVE",
"383 786 OFFCURVE",
"346 752 CURVE",
"371 752 LINE",
"415 781 OFFCURVE",
"439 821 OFFCURVE",
"439 857 CURVE SMOOTH",
"439 896 OFFCURVE",
"412 917 OFFCURVE",
"369 917 CURVE SMOOTH",
"349 917 OFFCURVE",
"330 912 OFFCURVE",
"313 905 CURVE",
"313 877 LINE"
);
}
);
width = 722;
}
);
leftKerningGroup = O;
note = Ohookabove;
rightKerningGroup = O;
unicode = 1ECE;
},
{
glyphname = Ohorn;
lastChange = "2018-03-13 07:04:01 +0000";
layers = (
{
anchors = (
{
name = bottom;
position = "{361, 0}";
},
{
name = center;
position = "{361, 350}";
},
{
name = ogonek;
position = "{650, 10}";
},
{
name = top;
position = "{361, 700}";
},
{
name = topleft;
position = "{20, 700}";
},
{
name = topright;
position = "{623, 510}";
}
);
layerId = "A03BEFF0-B1C9-4D5E-A067-C5184F278B10";
paths = (
{
closed = 1;
nodes = (
"50 130 OFFCURVE",
"170 -10 OFFCURVE",
"360 -10 CURVE SMOOTH",
"551 -10 OFFCURVE",
"672 130 OFFCURVE",
"672 351 CURVE SMOOTH",
"672 410 OFFCURVE",
"663 462 OFFCURVE",
"647 508 CURVE",
"713 542 OFFCURVE",
"759 612 OFFCURVE",
"759 674 CURVE SMOOTH",
"759 706 OFFCURVE",
"740 720 OFFCURVE",
"718 720 CURVE SMOOTH",
"693 720 OFFCURVE",
"676 703 OFFCURVE",
"676 681 CURVE SMOOTH",
"676 658 OFFCURVE",
"693 640 OFFCURVE",
"721 640 CURVE",
"712 600 OFFCURVE",
"678 555 OFFCURVE",
"638 533 CURVE",
"589 645 OFFCURVE",
"491 710 OFFCURVE",
"360 710 CURVE SMOOTH",
"170 710 OFFCURVE",
"50 571 OFFCURVE",
"50 351 CURVE SMOOTH"
);
},
{
closed = 1;
nodes = (
"89 552 OFFCURVE",
"194 679 OFFCURVE",
"360 679 CURVE SMOOTH",
"527 679 OFFCURVE",
"633 552 OFFCURVE",
"633 351 CURVE SMOOTH",
"633 149 OFFCURVE",
"527 21 OFFCURVE",
"360 21 CURVE SMOOTH",
"194 21 OFFCURVE",
"89 149 OFFCURVE",
"89 351 CURVE SMOOTH"
);
}
);
width = 769;
}
);
note = Ohorn;
unicode = 01A0;
},
{
glyphname = Ohornacute;
lastChange = "2018-03-13 07:04:01 +0000";
layers = (
{
anchors = (
{
name = bottom;
position = "{361, 0}";
},
{
name = center;
position = "{361, 350}";
},
{
name = ogonek;
position = "{650, 10}";
},
{
name = top;
position = "{412, 890}";
},
{
name = topleft;
position = "{20, 700}";
},
{
name = topright;
position = "{623, 510}";
}
);
layerId = "A03BEFF0-B1C9-4D5E-A067-C5184F278B10";
paths = (
{
closed = 1;
nodes = (
"50 130 OFFCURVE",
"170 -10 OFFCURVE",
"360 -10 CURVE SMOOTH",
"551 -10 OFFCURVE",
"672 130 OFFCURVE",
"672 351 CURVE SMOOTH",
"672 410 OFFCURVE",
"663 462 OFFCURVE",
"647 508 CURVE",
"713 542 OFFCURVE",
"759 612 OFFCURVE",
"759 674 CURVE SMOOTH",
"759 706 OFFCURVE",
"740 720 OFFCURVE",
"718 720 CURVE SMOOTH",
"693 720 OFFCURVE",
"676 703 OFFCURVE",
"676 681 CURVE SMOOTH",
"676 658 OFFCURVE",
"693 640 OFFCURVE",
"721 640 CURVE",
"712 600 OFFCURVE",
"678 555 OFFCURVE",
"638 533 CURVE",
"589 645 OFFCURVE",
"491 710 OFFCURVE",
"360 710 CURVE SMOOTH",
"170 710 OFFCURVE",
"50 571 OFFCURVE",
"50 351 CURVE SMOOTH"
);
},
{
closed = 1;
nodes = (
"89 552 OFFCURVE",
"194 679 OFFCURVE",
"360 679 CURVE SMOOTH",
"527 679 OFFCURVE",
"633 552 OFFCURVE",
"633 351 CURVE SMOOTH",
"633 149 OFFCURVE",
"527 21 OFFCURVE",
"360 21 CURVE SMOOTH",
"194 21 OFFCURVE",
"89 149 OFFCURVE",
"89 351 CURVE SMOOTH"
);
},
{
closed = 1;
nodes = (
"341 752 LINE",
"434 890 LINE",
"390 890 LINE",
"325 752 LINE"
);
}
);
width = 769;
}
);
leftKerningGroup = O;
note = Ohornacute;
rightKerningGroup = O;
unicode = 1EDA;
},
{
glyphname = Ohorndotbelow;
lastChange = "2018-03-13 07:04:01 +0000";
layers = (
{
anchors = (
{
name = bottom;
position = "{361, -140}";
},
{
name = center;
position = "{361, 350}";
},
{
name = ogonek;
position = "{650, 10}";
},
{
name = top;
position = "{361, 700}";
},
{
name = topleft;
position = "{20, 700}";
},
{
name = topright;
position = "{623, 510}";
}
);
layerId = "A03BEFF0-B1C9-4D5E-A067-C5184F278B10";
paths = (
{
closed = 1;
nodes = (
"50 130 OFFCURVE",
"170 -10 OFFCURVE",
"360 -10 CURVE SMOOTH",
"551 -10 OFFCURVE",
"672 130 OFFCURVE",
"672 351 CURVE SMOOTH",
"672 410 OFFCURVE",
"663 462 OFFCURVE",
"647 508 CURVE",
"713 542 OFFCURVE",
"759 612 OFFCURVE",
"759 674 CURVE SMOOTH",
"759 706 OFFCURVE",
"740 720 OFFCURVE",
"718 720 CURVE SMOOTH",
"693 720 OFFCURVE",
"676 703 OFFCURVE",
"676 681 CURVE SMOOTH",
"676 658 OFFCURVE",
"693 640 OFFCURVE",
"721 640 CURVE",
"712 600 OFFCURVE",
"678 555 OFFCURVE",
"638 533 CURVE",
"589 645 OFFCURVE",
"491 710 OFFCURVE",
"360 710 CURVE SMOOTH",
"170 710 OFFCURVE",
"50 571 OFFCURVE",
"50 351 CURVE SMOOTH"
);
},
{
closed = 1;
nodes = (
"89 552 OFFCURVE",
"194 679 OFFCURVE",
"360 679 CURVE SMOOTH",
"527 679 OFFCURVE",
"633 552 OFFCURVE",
"633 351 CURVE SMOOTH",
"633 149 OFFCURVE",
"527 21 OFFCURVE",
"360 21 CURVE SMOOTH",
"194 21 OFFCURVE",
"89 149 OFFCURVE",
"89 351 CURVE SMOOTH"
);
},
{
closed = 1;
nodes = (
"319 -117 OFFCURVE",
"337 -135 OFFCURVE",
"361 -135 CURVE SMOOTH",
"385 -135 OFFCURVE",
"403 -117 OFFCURVE",
"403 -93 CURVE SMOOTH",
"403 -69 OFFCURVE",
"385 -51 OFFCURVE",
"361 -51 CURVE SMOOTH",
"337 -51 OFFCURVE",
"319 -69 OFFCURVE",
"319 -93 CURVE SMOOTH"
);
}
);
width = 769;
}
);
leftKerningGroup = O;
note = Ohorndotbelow;
rightKerningGroup = O;
unicode = 1EE2;
},
{
glyphname = Ohorngrave;
lastChange = "2018-03-13 07:04:01 +0000";
layers = (
{
anchors = (
{
name = bottom;
position = "{361, 0}";
},
{
name = center;
position = "{361, 350}";
},
{
name = ogonek;
position = "{650, 10}";
},
{
name = top;
position = "{310, 890}";
},
{
name = topleft;
position = "{20, 700}";
},
{
name = topright;
position = "{623, 510}";
}
);
layerId = "A03BEFF0-B1C9-4D5E-A067-C5184F278B10";
paths = (
{
closed = 1;
nodes = (
"50 130 OFFCURVE",
"170 -10 OFFCURVE",
"360 -10 CURVE SMOOTH",
"551 -10 OFFCURVE",
"672 130 OFFCURVE",
"672 351 CURVE SMOOTH",
"672 410 OFFCURVE",
"663 462 OFFCURVE",
"647 508 CURVE",
"713 542 OFFCURVE",
"759 612 OFFCURVE",
"759 674 CURVE SMOOTH",
"759 706 OFFCURVE",
"740 720 OFFCURVE",
"718 720 CURVE SMOOTH",
"693 720 OFFCURVE",
"676 703 OFFCURVE",
"676 681 CURVE SMOOTH",
"676 658 OFFCURVE",
"693 640 OFFCURVE",
"721 640 CURVE",
"712 600 OFFCURVE",
"678 555 OFFCURVE",
"638 533 CURVE",
"589 645 OFFCURVE",
"491 710 OFFCURVE",
"360 710 CURVE SMOOTH",
"170 710 OFFCURVE",
"50 571 OFFCURVE",
"50 351 CURVE SMOOTH"
);
},
{
closed = 1;
nodes = (
"89 552 OFFCURVE",
"194 679 OFFCURVE",
"360 679 CURVE SMOOTH",
"527 679 OFFCURVE",
"633 552 OFFCURVE",
"633 351 CURVE SMOOTH",
"633 149 OFFCURVE",
"527 21 OFFCURVE",
"360 21 CURVE SMOOTH",
"194 21 OFFCURVE",
"89 149 OFFCURVE",
"89 351 CURVE SMOOTH"
);
},
{
closed = 1;
nodes = (
"381 752 LINE",
"397 752 LINE",
"332 890 LINE",
"288 890 LINE"
);
}
);
width = 769;
}
);
leftKerningGroup = O;
note = Ohorngrave;
rightKerningGroup = O;
unicode = 1EDC;
},
{
glyphname = Ohornhookabove;
lastChange = "2018-03-13 07:04:01 +0000";
layers = (
{
anchors = (
{
name = bottom;
position = "{361, 0}";
},
{
name = center;
position = "{361, 350}";
},
{
name = ogonek;
position = "{650, 10}";
},
{
name = top;
position = "{369, 917}";
},
{
name = topleft;
position = "{20, 700}";
},
{
name = topright;
position = "{623, 510}";
}
);
layerId = "A03BEFF0-B1C9-4D5E-A067-C5184F278B10";
paths = (
{
closed = 1;
nodes = (
"50 130 OFFCURVE",
"170 -10 OFFCURVE",
"360 -10 CURVE SMOOTH",
"551 -10 OFFCURVE",
"672 130 OFFCURVE",
"672 351 CURVE SMOOTH",
"672 410 OFFCURVE",
"663 462 OFFCURVE",
"647 508 CURVE",
"713 542 OFFCURVE",
"759 612 OFFCURVE",
"759 674 CURVE SMOOTH",
"759 706 OFFCURVE",
"740 720 OFFCURVE",
"718 720 CURVE SMOOTH",
"693 720 OFFCURVE",
"676 703 OFFCURVE",
"676 681 CURVE SMOOTH",
"676 658 OFFCURVE",
"693 640 OFFCURVE",
"721 640 CURVE",
"712 600 OFFCURVE",
"678 555 OFFCURVE",
"638 533 CURVE",
"589 645 OFFCURVE",
"491 710 OFFCURVE",
"360 710 CURVE SMOOTH",
"170 710 OFFCURVE",
"50 571 OFFCURVE",
"50 351 CURVE SMOOTH"
);
},
{
closed = 1;
nodes = (
"89 552 OFFCURVE",
"194 679 OFFCURVE",
"360 679 CURVE SMOOTH",
"527 679 OFFCURVE",
"633 552 OFFCURVE",
"633 351 CURVE SMOOTH",
"633 149 OFFCURVE",
"527 21 OFFCURVE",
"360 21 CURVE SMOOTH",
"194 21 OFFCURVE",
"89 149 OFFCURVE",
"89 351 CURVE SMOOTH"
);
},
{
closed = 1;
nodes = (
"327 883 OFFCURVE",
"340 887 OFFCURVE",
"354 887 CURVE SMOOTH",
"382 887 OFFCURVE",
"399 873 OFFCURVE",
"399 847 CURVE SMOOTH",
"399 821 OFFCURVE",
"383 786 OFFCURVE",
"346 752 CURVE",
"371 752 LINE",
"415 781 OFFCURVE",
"439 821 OFFCURVE",
"439 857 CURVE SMOOTH",
"439 896 OFFCURVE",
"412 917 OFFCURVE",
"369 917 CURVE SMOOTH",
"349 917 OFFCURVE",
"330 912 OFFCURVE",
"313 905 CURVE",
"313 877 LINE"
);
}
);
width = 769;
}
);
leftKerningGroup = O;
note = Ohornhookabove;
rightKerningGroup = O;
unicode = 1EDE;
},
{
glyphname = Ohorntilde;
lastChange = "2018-03-13 07:04:01 +0000";
layers = (
{
anchors = (
{
name = bottom;
position = "{361, 0}";
},
{
name = center;
position = "{361, 350}";
},
{
name = ogonek;
position = "{650, 10}";
},
{
name = top;
position = "{361, 858}";
},
{
name = topleft;
position = "{20, 700}";
},
{
name = topright;
position = "{623, 510}";
}
);
layerId = "A03BEFF0-B1C9-4D5E-A067-C5184F278B10";
paths = (
{
closed = 1;
nodes = (
"50 130 OFFCURVE",
"170 -10 OFFCURVE",
"360 -10 CURVE SMOOTH",
"551 -10 OFFCURVE",
"672 130 OFFCURVE",
"672 351 CURVE SMOOTH",
"672 410 OFFCURVE",
"663 462 OFFCURVE",
"647 508 CURVE",
"713 542 OFFCURVE",
"759 612 OFFCURVE",
"759 674 CURVE SMOOTH",
"759 706 OFFCURVE",
"740 720 OFFCURVE",
"718 720 CURVE SMOOTH",
"693 720 OFFCURVE",
"676 703 OFFCURVE",
"676 681 CURVE SMOOTH",
"676 658 OFFCURVE",
"693 640 OFFCURVE",
"721 640 CURVE",
"712 600 OFFCURVE",
"678 555 OFFCURVE",
"638 533 CURVE",
"589 645 OFFCURVE",
"491 710 OFFCURVE",
"360 710 CURVE SMOOTH",
"170 710 OFFCURVE",
"50 571 OFFCURVE",
"50 351 CURVE SMOOTH"
);
},
{
closed = 1;
nodes = (
"89 552 OFFCURVE",
"194 679 OFFCURVE",
"360 679 CURVE SMOOTH",
"527 679 OFFCURVE",
"633 552 OFFCURVE",
"633 351 CURVE SMOOTH",
"633 149 OFFCURVE",
"527 21 OFFCURVE",
"360 21 CURVE SMOOTH",
"194 21 OFFCURVE",
"89 149 OFFCURVE",
"89 351 CURVE SMOOTH"
);
},
{
closed = 1;
nodes = (
"242 752 LINE",
"248 798 OFFCURVE",
"268 824 OFFCURVE",
"294 824 CURVE SMOOTH",
"336 824 OFFCURVE",
"364 752 OFFCURVE",
"426 752 CURVE SMOOTH",
"472 752 OFFCURVE",
"504 793 OFFCURVE",
"508 858 CURVE",
"480 858 LINE",
"474 812 OFFCURVE",
"452 786 OFFCURVE",
"426 786 CURVE SMOOTH",
"384 786 OFFCURVE",
"356 858 OFFCURVE",
"294 858 CURVE SMOOTH",
"248 858 OFFCURVE",
"219 817 OFFCURVE",
"214 752 CURVE"
);
}
);
width = 769;
}
);
leftKerningGroup = O;
note = Ohorntilde;
rightKerningGroup = O;
unicode = 1EE0;
},
{
glyphname = Ohungarumlaut;
layers = (
{
anchors = (
{
name = bottom;
position = "{361, 0}";
},
{
name = center;
position = "{361, 350}";
},
{
name = ogonek;
position = "{650, 10}";
},
{
name = top;
position = "{420, 890}";
},
{
name = topleft;
position = "{20, 700}";
},
{
name = topright;
position = "{623, 510}";
}
);
layerId = "A03BEFF0-B1C9-4D5E-A067-C5184F278B10";
paths = (
{
closed = 1;
nodes = (
"50 130 OFFCURVE",
"170 -10 OFFCURVE",
"360 -10 CURVE SMOOTH",
"551 -10 OFFCURVE",
"672 130 OFFCURVE",
"672 351 CURVE SMOOTH",
"672 571 OFFCURVE",
"551 710 OFFCURVE",
"360 710 CURVE SMOOTH",
"170 710 OFFCURVE",
"50 571 OFFCURVE",
"50 351 CURVE SMOOTH"
);
},
{
closed = 1;
nodes = (
"89 552 OFFCURVE",
"194 679 OFFCURVE",
"360 679 CURVE SMOOTH",
"527 679 OFFCURVE",
"633 552 OFFCURVE",
"633 351 CURVE SMOOTH",
"633 149 OFFCURVE",
"527 21 OFFCURVE",
"360 21 CURVE SMOOTH",
"194 21 OFFCURVE",
"89 149 OFFCURVE",
"89 351 CURVE SMOOTH"
);
},
{
closed = 1;
nodes = (
"317 752 LINE",
"390 890 LINE",
"346 890 LINE",
"301 752 LINE"
);
},
{
closed = 1;
nodes = (
"421 752 LINE",
"494 890 LINE",
"450 890 LINE",
"405 752 LINE"
);
}
);
width = 722;
}
);
leftKerningGroup = O;
note = Ohungarumlaut;
rightKerningGroup = O;
unicode = 0150;
},
{
glyphname = Omacron;
layers = (
{
anchors = (
{
name = bottom;
position = "{361, 0}";
},
{
name = center;
position = "{361, 350}";
},
{
name = ogonek;
position = "{650, 10}";
},
{
name = top;
position = "{361, 790}";
},
{
name = topleft;
position = "{20, 700}";
},
{
name = topright;
position = "{623, 510}";
}
);
layerId = "A03BEFF0-B1C9-4D5E-A067-C5184F278B10";
paths = (
{
closed = 1;
nodes = (
"50 130 OFFCURVE",
"170 -10 OFFCURVE",
"360 -10 CURVE SMOOTH",
"551 -10 OFFCURVE",
"672 130 OFFCURVE",
"672 351 CURVE SMOOTH",
"672 571 OFFCURVE",
"551 710 OFFCURVE",
"360 710 CURVE SMOOTH",
"170 710 OFFCURVE",
"50 571 OFFCURVE",
"50 351 CURVE SMOOTH"
);
},
{
closed = 1;
nodes = (
"89 552 OFFCURVE",
"194 679 OFFCURVE",
"360 679 CURVE SMOOTH",
"527 679 OFFCURVE",
"633 552 OFFCURVE",
"633 351 CURVE SMOOTH",
"633 149 OFFCURVE",
"527 21 OFFCURVE",
"360 21 CURVE SMOOTH",
"194 21 OFFCURVE",
"89 149 OFFCURVE",
"89 351 CURVE SMOOTH"
);
},
{
closed = 1;
nodes = (
"513 760 LINE",
"513 790 LINE",
"209 790 LINE",
"209 760 LINE"
);
}
);
width = 722;
}
);
leftKerningGroup = O;
note = Omacron;
rightKerningGroup = O;
unicode = 014C;
},
{
glyphname = Oslash;
lastChange = "2018-03-13 07:04:01 +0000";
layers = (
{
anchors = (
{
name = bottom;
position = "{361, 0}";
},
{
name = center;
position = "{361, 350}";
},
{
name = ogonek;
position = "{650, 10}";
},
{
name = top;
position = "{361, 700}";
},
{
name = topleft;
position = "{20, 700}";
},
{
name = topright;
position = "{623, 510}";
}
);
layerId = "A03BEFF0-B1C9-4D5E-A067-C5184F278B10";
paths = (
{
closed = 1;
nodes = (
"50 212 OFFCURVE",
"97 106 OFFCURVE",
"179 45 CURVE",
"123 -60 LINE",
"162 -60 LINE",
"208 27 LINE",
"252 3 OFFCURVE",
"303 -10 OFFCURVE",
"360 -10 CURVE SMOOTH",
"551 -10 OFFCURVE",
"672 130 OFFCURVE",
"672 351 CURVE SMOOTH",
"672 488 OFFCURVE",
"625 594 OFFCURVE",
"543 654 CURVE",
"599 760 LINE",
"560 760 LINE",
"514 673 LINE",
"470 697 OFFCURVE",
"418 710 OFFCURVE",
"360 710 CURVE SMOOTH",
"170 710 OFFCURVE",
"50 571 OFFCURVE",
"50 351 CURVE SMOOTH"
);
},
{
closed = 1;
nodes = (
"89 552 OFFCURVE",
"194 679 OFFCURVE",
"360 679 CURVE SMOOTH",
"412 679 OFFCURVE",
"459 667 OFFCURVE",
"498 643 CURVE",
"196 77 LINE",
"128 133 OFFCURVE",
"89 228 OFFCURVE",
"89 351 CURVE SMOOTH"
);
},
{
closed = 1;
nodes = (
"526 623 LINE",
"594 568 OFFCURVE",
"633 473 OFFCURVE",
"633 351 CURVE SMOOTH",
"633 149 OFFCURVE",
"527 21 OFFCURVE",
"360 21 CURVE SMOOTH",
"308 21 OFFCURVE",
"263 33 OFFCURVE",
"224 57 CURVE"
);
}
);
width = 722;
}
);
leftMetricsKey = O;
note = Oslash;
rightMetricsKey = O;
unicode = 00D8;
},
{
glyphname = Oslashacute;
lastChange = "2018-03-13 07:04:01 +0000";
layers = (
{
anchors = (
{
name = bottom;
position = "{361, 0}";
},
{
name = center;
position = "{361, 350}";
},
{
name = ogonek;
position = "{650, 10}";
},
{
name = top;
position = "{412, 890}";
},
{
name = topleft;
position = "{20, 700}";
},
{
name = topright;
position = "{623, 510}";
}
);
layerId = "A03BEFF0-B1C9-4D5E-A067-C5184F278B10";
paths = (
{
closed = 1;
nodes = (
"50 212 OFFCURVE",
"97 106 OFFCURVE",
"179 45 CURVE",
"123 -60 LINE",
"162 -60 LINE",
"208 27 LINE",
"252 3 OFFCURVE",
"303 -10 OFFCURVE",
"360 -10 CURVE SMOOTH",
"551 -10 OFFCURVE",
"672 130 OFFCURVE",
"672 351 CURVE SMOOTH",
"672 488 OFFCURVE",
"625 594 OFFCURVE",
"543 654 CURVE",
"599 760 LINE",
"560 760 LINE",
"514 673 LINE",
"470 697 OFFCURVE",
"418 710 OFFCURVE",
"360 710 CURVE SMOOTH",
"170 710 OFFCURVE",
"50 571 OFFCURVE",
"50 351 CURVE SMOOTH"
);
},
{
closed = 1;
nodes = (
"89 552 OFFCURVE",
"194 679 OFFCURVE",
"360 679 CURVE SMOOTH",
"412 679 OFFCURVE",
"459 667 OFFCURVE",
"498 643 CURVE",
"196 77 LINE",
"128 133 OFFCURVE",
"89 228 OFFCURVE",
"89 351 CURVE SMOOTH"
);
},
{
closed = 1;
nodes = (
"526 623 LINE",
"594 568 OFFCURVE",
"633 473 OFFCURVE",
"633 351 CURVE SMOOTH",
"633 149 OFFCURVE",
"527 21 OFFCURVE",
"360 21 CURVE SMOOTH",
"308 21 OFFCURVE",
"263 33 OFFCURVE",
"224 57 CURVE"
);
},
{
closed = 1;
nodes = (
"341 752 LINE",
"434 890 LINE",
"390 890 LINE",
"325 752 LINE"
);
}
);
width = 722;
}
);
leftKerningGroup = O;
note = Oslashacute;
rightKerningGroup = O;
unicode = 01FE;
},
{
glyphname = Otilde;
layers = (
{
anchors = (
{
name = bottom;
position = "{361, 0}";
},
{
name = center;
position = "{361, 350}";
},
{
name = ogonek;
position = "{650, 10}";
},
{
name = top;
position = "{361, 858}";
},
{
name = topleft;
position = "{20, 700}";
},
{
name = topright;
position = "{623, 510}";
}
);
layerId = "A03BEFF0-B1C9-4D5E-A067-C5184F278B10";
paths = (
{
closed = 1;
nodes = (
"50 130 OFFCURVE",
"170 -10 OFFCURVE",
"360 -10 CURVE SMOOTH",
"551 -10 OFFCURVE",
"672 130 OFFCURVE",
"672 351 CURVE SMOOTH",
"672 571 OFFCURVE",
"551 710 OFFCURVE",
"360 710 CURVE SMOOTH",
"170 710 OFFCURVE",
"50 571 OFFCURVE",
"50 351 CURVE SMOOTH"
);
},
{
closed = 1;
nodes = (
"89 552 OFFCURVE",
"194 679 OFFCURVE",
"360 679 CURVE SMOOTH",
"527 679 OFFCURVE",
"633 552 OFFCURVE",
"633 351 CURVE SMOOTH",
"633 149 OFFCURVE",
"527 21 OFFCURVE",
"360 21 CURVE SMOOTH",
"194 21 OFFCURVE",
"89 149 OFFCURVE",
"89 351 CURVE SMOOTH"
);
},
{
closed = 1;
nodes = (
"242 752 LINE",
"248 798 OFFCURVE",
"268 824 OFFCURVE",
"294 824 CURVE SMOOTH",
"336 824 OFFCURVE",
"364 752 OFFCURVE",
"426 752 CURVE SMOOTH",
"472 752 OFFCURVE",
"504 793 OFFCURVE",
"508 858 CURVE",
"480 858 LINE",
"474 812 OFFCURVE",
"452 786 OFFCURVE",
"426 786 CURVE SMOOTH",
"384 786 OFFCURVE",
"356 858 OFFCURVE",
"294 858 CURVE SMOOTH",
"248 858 OFFCURVE",
"219 817 OFFCURVE",
"214 752 CURVE"
);
}
);
width = 722;
}
);
leftKerningGroup = O;
note = Otilde;
rightKerningGroup = O;
unicode = 00D5;
},
{
glyphname = OE;
layers = (
{
anchors = (
{
name = bottom;
position = "{527, 0}";
},
{
name = top;
position = "{527, 700}";
}
);
layerId = "A03BEFF0-B1C9-4D5E-A067-C5184F278B10";
paths = (
{
closed = 1;
nodes = (
"50 130 OFFCURVE",
"170 -10 OFFCURVE",
"360 -10 CURVE SMOOTH",
"489 -10 OFFCURVE",
"587 54 OFFCURVE",
"636 164 CURVE",
"635 91 OFFCURVE",
"628 50 OFFCURVE",
"610 13 CURVE",
"616 0 LINE",
"983 0 LINE SMOOTH",
"1001 0 OFFCURVE",
"1012 7 OFFCURVE",
"1012 20 CURVE SMOOTH",
"1012 24 OFFCURVE",
"1011 28 OFFCURVE",
"1009 32 CURVE",
"656 32 LINE",
"672 74 OFFCURVE",
"674 136 OFFCURVE",
"674 188 CURVE SMOOTH",
"674 355 LINE",
"935 355 LINE SMOOTH",
"953 355 OFFCURVE",
"964 361 OFFCURVE",
"964 374 CURVE SMOOTH",
"964 378 OFFCURVE",
"963 382 OFFCURVE",
"961 386 CURVE",
"674 386 LINE",
"674 514 LINE SMOOTH",
"674 566 OFFCURVE",
"672 626 OFFCURVE",
"656 668 CURVE",
"967 668 LINE SMOOTH",
"985 668 OFFCURVE",
"996 675 OFFCURVE",
"996 688 CURVE SMOOTH",
"996 692 OFFCURVE",
"995 696 OFFCURVE",
"993 700 CURVE",
"616 700 LINE",
"610 687 LINE",
"628 650 OFFCURVE",
"635 610 OFFCURVE",
"636 537 CURVE",
"587 646 OFFCURVE",
"489 710 OFFCURVE",
"360 710 CURVE SMOOTH",
"170 710 OFFCURVE",
"50 571 OFFCURVE",
"50 351 CURVE SMOOTH"
);
},
{
closed = 1;
nodes = (
"89 552 OFFCURVE",
"194 679 OFFCURVE",
"360 679 CURVE SMOOTH",
"527 679 OFFCURVE",
"633 552 OFFCURVE",
"633 351 CURVE SMOOTH",
"633 149 OFFCURVE",
"527 21 OFFCURVE",
"360 21 CURVE SMOOTH",
"194 21 OFFCURVE",
"89 149 OFFCURVE",
"89 351 CURVE SMOOTH"
);
}
);
width = 1046;
}
);
leftMetricsKey = O;
note = OE;
rightMetricsKey = E;
unicode = 0152;
},
{
glyphname = P;
lastChange = "2018-03-13 07:04:01 +0000";
layers = (
{
anchors = (
{
name = bottom;
position = "{107, 0}";
},
{
name = top;
position = "{261, 700}";
}
);
layerId = "A03BEFF0-B1C9-4D5E-A067-C5184F278B10";
paths = (
{
closed = 1;
nodes = (
"82 650 OFFCURVE",
"88 602 OFFCURVE",
"88 514 CURVE SMOOTH",
"88 0 LINE",
"93 -3 OFFCURVE",
"97 -4 OFFCURVE",
"101 -4 CURVE SMOOTH",
"118 -4 OFFCURVE",
"126 9 OFFCURVE",
"126 31 CURVE SMOOTH",
"126 315 LINE",
"237 315 LINE SMOOTH",
"392 315 OFFCURVE",
"490 392 OFFCURVE",
"490 512 CURVE SMOOTH",
"490 633 OFFCURVE",
"392 710 OFFCURVE",
"237 710 CURVE SMOOTH",
"177 710 OFFCURVE",
"124 704 OFFCURVE",
"68 704 CURVE",
"62 691 LINE"
);
},
{
closed = 1;
nodes = (
"145 673 OFFCURVE",
"212 678 OFFCURVE",
"253 678 CURVE SMOOTH",
"374 678 OFFCURVE",
"451 613 OFFCURVE",
"451 512 CURVE SMOOTH",
"451 411 OFFCURVE",
"374 346 OFFCURVE",
"253 346 CURVE SMOOTH",
"126 346 LINE",
"126 514 LINE SMOOTH",
"126 568 OFFCURVE",
"123 630 OFFCURVE",
"107 672 CURVE"
);
}
);
width = 522;
}
);
leftKerningGroup = F;
leftMetricsKey = F;
note = P;
rightKerningGroup = P;
unicode = 0050;
},
{
glyphname = Thorn;
layers = (
{
layerId = "A03BEFF0-B1C9-4D5E-A067-C5184F278B10";
paths = (
{
closed = 1;
nodes = (
"89 -3 OFFCURVE",
"93 -4 OFFCURVE",
"97 -4 CURVE SMOOTH",
"114 -4 OFFCURVE",
"122 9 OFFCURVE",
"122 31 CURVE SMOOTH",
"122 192 LINE",
"259 192 LINE SMOOTH",
"395 192 OFFCURVE",
"482 263 OFFCURVE",
"482 376 CURVE SMOOTH",
"482 489 OFFCURVE",
"395 560 OFFCURVE",
"259 560 CURVE SMOOTH",
"122 560 LINE",
"122 716 LINE",
"117 719 OFFCURVE",
"113 720 OFFCURVE",
"109 720 CURVE SMOOTH",
"92 720 OFFCURVE",
"84 707 OFFCURVE",
"84 685 CURVE SMOOTH",
"84 0 LINE"
);
},
{
closed = 1;
nodes = (
"122 529 LINE",
"275 529 LINE SMOOTH",
"378 529 OFFCURVE",
"443 470 OFFCURVE",
"443 376 CURVE SMOOTH",
"443 282 OFFCURVE",
"378 223 OFFCURVE",
"275 223 CURVE SMOOTH",
"122 223 LINE"
);
}
);
width = 514;
}
);
leftMetricsKey = H;
note = Thorn;
rightMetricsKey = P;
unicode = 00DE;
},
{
glyphname = Q;
lastChange = "2018-03-13 07:04:01 +0000";
layers = (
{
anchors = (
{
name = bottom;
position = "{361, -150}";
},
{
name = top;
position = "{361, 700}";
}
);
layerId = "A03BEFF0-B1C9-4D5E-A067-C5184F278B10";
paths = (
{
closed = 1;
nodes = (
"50 207 OFFCURVE",
"101 97 OFFCURVE",
"189 38 CURVE",
"394 -111 OFFCURVE",
"484 -150 OFFCURVE",
"572 -150 CURVE SMOOTH",
"600 -150 OFFCURVE",
"618 -141 OFFCURVE",
"618 -120 CURVE",
"515 -120 OFFCURVE",
"463 -102 OFFCURVE",
"303 -5 CURVE",
"321 -8 OFFCURVE",
"340 -10 OFFCURVE",
"360 -10 CURVE SMOOTH",
"551 -10 OFFCURVE",
"672 130 OFFCURVE",
"672 351 CURVE SMOOTH",
"672 571 OFFCURVE",
"551 710 OFFCURVE",
"360 710 CURVE SMOOTH",
"170 710 OFFCURVE",
"50 571 OFFCURVE",
"50 351 CURVE SMOOTH"
);
},
{
closed = 1;
nodes = (
"89 552 OFFCURVE",
"194 679 OFFCURVE",
"360 679 CURVE SMOOTH",
"527 679 OFFCURVE",
"633 552 OFFCURVE",
"633 351 CURVE SMOOTH",
"633 149 OFFCURVE",
"527 21 OFFCURVE",
"360 21 CURVE SMOOTH",
"194 21 OFFCURVE",
"89 149 OFFCURVE",
"89 351 CURVE SMOOTH"
);
}
);
width = 722;
}
);
leftKerningGroup = O;
leftMetricsKey = O;
note = Q;
rightKerningGroup = O;
rightMetricsKey = O;
unicode = 0051;
},
{
glyphname = R;
lastChange = "2018-03-13 07:04:01 +0000";
layers = (
{
anchors = (
{
name = bottom;
position = "{279, 0}";
},
{
name = top;
position = "{249, 700}";
}
);
layerId = "A03BEFF0-B1C9-4D5E-A067-C5184F278B10";
paths = (
{
closed = 1;
nodes = (
"82 650 OFFCURVE",
"88 602 OFFCURVE",
"88 514 CURVE SMOOTH",
"88 0 LINE",
"93 -3 OFFCURVE",
"97 -4 OFFCURVE",
"101 -4 CURVE SMOOTH",
"118 -4 OFFCURVE",
"126 9 OFFCURVE",
"126 31 CURVE SMOOTH",
"126 331 LINE",
"237 331 LINE SMOOTH",
"249 331 OFFCURVE",
"261 332 OFFCURVE",
"273 333 CURVE",
"324 307 OFFCURVE",
"353 262 OFFCURVE",
"401 154 CURVE SMOOTH",
"466 8 OFFCURVE",
"482 -4 OFFCURVE",
"506 -4 CURVE SMOOTH",
"516 -4 OFFCURVE",
"524 -2 OFFCURVE",
"531 1 CURVE",
"531 7 LINE",
"509 20 OFFCURVE",
"488 52 OFFCURVE",
"433 172 CURVE SMOOTH",
"388 270 OFFCURVE",
"360 317 OFFCURVE",
"320 340 CURVE",
"421 363 OFFCURVE",
"482 429 OFFCURVE",
"482 523 CURVE SMOOTH",
"482 637 OFFCURVE",
"387 710 OFFCURVE",
"237 710 CURVE SMOOTH",
"177 710 OFFCURVE",
"124 704 OFFCURVE",
"68 704 CURVE",
"62 691 LINE"
);
},
{
closed = 1;
nodes = (
"145 673 OFFCURVE",
"212 678 OFFCURVE",
"253 678 CURVE SMOOTH",
"369 678 OFFCURVE",
"443 618 OFFCURVE",
"443 523 CURVE SMOOTH",
"443 425 OFFCURVE",
"369 362 OFFCURVE",
"253 362 CURVE SMOOTH",
"126 362 LINE",
"126 514 LINE SMOOTH",
"126 568 OFFCURVE",
"123 630 OFFCURVE",
"107 672 CURVE"
);
}
);
width = 557;
}
);
leftKerningGroup = F;
leftMetricsKey = F;
note = R;
rightKerningGroup = R;
unicode = 0052;
},
{
glyphname = Racute;
lastChange = "2018-03-13 07:04:01 +0000";
layers = (
{
anchors = (
{
name = bottom;
position = "{279, 0}";
},
{
name = top;
position = "{300, 890}";
}
);
layerId = "A03BEFF0-B1C9-4D5E-A067-C5184F278B10";
paths = (
{
closed = 1;
nodes = (
"82 650 OFFCURVE",
"88 602 OFFCURVE",
"88 514 CURVE SMOOTH",
"88 0 LINE",
"93 -3 OFFCURVE",
"97 -4 OFFCURVE",
"101 -4 CURVE SMOOTH",
"118 -4 OFFCURVE",
"126 9 OFFCURVE",
"126 31 CURVE SMOOTH",
"126 331 LINE",
"237 331 LINE SMOOTH",
"249 331 OFFCURVE",
"261 332 OFFCURVE",
"273 333 CURVE",
"324 307 OFFCURVE",
"353 262 OFFCURVE",
"401 154 CURVE SMOOTH",
"466 8 OFFCURVE",
"482 -4 OFFCURVE",
"506 -4 CURVE SMOOTH",
"516 -4 OFFCURVE",
"524 -2 OFFCURVE",
"531 1 CURVE",
"531 7 LINE",
"509 20 OFFCURVE",
"488 52 OFFCURVE",
"433 172 CURVE SMOOTH",
"388 270 OFFCURVE",
"360 317 OFFCURVE",
"320 340 CURVE",
"421 363 OFFCURVE",
"482 429 OFFCURVE",
"482 523 CURVE SMOOTH",
"482 637 OFFCURVE",
"387 710 OFFCURVE",
"237 710 CURVE SMOOTH",
"177 710 OFFCURVE",
"124 704 OFFCURVE",
"68 704 CURVE",
"62 691 LINE"
);
},
{
closed = 1;
nodes = (
"145 673 OFFCURVE",
"212 678 OFFCURVE",
"253 678 CURVE SMOOTH",
"369 678 OFFCURVE",
"443 618 OFFCURVE",
"443 523 CURVE SMOOTH",
"443 425 OFFCURVE",
"369 362 OFFCURVE",
"253 362 CURVE SMOOTH",
"126 362 LINE",
"126 514 LINE SMOOTH",
"126 568 OFFCURVE",
"123 630 OFFCURVE",
"107 672 CURVE"
);
},
{
closed = 1;
nodes = (
"229 752 LINE",
"322 890 LINE",
"278 890 LINE",
"213 752 LINE"
);
}
);
width = 557;
}
);
note = Racute;
rightKerningGroup = R;
unicode = 0154;
},
{
glyphname = Rcaron;
lastChange = "2018-03-13 07:04:01 +0000";
layers = (
{
anchors = (
{
name = bottom;
position = "{279, 0}";
},
{
name = top;
position = "{249, 890}";
}
);
layerId = "A03BEFF0-B1C9-4D5E-A067-C5184F278B10";
paths = (
{
closed = 1;
nodes = (
"82 650 OFFCURVE",
"88 602 OFFCURVE",
"88 514 CURVE SMOOTH",
"88 0 LINE",
"93 -3 OFFCURVE",
"97 -4 OFFCURVE",
"101 -4 CURVE SMOOTH",
"118 -4 OFFCURVE",
"126 9 OFFCURVE",
"126 31 CURVE SMOOTH",
"126 331 LINE",
"237 331 LINE SMOOTH",
"249 331 OFFCURVE",
"261 332 OFFCURVE",
"273 333 CURVE",
"324 307 OFFCURVE",
"353 262 OFFCURVE",
"401 154 CURVE SMOOTH",
"466 8 OFFCURVE",
"482 -4 OFFCURVE",
"506 -4 CURVE SMOOTH",
"516 -4 OFFCURVE",
"524 -2 OFFCURVE",
"531 1 CURVE",
"531 7 LINE",
"509 20 OFFCURVE",
"488 52 OFFCURVE",
"433 172 CURVE SMOOTH",
"388 270 OFFCURVE",
"360 317 OFFCURVE",
"320 340 CURVE",
"421 363 OFFCURVE",
"482 429 OFFCURVE",
"482 523 CURVE SMOOTH",
"482 637 OFFCURVE",
"387 710 OFFCURVE",
"237 710 CURVE SMOOTH",
"177 710 OFFCURVE",
"124 704 OFFCURVE",
"68 704 CURVE",
"62 691 LINE"
);
},
{
closed = 1;
nodes = (
"145 673 OFFCURVE",
"212 678 OFFCURVE",
"253 678 CURVE SMOOTH",
"369 678 OFFCURVE",
"443 618 OFFCURVE",
"443 523 CURVE SMOOTH",
"443 425 OFFCURVE",
"369 362 OFFCURVE",
"253 362 CURVE SMOOTH",
"126 362 LINE",
"126 514 LINE SMOOTH",
"126 568 OFFCURVE",
"123 630 OFFCURVE",
"107 672 CURVE"
);
},
{
closed = 1;
nodes = (
"225 752 LINE",
"273 752 LINE",
"379 890 LINE",
"363 890 LINE",
"249 792 LINE",
"135 890 LINE",
"119 890 LINE"
);
}
);
width = 557;
}
);
note = Rcaron;
rightKerningGroup = R;
unicode = 0158;
},
{
glyphname = Rcommaaccent;
lastChange = "2018-03-13 07:04:01 +0000";
layers = (
{
anchors = (
{
name = bottom;
position = "{279, -299}";
},
{
name = top;
position = "{249, 700}";
}
);
layerId = "A03BEFF0-B1C9-4D5E-A067-C5184F278B10";
paths = (
{
closed = 1;
nodes = (
"82 650 OFFCURVE",
"88 602 OFFCURVE",
"88 514 CURVE SMOOTH",
"88 0 LINE",
"93 -3 OFFCURVE",
"97 -4 OFFCURVE",
"101 -4 CURVE SMOOTH",
"118 -4 OFFCURVE",
"126 9 OFFCURVE",
"126 31 CURVE SMOOTH",
"126 331 LINE",
"237 331 LINE SMOOTH",
"249 331 OFFCURVE",
"261 332 OFFCURVE",
"273 333 CURVE",
"324 307 OFFCURVE",
"353 262 OFFCURVE",
"401 154 CURVE SMOOTH",
"466 8 OFFCURVE",
"482 -4 OFFCURVE",
"506 -4 CURVE SMOOTH",
"516 -4 OFFCURVE",
"524 -2 OFFCURVE",
"531 1 CURVE",
"531 7 LINE",
"509 20 OFFCURVE",
"488 52 OFFCURVE",
"433 172 CURVE SMOOTH",
"388 270 OFFCURVE",
"360 317 OFFCURVE",
"320 340 CURVE",
"421 363 OFFCURVE",
"482 429 OFFCURVE",
"482 523 CURVE SMOOTH",
"482 637 OFFCURVE",
"387 710 OFFCURVE",
"237 710 CURVE SMOOTH",
"177 710 OFFCURVE",
"124 704 OFFCURVE",
"68 704 CURVE",
"62 691 LINE"
);
},
{
closed = 1;
nodes = (
"145 673 OFFCURVE",
"212 678 OFFCURVE",
"253 678 CURVE SMOOTH",
"369 678 OFFCURVE",
"443 618 OFFCURVE",
"443 523 CURVE SMOOTH",
"443 425 OFFCURVE",
"369 362 OFFCURVE",
"253 362 CURVE SMOOTH",
"126 362 LINE",
"126 514 LINE SMOOTH",
"126 568 OFFCURVE",
"123 630 OFFCURVE",
"107 672 CURVE"
);
},
{
closed = 1;
nodes = (
"239 -122 OFFCURVE",
"256 -140 OFFCURVE",
"279 -140 CURVE",
"282 -163 OFFCURVE",
"262 -190 OFFCURVE",
"243 -205 CURVE",
"259 -227 LINE",
"296 -202 OFFCURVE",
"322 -151 OFFCURVE",
"322 -115 CURVE SMOOTH",
"322 -77 OFFCURVE",
"303 -60 OFFCURVE",
"279 -60 CURVE SMOOTH",
"256 -60 OFFCURVE",
"239 -77 OFFCURVE",
"239 -99 CURVE SMOOTH"
);
}
);
width = 557;
}
);
note = Rcommaaccent;
rightKerningGroup = R;
unicode = 0156;
},
{
glyphname = Rdotbelow;
lastChange = "2018-03-13 07:04:01 +0000";
layers = (
{
anchors = (
{
name = bottom;
position = "{279, -140}";
},
{
name = top;
position = "{249, 700}";
}
);
layerId = "A03BEFF0-B1C9-4D5E-A067-C5184F278B10";
paths = (
{
closed = 1;
nodes = (
"82 650 OFFCURVE",
"88 602 OFFCURVE",
"88 514 CURVE SMOOTH",
"88 0 LINE",
"93 -3 OFFCURVE",
"97 -4 OFFCURVE",
"101 -4 CURVE SMOOTH",
"118 -4 OFFCURVE",
"126 9 OFFCURVE",
"126 31 CURVE SMOOTH",
"126 331 LINE",
"237 331 LINE SMOOTH",
"249 331 OFFCURVE",
"261 332 OFFCURVE",
"273 333 CURVE",
"324 307 OFFCURVE",
"353 262 OFFCURVE",
"401 154 CURVE SMOOTH",
"466 8 OFFCURVE",
"482 -4 OFFCURVE",
"506 -4 CURVE SMOOTH",
"516 -4 OFFCURVE",
"524 -2 OFFCURVE",
"531 1 CURVE",
"531 7 LINE",
"509 20 OFFCURVE",
"488 52 OFFCURVE",
"433 172 CURVE SMOOTH",
"388 270 OFFCURVE",
"360 317 OFFCURVE",
"320 340 CURVE",
"421 363 OFFCURVE",
"482 429 OFFCURVE",
"482 523 CURVE SMOOTH",
"482 637 OFFCURVE",
"387 710 OFFCURVE",
"237 710 CURVE SMOOTH",
"177 710 OFFCURVE",
"124 704 OFFCURVE",
"68 704 CURVE",
"62 691 LINE"
);
},
{
closed = 1;
nodes = (
"145 673 OFFCURVE",
"212 678 OFFCURVE",
"253 678 CURVE SMOOTH",
"369 678 OFFCURVE",
"443 618 OFFCURVE",
"443 523 CURVE SMOOTH",
"443 425 OFFCURVE",
"369 362 OFFCURVE",
"253 362 CURVE SMOOTH",
"126 362 LINE",
"126 514 LINE SMOOTH",
"126 568 OFFCURVE",
"123 630 OFFCURVE",
"107 672 CURVE"
);
},
{
closed = 1;
nodes = (
"237 -117 OFFCURVE",
"255 -135 OFFCURVE",
"279 -135 CURVE SMOOTH",
"303 -135 OFFCURVE",
"321 -117 OFFCURVE",
"321 -93 CURVE SMOOTH",
"321 -69 OFFCURVE",
"303 -51 OFFCURVE",
"279 -51 CURVE SMOOTH",
"255 -51 OFFCURVE",
"237 -69 OFFCURVE",
"237 -93 CURVE SMOOTH"
);
}
);
width = 557;
}
);
note = Rdotbelow;
rightKerningGroup = R;
unicode = 1E5A;
},
{
glyphname = Rdotbelowmacron;
lastChange = "2018-03-13 07:04:01 +0000";
layers = (
{
anchors = (
{
name = bottom;
position = "{279, -140}";
},
{
name = top;
position = "{249, 790}";
}
);
layerId = "A03BEFF0-B1C9-4D5E-A067-C5184F278B10";
paths = (
{
closed = 1;
nodes = (
"82 650 OFFCURVE",
"88 602 OFFCURVE",
"88 514 CURVE SMOOTH",
"88 0 LINE",
"93 -3 OFFCURVE",
"97 -4 OFFCURVE",
"101 -4 CURVE SMOOTH",
"118 -4 OFFCURVE",
"126 9 OFFCURVE",
"126 31 CURVE SMOOTH",
"126 331 LINE",
"237 331 LINE SMOOTH",
"249 331 OFFCURVE",
"261 332 OFFCURVE",
"273 333 CURVE",
"324 307 OFFCURVE",
"353 262 OFFCURVE",
"401 154 CURVE SMOOTH",
"466 8 OFFCURVE",
"482 -4 OFFCURVE",
"506 -4 CURVE SMOOTH",
"516 -4 OFFCURVE",
"524 -2 OFFCURVE",
"531 1 CURVE",
"531 7 LINE",
"509 20 OFFCURVE",
"488 52 OFFCURVE",
"433 172 CURVE SMOOTH",
"388 270 OFFCURVE",
"360 317 OFFCURVE",
"320 340 CURVE",
"421 363 OFFCURVE",
"482 429 OFFCURVE",
"482 523 CURVE SMOOTH",
"482 637 OFFCURVE",
"387 710 OFFCURVE",
"237 710 CURVE SMOOTH",
"177 710 OFFCURVE",
"124 704 OFFCURVE",
"68 704 CURVE",
"62 691 LINE"
);
},
{
closed = 1;
nodes = (
"401 760 LINE",
"401 790 LINE",
"97 790 LINE",
"97 760 LINE"
);
},
{
closed = 1;
nodes = (
"145 673 OFFCURVE",
"212 678 OFFCURVE",
"253 678 CURVE SMOOTH",
"369 678 OFFCURVE",
"443 618 OFFCURVE",
"443 523 CURVE SMOOTH",
"443 425 OFFCURVE",
"369 362 OFFCURVE",
"253 362 CURVE SMOOTH",
"126 362 LINE",
"126 514 LINE SMOOTH",
"126 568 OFFCURVE",
"123 630 OFFCURVE",
"107 672 CURVE"
);
},
{
closed = 1;
nodes = (
"237 -117 OFFCURVE",
"255 -135 OFFCURVE",
"279 -135 CURVE SMOOTH",
"303 -135 OFFCURVE",
"321 -117 OFFCURVE",
"321 -93 CURVE SMOOTH",
"321 -69 OFFCURVE",
"303 -51 OFFCURVE",
"279 -51 CURVE SMOOTH",
"255 -51 OFFCURVE",
"237 -69 OFFCURVE",
"237 -93 CURVE SMOOTH"
);
}
);
width = 557;
}
);
note = Rdotbelowmacron;
rightKerningGroup = R;
unicode = 1E5C;
},
{
glyphname = Rlinebelow;
lastChange = "2018-03-13 07:04:01 +0000";
layers = (
{
anchors = (
{
name = bottom;
position = "{279, -102}";
},
{
name = top;
position = "{249, 700}";
}
);
layerId = "A03BEFF0-B1C9-4D5E-A067-C5184F278B10";
paths = (
{
closed = 1;
nodes = (
"82 650 OFFCURVE",
"88 602 OFFCURVE",
"88 514 CURVE SMOOTH",
"88 0 LINE",
"93 -3 OFFCURVE",
"97 -4 OFFCURVE",
"101 -4 CURVE SMOOTH",
"118 -4 OFFCURVE",
"126 9 OFFCURVE",
"126 31 CURVE SMOOTH",
"126 331 LINE",
"237 331 LINE SMOOTH",
"249 331 OFFCURVE",
"261 332 OFFCURVE",
"273 333 CURVE",
"324 307 OFFCURVE",
"353 262 OFFCURVE",
"401 154 CURVE SMOOTH",
"466 8 OFFCURVE",
"482 -4 OFFCURVE",
"506 -4 CURVE SMOOTH",
"516 -4 OFFCURVE",
"524 -2 OFFCURVE",
"531 1 CURVE",
"531 7 LINE",
"509 20 OFFCURVE",
"488 52 OFFCURVE",
"433 172 CURVE SMOOTH",
"388 270 OFFCURVE",
"360 317 OFFCURVE",
"320 340 CURVE",
"421 363 OFFCURVE",
"482 429 OFFCURVE",
"482 523 CURVE SMOOTH",
"482 637 OFFCURVE",
"387 710 OFFCURVE",
"237 710 CURVE SMOOTH",
"177 710 OFFCURVE",
"124 704 OFFCURVE",
"68 704 CURVE",
"62 691 LINE"
);
},
{
closed = 1;
nodes = (
"145 673 OFFCURVE",
"212 678 OFFCURVE",
"253 678 CURVE SMOOTH",
"369 678 OFFCURVE",
"443 618 OFFCURVE",
"443 523 CURVE SMOOTH",
"443 425 OFFCURVE",
"369 362 OFFCURVE",
"253 362 CURVE SMOOTH",
"126 362 LINE",
"126 514 LINE SMOOTH",
"126 568 OFFCURVE",
"123 630 OFFCURVE",
"107 672 CURVE"
);
},
{
closed = 1;
nodes = (
"431 -102 LINE",
"431 -72 LINE",
"127 -72 LINE",
"127 -102 LINE"
);
}
);
width = 557;
}
);
note = Rlinebelow;
rightKerningGroup = R;
unicode = 1E5E;
},
{
glyphname = S;
layers = (
{
anchors = (
{
name = bottom;
position = "{274, 0}";
},
{
name = top;
position = "{268, 700}";
}
);
layerId = "A03BEFF0-B1C9-4D5E-A067-C5184F278B10";
paths = (
{
closed = 1;
nodes = (
"42 62 OFFCURVE",
"128 -10 OFFCURVE",
"272 -10 CURVE SMOOTH",
"413 -10 OFFCURVE",
"492 58 OFFCURVE",
"492 180 CURVE SMOOTH",
"492 280 OFFCURVE",
"437 336 OFFCURVE",
"282 392 CURVE SMOOTH",
"151 439 OFFCURVE",
"104 481 OFFCURVE",
"104 551 CURVE SMOOTH",
"104 630 OFFCURVE",
"160 679 OFFCURVE",
"263 679 CURVE SMOOTH",
"342 679 OFFCURVE",
"409 650 OFFCURVE",
"456 600 CURVE",
"469 600 OFFCURVE",
"476 606 OFFCURVE",
"476 618 CURVE SMOOTH",
"476 638 OFFCURVE",
"390 710 OFFCURVE",
"258 710 CURVE SMOOTH",
"137 710 OFFCURVE",
"66 654 OFFCURVE",
"66 549 CURVE SMOOTH",
"66 462 OFFCURVE",
"116 410 OFFCURVE",
"256 361 CURVE SMOOTH",
"402 311 OFFCURVE",
"454 262 OFFCURVE",
"454 175 CURVE SMOOTH",
"454 78 OFFCURVE",
"390 21 OFFCURVE",
"265 21 CURVE SMOOTH",
"176 21 OFFCURVE",
"109 50 OFFCURVE",
"62 100 CURVE",
"49 100 OFFCURVE",
"42 94 OFFCURVE",
"42 82 CURVE SMOOTH"
);
}
);
width = 536;
}
);
leftKerningGroup = S;
note = S;
rightKerningGroup = S;
unicode = 0053;
},
{
glyphname = Sacute;
layers = (
{
anchors = (
{
name = bottom;
position = "{274, 0}";
},
{
name = top;
position = "{319, 890}";
}
);
layerId = "A03BEFF0-B1C9-4D5E-A067-C5184F278B10";
paths = (
{
closed = 1;
nodes = (
"42 62 OFFCURVE",
"128 -10 OFFCURVE",
"272 -10 CURVE SMOOTH",
"413 -10 OFFCURVE",
"492 58 OFFCURVE",
"492 180 CURVE SMOOTH",
"492 280 OFFCURVE",
"437 336 OFFCURVE",
"282 392 CURVE SMOOTH",
"151 439 OFFCURVE",
"104 481 OFFCURVE",
"104 551 CURVE SMOOTH",
"104 630 OFFCURVE",
"160 679 OFFCURVE",
"263 679 CURVE SMOOTH",
"342 679 OFFCURVE",
"409 650 OFFCURVE",
"456 600 CURVE",
"469 600 OFFCURVE",
"476 606 OFFCURVE",
"476 618 CURVE SMOOTH",
"476 638 OFFCURVE",
"390 710 OFFCURVE",
"258 710 CURVE SMOOTH",
"137 710 OFFCURVE",
"66 654 OFFCURVE",
"66 549 CURVE SMOOTH",
"66 462 OFFCURVE",
"116 410 OFFCURVE",
"256 361 CURVE SMOOTH",
"402 311 OFFCURVE",
"454 262 OFFCURVE",
"454 175 CURVE SMOOTH",
"454 78 OFFCURVE",
"390 21 OFFCURVE",
"265 21 CURVE SMOOTH",
"176 21 OFFCURVE",
"109 50 OFFCURVE",
"62 100 CURVE",
"49 100 OFFCURVE",
"42 94 OFFCURVE",
"42 82 CURVE SMOOTH"
);
},
{
closed = 1;
nodes = (
"248 752 LINE",
"341 890 LINE",
"297 890 LINE",
"232 752 LINE"
);
}
);
width = 536;
}
);
leftKerningGroup = S;
note = Sacute;
rightKerningGroup = S;
unicode = 015A;
},
{
glyphname = Scaron;
layers = (
{
anchors = (
{
name = bottom;
position = "{274, 0}";
},
{
name = top;
position = "{268, 890}";
}
);
layerId = "A03BEFF0-B1C9-4D5E-A067-C5184F278B10";
paths = (
{
closed = 1;
nodes = (
"42 62 OFFCURVE",
"128 -10 OFFCURVE",
"272 -10 CURVE SMOOTH",
"413 -10 OFFCURVE",
"492 58 OFFCURVE",
"492 180 CURVE SMOOTH",
"492 280 OFFCURVE",
"437 336 OFFCURVE",
"282 392 CURVE SMOOTH",
"151 439 OFFCURVE",
"104 481 OFFCURVE",
"104 551 CURVE SMOOTH",
"104 630 OFFCURVE",
"160 679 OFFCURVE",
"263 679 CURVE SMOOTH",
"342 679 OFFCURVE",
"409 650 OFFCURVE",
"456 600 CURVE",
"469 600 OFFCURVE",
"476 606 OFFCURVE",
"476 618 CURVE SMOOTH",
"476 638 OFFCURVE",
"390 710 OFFCURVE",
"258 710 CURVE SMOOTH",
"137 710 OFFCURVE",
"66 654 OFFCURVE",
"66 549 CURVE SMOOTH",
"66 462 OFFCURVE",
"116 410 OFFCURVE",
"256 361 CURVE SMOOTH",
"402 311 OFFCURVE",
"454 262 OFFCURVE",
"454 175 CURVE SMOOTH",
"454 78 OFFCURVE",
"390 21 OFFCURVE",
"265 21 CURVE SMOOTH",
"176 21 OFFCURVE",
"109 50 OFFCURVE",
"62 100 CURVE",
"49 100 OFFCURVE",
"42 94 OFFCURVE",
"42 82 CURVE SMOOTH"
);
},
{
closed = 1;
nodes = (
"244 752 LINE",
"292 752 LINE",
"398 890 LINE",
"382 890 LINE",
"268 792 LINE",
"154 890 LINE",
"138 890 LINE"
);
}
);
width = 536;
}
);
leftKerningGroup = S;
note = Scaron;
rightKerningGroup = S;
unicode = 0160;
},
{
glyphname = Scedilla;
lastChange = "2018-03-13 07:04:01 +0000";
layers = (
{
anchors = (
{
name = bottom;
position = "{247, -175}";
},
{
name = top;
position = "{268, 700}";
}
);
layerId = "A03BEFF0-B1C9-4D5E-A067-C5184F278B10";
paths = (
{
closed = 1;
nodes = (
"42 63 OFFCURVE",
"118 -1 OFFCURVE",
"246 -9 CURVE",
"197 -84 LINE",
"203 -92 LINE",
"215 -88 OFFCURVE",
"227 -86 OFFCURVE",
"241 -86 CURVE SMOOTH",
"274 -86 OFFCURVE",
"292 -97 OFFCURVE",
"292 -116 CURVE SMOOTH",
"292 -135 OFFCURVE",
"274 -145 OFFCURVE",
"241 -145 CURVE SMOOTH",
"218 -145 OFFCURVE",
"197 -140 OFFCURVE",
"176 -131 CURVE",
"176 -159 LINE",
"199 -170 OFFCURVE",
"222 -175 OFFCURVE",
"247 -175 CURVE SMOOTH",
"301 -175 OFFCURVE",
"330 -152 OFFCURVE",
"330 -116 CURVE SMOOTH",
"330 -78 OFFCURVE",
"298 -56 OFFCURVE",
"247 -56 CURVE",
"277 -10 LINE",
"415 -8 OFFCURVE",
"492 59 OFFCURVE",
"492 180 CURVE SMOOTH",
"492 280 OFFCURVE",
"437 336 OFFCURVE",
"282 392 CURVE SMOOTH",
"151 439 OFFCURVE",
"104 481 OFFCURVE",
"104 551 CURVE SMOOTH",
"104 630 OFFCURVE",
"160 679 OFFCURVE",
"263 679 CURVE SMOOTH",
"342 679 OFFCURVE",
"409 650 OFFCURVE",
"456 600 CURVE",
"469 600 OFFCURVE",
"476 606 OFFCURVE",
"476 618 CURVE SMOOTH",
"476 638 OFFCURVE",
"390 710 OFFCURVE",
"258 710 CURVE SMOOTH",
"137 710 OFFCURVE",
"66 654 OFFCURVE",
"66 549 CURVE SMOOTH",
"66 462 OFFCURVE",
"116 410 OFFCURVE",
"256 361 CURVE SMOOTH",
"402 311 OFFCURVE",
"454 262 OFFCURVE",
"454 175 CURVE SMOOTH",
"454 78 OFFCURVE",
"390 21 OFFCURVE",
"265 21 CURVE SMOOTH",
"176 21 OFFCURVE",
"109 50 OFFCURVE",
"62 100 CURVE",
"49 100 OFFCURVE",
"42 94 OFFCURVE",
"42 82 CURVE SMOOTH"
);
}
);
width = 536;
}
);
leftKerningGroup = S;
note = Scedilla;
rightKerningGroup = S;
unicode = 015E;
},
{
glyphname = Scircumflex;
layers = (
{
anchors = (
{
name = bottom;
position = "{274, 0}";
},
{
name = top;
position = "{268, 890}";
}
);
layerId = "A03BEFF0-B1C9-4D5E-A067-C5184F278B10";
paths = (
{
closed = 1;
nodes = (
"42 62 OFFCURVE",
"128 -10 OFFCURVE",
"272 -10 CURVE SMOOTH",
"413 -10 OFFCURVE",
"492 58 OFFCURVE",
"492 180 CURVE SMOOTH",
"492 280 OFFCURVE",
"437 336 OFFCURVE",
"282 392 CURVE SMOOTH",
"151 439 OFFCURVE",
"104 481 OFFCURVE",
"104 551 CURVE SMOOTH",
"104 630 OFFCURVE",
"160 679 OFFCURVE",
"263 679 CURVE SMOOTH",
"342 679 OFFCURVE",
"409 650 OFFCURVE",
"456 600 CURVE",
"469 600 OFFCURVE",
"476 606 OFFCURVE",
"476 618 CURVE SMOOTH",
"476 638 OFFCURVE",
"390 710 OFFCURVE",
"258 710 CURVE SMOOTH",
"137 710 OFFCURVE",
"66 654 OFFCURVE",
"66 549 CURVE SMOOTH",
"66 462 OFFCURVE",
"116 410 OFFCURVE",
"256 361 CURVE SMOOTH",
"402 311 OFFCURVE",
"454 262 OFFCURVE",
"454 175 CURVE SMOOTH",
"454 78 OFFCURVE",
"390 21 OFFCURVE",
"265 21 CURVE SMOOTH",
"176 21 OFFCURVE",
"109 50 OFFCURVE",
"62 100 CURVE",
"49 100 OFFCURVE",
"42 94 OFFCURVE",
"42 82 CURVE SMOOTH"
);
},
{
closed = 1;
nodes = (
"154 752 LINE",
"268 850 LINE",
"382 752 LINE",
"398 752 LINE",
"292 890 LINE",
"244 890 LINE",
"138 752 LINE"
);
}
);
width = 536;
}
);
leftKerningGroup = S;
note = Scircumflex;
rightKerningGroup = S;
unicode = 015C;
},
{
glyphname = Scommaaccent;
layers = (
{
anchors = (
{
name = bottom;
position = "{274, -299}";
},
{
name = top;
position = "{268, 700}";
}
);
layerId = "A03BEFF0-B1C9-4D5E-A067-C5184F278B10";
paths = (
{
closed = 1;
nodes = (
"42 62 OFFCURVE",
"128 -10 OFFCURVE",
"272 -10 CURVE SMOOTH",
"413 -10 OFFCURVE",
"492 58 OFFCURVE",
"492 180 CURVE SMOOTH",
"492 280 OFFCURVE",
"437 336 OFFCURVE",
"282 392 CURVE SMOOTH",
"151 439 OFFCURVE",
"104 481 OFFCURVE",
"104 551 CURVE SMOOTH",
"104 630 OFFCURVE",
"160 679 OFFCURVE",
"263 679 CURVE SMOOTH",
"342 679 OFFCURVE",
"409 650 OFFCURVE",
"456 600 CURVE",
"469 600 OFFCURVE",
"476 606 OFFCURVE",
"476 618 CURVE SMOOTH",
"476 638 OFFCURVE",
"390 710 OFFCURVE",
"258 710 CURVE SMOOTH",
"137 710 OFFCURVE",
"66 654 OFFCURVE",
"66 549 CURVE SMOOTH",
"66 462 OFFCURVE",
"116 410 OFFCURVE",
"256 361 CURVE SMOOTH",
"402 311 OFFCURVE",
"454 262 OFFCURVE",
"454 175 CURVE SMOOTH",
"454 78 OFFCURVE",
"390 21 OFFCURVE",
"265 21 CURVE SMOOTH",
"176 21 OFFCURVE",
"109 50 OFFCURVE",
"62 100 CURVE",
"49 100 OFFCURVE",
"42 94 OFFCURVE",
"42 82 CURVE SMOOTH"
);
},
{
closed = 1;
nodes = (
"234 -122 OFFCURVE",
"251 -140 OFFCURVE",
"274 -140 CURVE",
"277 -163 OFFCURVE",
"257 -190 OFFCURVE",
"238 -205 CURVE",
"254 -227 LINE",
"291 -202 OFFCURVE",
"317 -151 OFFCURVE",
"317 -115 CURVE SMOOTH",
"317 -77 OFFCURVE",
"298 -60 OFFCURVE",
"274 -60 CURVE SMOOTH",
"251 -60 OFFCURVE",
"234 -77 OFFCURVE",
"234 -99 CURVE SMOOTH"
);
}
);
width = 536;
}
);
leftKerningGroup = S;
note = Scommaaccent;
rightKerningGroup = S;
unicode = 0218;
},
{
glyphname = Sdotaccent;
layers = (
{
anchors = (
{
name = bottom;
position = "{274, 0}";
},
{
name = top;
position = "{269, 843}";
}
);
layerId = "A03BEFF0-B1C9-4D5E-A067-C5184F278B10";
paths = (
{
closed = 1;
nodes = (
"42 62 OFFCURVE",
"128 -10 OFFCURVE",
"272 -10 CURVE SMOOTH",
"413 -10 OFFCURVE",
"492 58 OFFCURVE",
"492 180 CURVE SMOOTH",
"492 280 OFFCURVE",
"437 336 OFFCURVE",
"282 392 CURVE SMOOTH",
"151 439 OFFCURVE",
"104 481 OFFCURVE",
"104 551 CURVE SMOOTH",
"104 630 OFFCURVE",
"160 679 OFFCURVE",
"263 679 CURVE SMOOTH",
"342 679 OFFCURVE",
"409 650 OFFCURVE",
"456 600 CURVE",
"469 600 OFFCURVE",
"476 606 OFFCURVE",
"476 618 CURVE SMOOTH",
"476 638 OFFCURVE",
"390 710 OFFCURVE",
"258 710 CURVE SMOOTH",
"137 710 OFFCURVE",
"66 654 OFFCURVE",
"66 549 CURVE SMOOTH",
"66 462 OFFCURVE",
"116 410 OFFCURVE",
"256 361 CURVE SMOOTH",
"402 311 OFFCURVE",
"454 262 OFFCURVE",
"454 175 CURVE SMOOTH",
"454 78 OFFCURVE",
"390 21 OFFCURVE",
"265 21 CURVE SMOOTH",
"176 21 OFFCURVE",
"109 50 OFFCURVE",
"62 100 CURVE",
"49 100 OFFCURVE",
"42 94 OFFCURVE",
"42 82 CURVE SMOOTH"
);
},
{
closed = 1;
nodes = (
"227 773 OFFCURVE",
"245 755 OFFCURVE",
"269 755 CURVE SMOOTH",
"293 755 OFFCURVE",
"311 773 OFFCURVE",
"311 797 CURVE SMOOTH",
"311 821 OFFCURVE",
"293 839 OFFCURVE",
"269 839 CURVE SMOOTH",
"245 839 OFFCURVE",
"227 821 OFFCURVE",
"227 797 CURVE SMOOTH"
);
}
);
width = 536;
}
);
leftKerningGroup = S;
note = Sdotaccent;
rightKerningGroup = S;
unicode = 1E60;
},
{
glyphname = Sdotbelow;
layers = (
{
anchors = (
{
name = bottom;
position = "{274, -140}";
},
{
name = top;
position = "{268, 700}";
}
);
layerId = "A03BEFF0-B1C9-4D5E-A067-C5184F278B10";
paths = (
{
closed = 1;
nodes = (
"42 62 OFFCURVE",
"128 -10 OFFCURVE",
"272 -10 CURVE SMOOTH",
"413 -10 OFFCURVE",
"492 58 OFFCURVE",
"492 180 CURVE SMOOTH",
"492 280 OFFCURVE",
"437 336 OFFCURVE",
"282 392 CURVE SMOOTH",
"151 439 OFFCURVE",
"104 481 OFFCURVE",
"104 551 CURVE SMOOTH",
"104 630 OFFCURVE",
"160 679 OFFCURVE",
"263 679 CURVE SMOOTH",
"342 679 OFFCURVE",
"409 650 OFFCURVE",
"456 600 CURVE",
"469 600 OFFCURVE",
"476 606 OFFCURVE",
"476 618 CURVE SMOOTH",
"476 638 OFFCURVE",
"390 710 OFFCURVE",
"258 710 CURVE SMOOTH",
"137 710 OFFCURVE",
"66 654 OFFCURVE",
"66 549 CURVE SMOOTH",
"66 462 OFFCURVE",
"116 410 OFFCURVE",
"256 361 CURVE SMOOTH",
"402 311 OFFCURVE",
"454 262 OFFCURVE",
"454 175 CURVE SMOOTH",
"454 78 OFFCURVE",
"390 21 OFFCURVE",
"265 21 CURVE SMOOTH",
"176 21 OFFCURVE",
"109 50 OFFCURVE",
"62 100 CURVE",
"49 100 OFFCURVE",
"42 94 OFFCURVE",
"42 82 CURVE SMOOTH"
);
},
{
closed = 1;
nodes = (
"232 -117 OFFCURVE",
"250 -135 OFFCURVE",
"274 -135 CURVE SMOOTH",
"298 -135 OFFCURVE",
"316 -117 OFFCURVE",
"316 -93 CURVE SMOOTH",
"316 -69 OFFCURVE",
"298 -51 OFFCURVE",
"274 -51 CURVE SMOOTH",
"250 -51 OFFCURVE",
"232 -69 OFFCURVE",
"232 -93 CURVE SMOOTH"
);
}
);
width = 536;
}
);
leftKerningGroup = S;
note = Sdotbelow;
rightKerningGroup = S;
unicode = 1E62;
},
{
glyphname = Germandbls;
layers = (
{
layerId = "A03BEFF0-B1C9-4D5E-A067-C5184F278B10";
paths = (
{
closed = 1;
nodes = (
"83 -3 OFFCURVE",
"87 -4 OFFCURVE",
"91 -4 CURVE SMOOTH",
"108 -4 OFFCURVE",
"116 9 OFFCURVE",
"116 31 CURVE SMOOTH",
"116 547 LINE SMOOTH",
"116 628 OFFCURVE",
"174 679 OFFCURVE",
"266 679 CURVE SMOOTH",
"352 679 OFFCURVE",
"405 635 OFFCURVE",
"424 545 CURVE",
"226 373 LINE",
"226 353 LINE",
"288 353 LINE SMOOTH",
"402 353 OFFCURVE",
"474 289 OFFCURVE",
"474 185 CURVE SMOOTH",
"474 86 OFFCURVE",
"409 21 OFFCURVE",
"309 21 CURVE SMOOTH",
"255 21 OFFCURVE",
"228 40 OFFCURVE",
"207 58 CURVE",
"195 58 OFFCURVE",
"189 51 OFFCURVE",
"189 38 CURVE SMOOTH",
"189 17 OFFCURVE",
"236 -10 OFFCURVE",
"309 -10 CURVE SMOOTH",
"433 -10 OFFCURVE",
"513 67 OFFCURVE",
"513 185 CURVE SMOOTH",
"513 309 OFFCURVE",
"427 385 OFFCURVE",
"291 385 CURVE",
"468 537 LINE",
"442 654 OFFCURVE",
"376 710 OFFCURVE",
"266 710 CURVE SMOOTH",
"151 710 OFFCURVE",
"78 647 OFFCURVE",
"78 547 CURVE SMOOTH",
"78 0 LINE"
);
}
);
width = 559;
}
);
note = uni1E9E;
rightMetricsKey = B;
unicode = 1E9E;
},
{
glyphname = Schwa;
layers = (
{
layerId = "A03BEFF0-B1C9-4D5E-A067-C5184F278B10";
paths = (
{
closed = 1;
nodes = (
"48 120 OFFCURVE",
"146 -10 OFFCURVE",
"325 -10 CURVE SMOOTH",
"499 -10 OFFCURVE",
"610 130 OFFCURVE",
"610 350 CURVE SMOOTH",
"610 570 OFFCURVE",
"492 710 OFFCURVE",
"301 710 CURVE SMOOTH",
"164 710 OFFCURVE",
"68 638 OFFCURVE",
"68 618 CURVE SMOOTH",
"68 606 OFFCURVE",
"76 600 OFFCURVE",
"90 600 CURVE",
"142 650 OFFCURVE",
"217 679 OFFCURVE",
"298 679 CURVE SMOOTH",
"465 679 OFFCURVE",
"568 556 OFFCURVE",
"571 362 CURVE",
"52 362 LINE",
"49 350 OFFCURVE",
"48 339 OFFCURVE",
"48 325 CURVE SMOOTH"
);
},
{
closed = 1;
nodes = (
"571 334 LINE",
"568 143 OFFCURVE",
"472 21 OFFCURVE",
"325 21 CURVE SMOOTH",
"168 21 OFFCURVE",
"91 131 OFFCURVE",
"87 328 CURVE"
);
}
);
width = 660;
}
);
note = uni018F;
unicode = 018F;
},
{
glyphname = T;
layers = (
{
anchors = (
{
name = bottom;
position = "{252, 0}";
},
{
name = center;
position = "{252, 350}";
},
{
name = top;
position = "{252, 700}";
}
);
layerId = "A03BEFF0-B1C9-4D5E-A067-C5184F278B10";
paths = (
{
closed = 1;
nodes = (
"26 676 OFFCURVE",
"27 672 OFFCURVE",
"29 668 CURVE",
"233 668 LINE",
"233 0 LINE",
"238 -3 OFFCURVE",
"242 -4 OFFCURVE",
"246 -4 CURVE SMOOTH",
"263 -4 OFFCURVE",
"271 9 OFFCURVE",
"271 31 CURVE SMOOTH",
"271 668 LINE",
"449 668 LINE SMOOTH",
"467 668 OFFCURVE",
"478 675 OFFCURVE",
"478 688 CURVE SMOOTH",
"478 692 OFFCURVE",
"477 696 OFFCURVE",
"475 700 CURVE",
"55 700 LINE SMOOTH",
"37 700 OFFCURVE",
"26 693 OFFCURVE",
"26 680 CURVE SMOOTH"
);
}
);
width = 504;
}
);
leftKerningGroup = T;
note = T;
rightKerningGroup = T;
unicode = 0054;
},
{
glyphname = Tbar;
layers = (
{
anchors = (
{
name = bottom;
position = "{252, 0}";
},
{
name = center;
position = "{252, 350}";
},
{
name = top;
position = "{252, 700}";
}
);
layerId = "A03BEFF0-B1C9-4D5E-A067-C5184F278B10";
paths = (
{
closed = 1;
nodes = (
"26 676 OFFCURVE",
"27 672 OFFCURVE",
"29 668 CURVE",
"233 668 LINE",
"233 374 LINE",
"70 374 LINE",
"70 344 LINE",
"233 344 LINE",
"233 0 LINE",
"238 -3 OFFCURVE",
"242 -4 OFFCURVE",
"246 -4 CURVE SMOOTH",
"263 -4 OFFCURVE",
"271 9 OFFCURVE",
"271 31 CURVE SMOOTH",
"271 344 LINE",
"434 344 LINE",
"434 374 LINE",
"271 374 LINE",
"271 668 LINE",
"449 668 LINE SMOOTH",
"467 668 OFFCURVE",
"478 675 OFFCURVE",
"478 688 CURVE SMOOTH",
"478 692 OFFCURVE",
"477 696 OFFCURVE",
"475 700 CURVE",
"55 700 LINE SMOOTH",
"37 700 OFFCURVE",
"26 693 OFFCURVE",
"26 680 CURVE SMOOTH"
);
}
);
width = 504;
}
);
leftKerningGroup = T;
note = Tbar;
rightKerningGroup = T;
unicode = 0166;
},
{
glyphname = Tcaron;
layers = (
{
anchors = (
{
name = bottom;
position = "{252, 0}";
},
{
name = center;
position = "{252, 350}";
},
{
name = top;
position = "{252, 890}";
}
);
layerId = "A03BEFF0-B1C9-4D5E-A067-C5184F278B10";
paths = (
{
closed = 1;
nodes = (
"26 676 OFFCURVE",
"27 672 OFFCURVE",
"29 668 CURVE",
"233 668 LINE",
"233 0 LINE",
"238 -3 OFFCURVE",
"242 -4 OFFCURVE",
"246 -4 CURVE SMOOTH",
"263 -4 OFFCURVE",
"271 9 OFFCURVE",
"271 31 CURVE SMOOTH",
"271 668 LINE",
"449 668 LINE SMOOTH",
"467 668 OFFCURVE",
"478 675 OFFCURVE",
"478 688 CURVE SMOOTH",
"478 692 OFFCURVE",
"477 696 OFFCURVE",
"475 700 CURVE",
"55 700 LINE SMOOTH",
"37 700 OFFCURVE",
"26 693 OFFCURVE",
"26 680 CURVE SMOOTH"
);
},
{
closed = 1;
nodes = (
"228 752 LINE",
"276 752 LINE",
"382 890 LINE",
"366 890 LINE",
"252 792 LINE",
"138 890 LINE",
"122 890 LINE"
);
}
);
width = 504;
}
);
leftKerningGroup = T;
note = Tcaron;
rightKerningGroup = T;
unicode = 0164;
},
